<?xml version="1.0" encoding="utf-8"?>
<!-- Generator: Adobe Illustrator 16.0.0, SVG Export Plug-In . SVG Version: 6.00 Build 0)  -->
<!DOCTYPE svg PUBLIC "-//W3C//DTD SVG 1.1//EN" "http://www.w3.org/Graphics/SVG/1.1/DTD/svg11.dtd">
<svg version="1.1" id="Layer_1" xmlns="http://www.w3.org/2000/svg" xmlns:xlink="http://www.w3.org/1999/xlink" x="0px" y="0px"
	 width="167.053px" height="26.078px" viewBox="0 0 167.053 26.078" enable-background="new 0 0 167.053 26.078"
	 xml:space="preserve">
<g>
	<g>
		<polygon fill="#29343A" points="159.837,10.675 166.669,0.417 159.21,0.417 155.999,5.089 		"/>
		<polygon fill="#29343A" points="159.821,15.207 155.999,20.46 159.614,25.417 167.054,25.417 		"/>
	</g>
	<g>
		<g>
			<g>
				<g>
					<path fill="#096166" d="M13.342,0.291c2.48,0,4.3,0.623,5.459,1.869c1.16,1.244,1.739,3.904,1.739,6.387
						c0,2.512-0.604,5.523-1.813,6.764c-1.208,1.242-3.004,1.861-5.387,1.861H5.724v8.615H0V0.291H13.342L13.342,0.291z
						 M5.725,4.626v8.242H11.5c0.646,0,1.18-0.061,1.601-0.178c0.421-0.119,0.754-0.303,1.002-0.553
						c0.249-0.246,0.422-0.568,0.52-0.969c0.097-0.398,0.146-2.809,0.146-3.357c0-0.551-0.043-1.025-0.129-1.432
						c-0.087-0.406-0.254-0.736-0.502-0.996c-0.248-0.258-0.59-0.449-1.027-0.574c-0.437-0.123-1.01-0.184-1.723-0.184H5.725
						L5.725,4.626z"/>
				</g>
			</g>
			<g>
				<g>
					<path fill="#096166" d="M22.45,8.701c0-1.553,0.187-2.877,0.559-3.979c0.372-1.1,0.949-2,1.73-2.703
						c0.779-0.699,1.778-1.211,2.992-1.533C28.943,0.162,30.396,0,32.089,0h2.716c1.703,0,3.162,0.16,4.376,0.477
						c1.213,0.318,2.207,0.826,2.983,1.521s1.344,1.596,1.708,2.701c0.358,1.104,0.539,2.439,0.539,4.002v7.971
						c0,1.551-0.184,3.582-0.55,4.684c-0.366,1.1-0.938,1.998-1.715,2.701c-0.774,0.701-1.77,1.213-2.982,1.535
						c-1.212,0.324-2.666,0.486-4.359,0.486h-2.716c-1.693,0-3.146-0.162-4.358-0.486c-1.214-0.322-2.213-0.834-2.992-1.535
						c-0.781-0.703-1.358-1.602-1.73-2.701c-0.372-1.102-0.559-3.133-0.559-4.684V8.701z M33.248,4.9
						c-0.906,0-1.669,0.063-2.293,0.186C30.33,5.21,29.818,5.449,29.42,5.798c-0.399,0.352-0.688,0.844-0.865,1.48
						c-0.178,0.635-0.266,2.172-0.266,3.195v5.16c0,1.023,0.088,2.559,0.266,3.188c0.177,0.631,0.466,1.125,0.865,1.479
						c0.397,0.357,0.909,0.598,1.534,0.719c0.624,0.125,1.387,0.189,2.293,0.189h0.368c0.905,0,1.669-0.064,2.294-0.189
						c0.625-0.121,1.135-0.357,1.533-0.709c0.399-0.352,0.688-0.844,0.864-1.479c0.178-0.637,0.269-2.174,0.269-3.197v-5.191
						c0-1.025-0.091-2.559-0.269-3.188c-0.177-0.631-0.463-1.121-0.855-1.473c-0.394-0.352-0.904-0.584-1.534-0.701
						c-0.63-0.121-1.396-0.18-2.301-0.18h-0.369V4.9z"/>
				</g>
			</g>
			<g>
				<g>
					<path fill="#096166" d="M52.534,20.886h9.789v4.9H46.806V0.291h5.728V20.886z"/>
				</g>
			</g>
			<g>
				<g>
					<path fill="#096166" d="M63.556,8.701c0-1.553,0.187-2.877,0.558-3.979c0.372-1.1,0.95-2,1.73-2.703
						c0.782-0.699,1.781-1.211,2.992-1.533C70.051,0.162,71.503,0,73.198,0h2.714c1.704,0,3.161,0.16,4.375,0.477
						c1.214,0.318,2.207,0.826,2.983,1.521c0.778,0.695,1.348,1.596,1.708,2.701c0.361,1.104,0.541,2.439,0.541,4.002v7.971
						c0,1.551-0.184,3.582-0.551,4.684c-0.365,1.1-0.938,1.998-1.713,2.701c-0.776,0.701-1.771,1.213-2.983,1.535
						c-1.214,0.324-2.667,0.486-4.359,0.486h-2.714c-1.694,0-3.146-0.162-4.361-0.486c-1.211-0.322-2.21-0.834-2.992-1.535
						c-0.78-0.703-1.358-1.602-1.73-2.701c-0.371-1.102-0.558-3.133-0.558-4.684V8.701z M74.354,4.9
						c-0.903,0-1.671,0.063-2.294,0.186c-0.624,0.125-1.138,0.363-1.534,0.713c-0.397,0.352-0.688,0.844-0.864,1.48
						c-0.178,0.635-0.268,2.172-0.268,3.195v5.16c0,1.023,0.09,2.559,0.268,3.188c0.178,0.631,0.467,1.125,0.864,1.479
						c0.396,0.357,0.91,0.598,1.534,0.719c0.623,0.125,1.391,0.189,2.294,0.189h0.369c0.903,0,1.668-0.064,2.292-0.189
						c0.625-0.121,1.137-0.357,1.534-0.709c0.398-0.352,0.688-0.844,0.865-1.479c0.177-0.637,0.267-2.174,0.267-3.197v-5.191
						c0-1.025-0.09-2.559-0.267-3.188c-0.179-0.631-0.465-1.121-0.856-1.473c-0.393-0.352-0.905-0.584-1.535-0.701
						c-0.63-0.121-1.396-0.18-2.3-0.18h-0.369V4.9z"/>
				</g>
			</g>
			<g>
				<g>
					<path fill="#096166" d="M88.239,0.291h6.584l9.539,17.406V0.291h5.369v25.496h-6.584L93.608,8.185v17.602h-5.369V0.291z"/>
				</g>
			</g>
			<g>
				<g>
					<path fill="#096166" d="M113.21,0.291h5.727v25.496h-5.727V0.291z"/>
				</g>
			</g>
			<g>
				<g>
					<path fill="#096166" d="M122.384,0.291h17.611v4.9h-11.887v5.219h11.498v4.867h-11.498v5.609h11.887v4.898h-17.611V0.291z"/>
				</g>
			</g>
			<g>
				<g>
					<path fill="#096166" d="M158.14,13.039l-9.164,12.748h-7.426l8.881-12.725l-8.477-12.771h7.459L158.14,13.039"/>
				</g>
			</g>
		</g>
	</g>
</g>
</svg>
