<?xml version="1.0" encoding="utf-8"?>
<!-- Generator: Adobe Illustrator 16.0.0, SVG Export Plug-In . SVG Version: 6.00 Build 0)  -->
<!DOCTYPE svg PUBLIC "-//W3C//DTD SVG 1.1//EN" "http://www.w3.org/Graphics/SVG/1.1/DTD/svg11.dtd">
<svg version="1.1" id="Layer_1" xmlns="http://www.w3.org/2000/svg" xmlns:xlink="http://www.w3.org/1999/xlink" x="0px" y="0px"
	 width="184.854px" height="47.541px" viewBox="0 0 184.854 47.541" enable-background="new 0 0 184.854 47.541"
	 xml:space="preserve">
<g>
	<circle cx="27.802" cy="23.773" r="4.021"/>
	<path d="M42.364,18.577c1.569-1.567,1.569-4.112,0-5.683L30.637,1.167c-1.563-1.563-4.136-1.549-5.685,0L8.037,18.085V8.028
		c0-2.218-1.799-4.019-4.019-4.019C1.8,4.009,0,5.806,0,8.028v31.487c0,2.221,1.8,4.02,4.019,4.02c2.208,0,4.019-1.811,4.019-4.02
		V29.456l16.915,16.918c1.549,1.549,4.121,1.563,5.685,0l11.727-11.727c1.569-1.57,1.569-4.115,0-5.684
		c-1.567-1.568-4.112-1.568-5.685,0l-8.883,8.883L13.718,23.771L27.796,9.692l8.883,8.883C38.25,20.147,40.795,20.147,42.364,18.577
		z"/>
	<path d="M101.182,16.382c-1.359,0-2.489,1.129-2.489,2.488V36.3h-5.317c-2.369,0-4.289-1.922-4.289-4.289l0.001-13.14
		c0-1.361-1.126-2.488-2.49-2.488c-1.36,0-2.491,1.129-2.491,2.488v13.14c0,5.115,4.152,9.27,9.271,9.27h7.811
		c1.355,0,2.489-1.131,2.489-2.49V18.873C103.674,17.503,102.551,16.382,101.182,16.382z"/>
	<path d="M60.443,6.263c-1.358,0-2.488,1.129-2.488,2.49V38.79c0,1.363,1.125,2.49,2.491,2.49c1.364,0,2.49-1.127,2.49-2.49
		L62.935,8.753C62.935,7.39,61.808,6.263,60.443,6.263z"/>
	<path d="M79.797,6.989c-0.962-0.962-2.561-0.964-3.522,0L65.134,18.13c-0.826,0.828-0.718,2.112-0.35,2.748l11.087,19.158
		c0.672,1.158,2.235,1.602,3.404,0.912c1.17-0.688,1.596-2.223,0.916-3.398L70.133,20.175l9.663-9.664
		C80.763,9.546,80.763,7.957,79.797,6.989z"/>
	<path d="M117.775,11.246h9.449c1.364,0,2.49-1.129,2.49-2.49s-1.129-2.49-2.49-2.49h-9.449c-5.119,0-9.271,4.152-9.271,9.271
		v16.477c0,5.117,4.15,9.27,9.271,9.27h9.449c1.364,0,2.49-1.127,2.49-2.49c0-1.359-1.129-2.488-2.49-2.488h-9.449
		c-2.369,0-4.291-1.922-4.291-4.291V15.535C113.484,13.166,115.406,11.246,117.775,11.246z"/>
	<path d="M143.136,16.382h-0.621c-5.093,0-9.219,4.168-9.219,9.269v6.359c0,5.102,4.123,9.273,9.219,9.27h0.621
		c5.072-0.006,9.171-4.184,9.171-9.27v-6.359C152.307,20.567,148.208,16.386,143.136,16.382z M147.326,32.011
		c0,2.365-1.916,4.289-4.28,4.289h-0.488c-2.364,0-4.279-1.924-4.279-4.289v-6.359c0-2.363,1.916-4.289,4.279-4.289h0.488
		c2.363,0,4.28,1.924,4.28,4.289V32.011z"/>
	<path d="M175.584,16.38l-7.811,0.004c-1.355,0-2.487,1.133-2.487,2.488l-0.001,19.917c0,1.369,1.123,2.49,2.49,2.49
		c1.359,0,2.489-1.129,2.489-2.49V21.363h5.318c2.369,0,4.29,1.921,4.29,4.289V38.79c0,1.363,1.126,2.49,2.488,2.49
		c1.36,0,2.491-1.131,2.491-2.49l0.001-13.139C184.856,20.534,180.702,16.38,175.584,16.38z"/>
	<path d="M158.797,6.263c-1.366,0-2.49,1.123-2.49,2.49c0,1.366,1.124,2.491,2.49,2.491s2.49-1.126,2.49-2.491
		S160.163,6.263,158.797,6.263z"/>
	<path d="M158.797,16.384c-1.366,0-2.49,1.123-2.49,2.488V38.79c0,1.365,1.124,2.49,2.49,2.49s2.49-1.125,2.49-2.49V18.873
		C161.287,17.509,160.161,16.384,158.797,16.384z"/>
</g>
</svg>
