<?xml version="1.0" encoding="utf-8"?>
<!-- Generator: Adobe Illustrator 16.0.0, SVG Export Plug-In . SVG Version: 6.00 Build 0)  -->
<!DOCTYPE svg PUBLIC "-//W3C//DTD SVG 1.1//EN" "http://www.w3.org/Graphics/SVG/1.1/DTD/svg11.dtd">
<svg version="1.1" id="Layer_1" xmlns="http://www.w3.org/2000/svg" xmlns:xlink="http://www.w3.org/1999/xlink" x="0px" y="0px"
	 width="201.508px" height="45.307px" viewBox="0 0 201.508 45.307" enable-background="new 0 0 201.508 45.307"
	 xml:space="preserve">
<title>bittrex-word-mark</title>
<desc>Created with Sketch.</desc>
<g>
	<path d="M71.211,22.27c2.756-0.842,4.249-2.988,4.249-6.088c0-4.06-3.024-6.471-8.19-6.471h-8.19v25.883h8.957
		c5.434,0,8.65-2.643,8.65-7.084C76.687,25.411,74.658,23.074,71.211,22.27z M61.989,12.161h5.28c3.293,0,5.205,1.608,5.205,4.251
		c0,3.023-1.914,4.938-4.86,4.938h-5.625V12.161z M68.036,33.145h-6.049v-9.498h6.279c3.291,0,5.433,1.918,5.433,4.863
		C73.699,31.423,71.595,33.145,68.036,33.145z"/>
	<rect x="83.154" y="9.707" width="2.91" height="25.891"/>
	<polygon points="193.576,22.384 201.271,9.746 197.749,9.746 191.977,20.012 191.747,21.006 191.51,20.012 185.736,9.746 
		182.256,9.746 189.947,22.384 182.025,35.598 185.583,35.598 191.51,24.954 191.747,23.956 191.977,24.954 197.947,35.598 
		201.508,35.598 	"/>
	<polygon points="92.302,12.161 99.613,12.161 99.613,35.598 102.521,35.598 102.521,12.161 109.752,12.161 109.752,9.707 
		92.302,9.707 	"/>
	<path d="M148.413,25.219c3.444-0.805,5.626-3.408,5.626-7.583c0-4.979-3.369-7.93-9.073-7.93h-7.454v25.887h2.906V25.563h5.588
		l5.626,10.031h3.445l-5.892-9.611L148.413,25.219z M145.311,23.266h-4.938V12.161h5.129c3.521,0,5.588,2.026,5.588,5.477
		C151.09,21.391,148.755,23.266,145.311,23.266z"/>
	<polygon points="164.333,23.762 175.203,23.762 175.203,21.428 164.333,21.428 164.333,12.161 176.352,12.161 176.352,9.707 
		161.426,9.707 161.426,35.594 176.466,35.594 176.466,33.145 164.333,33.145 	"/>
	<polygon points="113.964,12.161 121.273,12.161 121.273,35.598 124.186,35.598 124.186,12.161 131.415,12.161 131.415,9.707 
		113.964,9.707 	"/>
	<polygon points="30.923,40.885 4.416,40.885 4.416,14.366 30.923,14.366 30.923,28.331 35.334,28.331 35.334,9.946 0,9.946 
		0,45.305 35.334,45.305 35.334,37.985 30.923,37.985 	"/>
	<polygon points="9.17,7.037 13.589,7.037 13.589,4.42 40.094,4.42 40.094,30.94 13.589,30.94 13.589,16.691 9.17,16.691 
		9.17,35.362 44.511,35.362 44.511,0 9.17,0 	"/>
</g>
</svg>
