<?xml version="1.0" encoding="utf-8"?>
<!-- Generator: Adobe Illustrator 16.0.0, SVG Export Plug-In . SVG Version: 6.00 Build 0)  -->
<!DOCTYPE svg PUBLIC "-//W3C//DTD SVG 1.1//EN" "http://www.w3.org/Graphics/SVG/1.1/DTD/svg11.dtd">
<svg version="1.1" id="Layer_1" xmlns="http://www.w3.org/2000/svg" xmlns:xlink="http://www.w3.org/1999/xlink" x="0px" y="0px"
	 width="188.051px" height="47.508px" viewBox="0 0 188.051 47.508" enable-background="new 0 0 188.051 47.508"
	 xml:space="preserve">
<rect x="291.365" y="-400.117" display="none" fill="#FFFFFF" width="1570.537" height="729.947"/>
<g>
	<path fill="#454E72" d="M58.419,28.432c-2.684,0-5.365,0-8.049,0c-0.678,0-0.812,0.102-0.869,0.77
		c-0.225,2.49-0.428,4.975-0.639,7.459c-0.242,2.891-0.486,5.781-0.738,8.668c-0.063,0.82-0.467,1.174-1.275,1.174
		c-1.895,0-3.776,0-5.67,0c-0.84,0-1.184-0.334-1.114-1.174c0.205-2.568,0.428-5.143,0.641-7.715
		c0.223-2.602,0.455-5.203,0.688-7.805c0.324-3.715,0.648-7.421,0.974-11.136c0.283-3.312,0.565-6.619,0.85-9.932
		c0.082-0.892,0.144-1.781,0.244-2.675c0.09-0.735,0.484-1.069,1.215-1.069c1.924-0.011,3.847-0.011,5.771,0
		c0.762,0,1.123,0.385,1.063,1.143c-0.252,3.037-0.52,6.086-0.778,9.121c-0.175,1.996-0.367,4-0.525,5.994
		c-0.053,0.596,0.027,0.668,0.646,0.668c5.438,0,10.861,0,16.3,0c0.616,0,0.719-0.092,0.778-0.729
		c0.306-3.422,0.599-6.854,0.9-10.274c0.143-1.58,0.272-3.16,0.426-4.738c0.08-0.861,0.465-1.184,1.314-1.193
		c1.844,0,3.676,0,5.52,0c0.898,0,1.224,0.383,1.152,1.305c-0.354,4.08-0.697,8.172-1.053,12.25
		c-0.386,4.404-0.789,8.8-1.175,13.201c-0.295,3.291-0.559,6.59-0.84,9.881c-0.112,1.26-0.213,2.521-0.326,3.775
		c-0.069,0.75-0.475,1.105-1.233,1.105c-1.894,0-3.775,0-5.668,0c-0.801,0-1.146-0.346-1.072-1.164
		c0.172-2.207,0.363-4.404,0.555-6.604c0.193-2.234,0.388-4.463,0.578-6.701c0.08-0.963,0.172-1.912,0.265-2.875
		c0.063-0.605-0.031-0.719-0.638-0.729C63.886,28.432,61.152,28.432,58.419,28.432z"/>
	<path fill="#454E72" d="M85.509,16.932c0.881,0,1.752,0,2.631,0c0.813,0,1.188,0.373,1.125,1.193
		c-0.202,2.541-0.436,5.071-0.646,7.613c-0.244,2.855-0.576,5.699-0.709,8.564c-0.051,1.164,0.029,2.33,0.354,3.451
		c0.75,2.568,2.634,3.521,5.134,3.313c2.743-0.234,4.192-1.984,4.979-4.434c0.496-1.555,0.668-3.16,0.801-4.781
		c0.252-3.025,0.525-6.043,0.791-9.068c0.119-1.459,0.24-2.927,0.354-4.386c0.09-1.185,0.395-1.467,1.578-1.467
		c1.619,0,3.237,0,4.858,0c0.992,0,1.316,0.323,1.226,1.326c-0.224,2.729-0.468,5.475-0.705,8.211
		c-0.285,3.166-0.469,6.354-0.902,9.514c-0.354,2.541-1.195,4.91-2.805,6.947c-1.742,2.193-4.062,3.461-6.765,4.049
		c-3.18,0.688-6.354,0.707-9.506-0.154c-3.987-1.092-6.225-3.754-6.924-7.773c-0.335-1.893-0.243-3.797-0.071-5.699
		c0.23-2.621,0.455-5.244,0.688-7.854c0.223-2.521,0.445-5.031,0.678-7.555c0.062-0.614,0.486-1.002,1.113-1.002
		C83.688,16.932,84.599,16.932,85.509,16.932z"/>
	<path fill="#454E72" d="M21.751,15.685c0.021,2.438-0.961,4.373-2.338,6.164c-1.186,1.551-2.602,2.875-3.988,4.233
		c-4.02,3.969-6.764,8.705-8.574,14.021c-0.364,1.053-0.68,2.115-0.911,3.209c-0.111,0.518-0.201,0.547-0.597,0.189
		c-6.744-5.908-7.157-15.982-0.934-22.44c0.801-0.832,1.723-1.521,2.521-2.34c3.392-3.44,5.617-7.502,6.418-12.302
		c0.322-1.973,0.455-3.946,0.273-5.942c-0.021-0.16-0.102-0.362,0.102-0.453c0.191-0.094,0.313,0.091,0.437,0.191
		c1.771,1.559,3.229,3.391,4.465,5.396c1.75,2.834,2.693,5.932,3.098,9.223C21.751,15.148,21.741,15.473,21.751,15.685z"/>
	<path fill="#24A9E2" d="M15.525,47.189c-1.681-0.029-3.33-0.334-4.972-0.76c-0.231-0.061-0.424-0.121-0.354-0.426
		c0.051-0.24,0.029-0.484,0.404-0.523c0.881-0.092,1.446-0.6,1.67-1.449c0.102-0.373,0.19-0.76,0.223-1.143
		c0.191-2.623,1.428-4.779,2.986-6.793c1.539-1.977,3.409-3.646,5.104-5.479c2.805-3.047,5.082-6.419,6.459-10.356
		c0.051-0.152,0.051-0.375,0.262-0.396c0.234-0.021,0.283,0.213,0.365,0.363c1.164,2.096,1.935,4.333,2.369,6.691
		c0.375,2.016,0.598,4.041,0.414,6.084c-0.395,4.557-2.316,8.303-6.002,11.064C21.823,46.057,18.866,47.16,15.525,47.189z"/>
	<path fill="#454E72" d="M180.833,46.502c-0.859,0-1.721,0-2.582,0c-0.83,0-1.184-0.375-1.113-1.246
		c0.172-2.115,0.375-4.23,0.558-6.348c0.324-3.766,0.647-7.521,0.975-11.287c0.271-3.18,0.547-6.348,0.83-9.516
		c0.068-0.801,0.496-1.164,1.295-1.164c1.743,0,3.473,0,5.215,0c0.85,0,1.203,0.363,1.133,1.226
		c-0.232,2.854-0.496,5.709-0.738,8.564c-0.364,4.182-0.719,8.363-1.084,12.543c-0.182,2.045-0.364,4.1-0.565,6.145
		c-0.072,0.75-0.445,1.084-1.187,1.084C182.656,46.502,181.745,46.502,180.833,46.502z"/>
	<path fill="#454E72" d="M183.688,14.006c-0.882,0-1.75,0-2.632,0c-0.77,0-1.133-0.355-1.082-1.115
		c0.121-1.699,0.271-3.391,0.425-5.08c0.053-0.578,0.485-0.973,1.104-0.984c1.853-0.02,3.706-0.02,5.56,0
		c0.678,0.015,1.043,0.469,0.981,1.14c-0.152,1.655-0.306,3.315-0.468,4.979c-0.071,0.707-0.444,1.054-1.163,1.064
		C185.511,14.016,184.599,14.006,183.688,14.006z"/>
	<path fill="#454E72" d="M171.245,20.717c-1.893-2.58-4.393-4.232-7.603-4.586c-3.553-0.394-6.926,0.143-9.899,2.299
		c-0.185,0.131-0.385,0.232-0.609,0.111c-0.201-0.111-0.19-0.306-0.17-0.496c0.211-2.392,0.424-4.769,0.627-7.158
		c0.16-1.852,0.322-3.693,0.465-5.547c0.052-0.699-0.264-1.072-0.897-1.084c-1.896-0.021-3.777-0.01-5.67,0
		c-0.601,0-0.963,0.375-1.033,0.973c-0.049,0.445-0.08,0.9-0.121,1.355c-0.324,3.686-0.647,7.36-0.971,11.035
		c-0.256,2.926-0.486,5.842-0.74,8.767c-0.293,3.32-0.588,6.65-0.881,9.971c-0.252,2.986-0.506,5.984-0.771,8.971
		c-0.059,0.73,0.306,1.174,1.033,1.174c1.822,0.014,3.646,0.014,5.467,0c0.679,0,1.054-0.354,1.154-1.02
		c0.051-0.365,0.111-0.73,0.182-1.188c0.457,0.568,0.91,1.021,1.439,1.416c0.525,0.355,1.072,0.689,1.682,0.912
		c2.511,0.936,5.103,1.094,7.715,0.641c3.634-0.641,6.438-2.633,8.664-5.51c2.238-2.895,3.392-6.217,3.757-9.83
		C174.476,27.855,173.695,24.068,171.245,20.717z M166.335,30.74c-0.08,3.34-1.133,6.246-3.785,8.422
		c-2.299,1.885-6.186,2.105-8.373,0.445c-1.821-1.396-2.854-3.26-3.137-5.52c-0.365-2.912,0.242-5.629,2.045-7.977
		c1.963-2.562,4.555-3.806,7.834-3.22c1.945,0.346,3.271,1.599,4.232,3.251C165.982,27.561,166.376,29.1,166.335,30.74z"/>
	<path fill="#454E72" d="M140.632,26.863c-0.75-4.385-3.178-7.635-7.248-9.547c-2.188-1.032-4.524-1.377-6.936-1.325
		c-6.104,0.131-10.853,2.711-14,7.956c-2.34,3.897-2.967,8.19-2.188,12.635c0.627,3.605,2.48,6.488,5.527,8.555
		c2.529,1.721,5.385,2.299,8.395,2.316c0.232,0,0.466,0.021,0.697,0c0.588-0.041,1.174-0.068,1.762-0.15
		c4.949-0.666,8.798-3.107,11.48-7.289C140.702,35.994,141.423,31.52,140.632,26.863z M131.359,36.916
		c-1.054,1.68-2.488,2.996-4.465,3.502c-2.562,0.648-4.979,0.385-6.976-1.549c-1.447-1.408-2.084-3.189-2.207-5.182
		c-0.01-0.266,0-0.539,0-0.801c0.021-2.891,0.791-5.498,2.824-7.639c2.104-2.216,4.697-2.976,7.654-2.285
		c2.096,0.476,3.412,1.953,4.2,3.855C133.839,30.344,133.343,33.727,131.359,36.916z"/>
</g>
</svg>
