<?xml version="1.0" encoding="utf-8"?>
<!-- Generator: Adobe Illustrator 16.0.0, SVG Export Plug-In . SVG Version: 6.00 Build 0)  -->
<!DOCTYPE svg PUBLIC "-//W3C//DTD SVG 1.1//EN" "http://www.w3.org/Graphics/SVG/1.1/DTD/svg11.dtd">
<svg version="1.1" id="Layer_1" xmlns="http://www.w3.org/2000/svg" xmlns:xlink="http://www.w3.org/1999/xlink" x="0px" y="0px"
	 width="184.854px" height="47.541px" viewBox="0 0 184.854 47.541" enable-background="new 0 0 184.854 47.541"
	 xml:space="preserve">
<g>
	<path fill="#0093DD" d="M13.717,23.771l14.078,14.077l8.883-8.884c1.571-1.569,4.116-1.569,5.685,0
		c1.569,1.567,1.569,4.112,0,5.684L30.636,46.374c-1.563,1.563-4.136,1.549-5.685,0L8.036,29.456v10.058
		c0,2.21-1.811,4.021-4.019,4.021c-2.219,0-4.019-1.801-4.019-4.021V8.027c0-2.221,1.8-4.019,4.019-4.019
		c2.22,0,4.019,1.801,4.019,4.019v10.058L24.951,1.167c1.549-1.549,4.121-1.563,5.685,0l11.727,11.727
		c1.569,1.57,1.569,4.115,0,5.684c-1.567,1.569-4.112,1.569-5.685,0l-8.883-8.884L13.717,23.771z M27.801,19.747
		c2.22,0,4.021,1.803,4.021,4.023c0,2.22-1.803,4.021-4.021,4.021c-2.224,0-4.022-1.803-4.022-4.021
		C23.779,21.548,25.577,19.747,27.801,19.747z"/>
	<g transform="translate(42 4)">
		<path fill="#68B92E" d="M18.442,2.261c-1.358,0-2.488,1.129-2.488,2.49v30.036c0,1.363,1.125,2.49,2.491,2.49
			c1.364,0,2.49-1.127,2.49-2.49L20.934,4.751C20.934,3.388,19.807,2.261,18.442,2.261L18.442,2.261z M37.796,2.986
			c-0.962-0.962-2.561-0.964-3.522,0L23.133,14.128c-0.826,0.828-0.718,2.112-0.35,2.748L33.87,36.033
			c0.672,1.158,2.235,1.602,3.404,0.913c1.17-0.688,1.596-2.224,0.916-3.398L28.132,16.173l9.663-9.664
			C38.762,5.544,38.762,3.954,37.796,2.986z M44.595,12.38c-1.36,0-2.491,1.129-2.491,2.488v13.141c0,5.115,4.152,9.27,9.271,9.27
			h7.811c1.355,0,2.489-1.131,2.489-2.49V14.87c0-1.369-1.123-2.488-2.492-2.488c-1.359,0-2.489,1.129-2.489,2.488v17.428
			L51.375,32.3c-2.369,0-4.289-1.922-4.289-4.291l0.001-13.139C47.085,13.507,45.959,12.38,44.595,12.38L44.595,12.38z
			 M87.713,4.753c0-1.361-1.129-2.49-2.49-2.49h-9.449c-5.119,0-9.271,4.152-9.271,9.271v16.478c0,5.117,4.15,9.27,9.271,9.27h9.449
			c1.364,0,2.49-1.127,2.49-2.49c0-1.359-1.129-2.488-2.49-2.488h-9.449c-2.369,0-4.291-1.922-4.291-4.291V11.532
			c0-2.369,1.922-4.289,4.291-4.289h9.449C86.587,7.243,87.713,6.114,87.713,4.753L87.713,4.753z M116.796,2.261
			c-1.366,0-2.49,1.123-2.49,2.49c0,1.366,1.124,2.491,2.49,2.491s2.49-1.126,2.49-2.491S118.162,2.261,116.796,2.261z
			 M116.796,12.382c-1.366,0-2.49,1.123-2.49,2.488v19.917c0,1.366,1.124,2.49,2.49,2.49s2.49-1.124,2.49-2.49V14.87
			C119.286,13.507,118.16,12.382,116.796,12.382z M140.363,37.277c1.36,0,2.491-1.13,2.491-2.489l0.001-13.139
			c0-5.118-4.152-9.271-9.271-9.271l-7.811,0.004c-1.355,0-2.487,1.133-2.487,2.488l-0.001,19.918c0,1.369,1.122,2.489,2.49,2.489
			c1.359,0,2.489-1.129,2.489-2.489V17.36h5.318c2.369,0,4.29,1.921,4.29,4.289v13.139C137.873,36.15,138.999,37.277,140.363,37.277
			L140.363,37.277z M91.295,21.648c0-5.101,4.126-9.269,9.219-9.269h0.621c5.072,0.004,9.171,4.185,9.171,9.269v6.36
			c0,5.086-4.099,9.264-9.171,9.27h-0.621c-5.096,0.004-9.219-4.169-9.219-9.27V21.648L91.295,21.648z M105.325,21.648
			c0-2.364-1.917-4.288-4.28-4.288h-0.488c-2.363,0-4.279,1.925-4.279,4.288v6.36c0,2.365,1.915,4.289,4.279,4.289h0.488
			c2.364,0,4.28-1.924,4.28-4.289V21.648z"/>
	</g>
</g>
</svg>
