<?xml version="1.0" encoding="utf-8"?>
<!-- Generator: Adobe Illustrator 16.0.0, SVG Export Plug-In . SVG Version: 6.00 Build 0)  -->
<!DOCTYPE svg PUBLIC "-//W3C//DTD SVG 1.1//EN" "http://www.w3.org/Graphics/SVG/1.1/DTD/svg11.dtd">
<svg version="1.1" id="Your_design" xmlns="http://www.w3.org/2000/svg" xmlns:xlink="http://www.w3.org/1999/xlink" x="0px"
	 y="0px" width="241.885px" height="48.378px" viewBox="0 0 241.885 48.378" enable-background="new 0 0 241.885 48.378"
	 xml:space="preserve">
<g>
	<polygon points="24.188,10.933 33.589,20.333 39.055,14.867 24.188,0 9.327,14.863 14.795,20.33 	"/>
	<rect x="1.601" y="20.328" transform="matrix(0.7071 -0.7071 0.7071 0.7071 -15.5055 10.9522)" width="7.734" height="7.73"/>
	<polygon points="24.188,37.445 14.795,28.048 9.32,33.507 9.327,33.515 24.188,48.378 39.055,33.509 39.059,33.507 33.589,28.044 	
		"/>
	<rect x="39.04" y="20.328" transform="matrix(-0.7071 -0.7071 0.7071 -0.7071 56.1378 71.6388)" width="7.731" height="7.731"/>
	<polygon points="24.188,18.638 20.089,22.738 19.618,23.208 18.647,24.181 18.639,24.189 18.647,24.197 24.188,29.738 
		29.736,24.193 29.739,24.189 29.734,24.185 29.736,24.185 	"/>
	<path d="M73.891,23.96c0.462-0.244,0.893-0.537,1.293-0.881c0.401-0.34,0.754-0.736,1.057-1.189
		c0.304-0.453,0.547-0.959,0.729-1.52c0.182-0.563,0.271-1.211,0.271-1.943v-0.074c0-1.732-0.585-3.188-1.754-4.359
		c-1.512-1.516-3.743-2.271-6.695-2.271H56.9h-0.002v25.652h12.185c1.439,0,2.75-0.148,3.932-0.441
		c1.185-0.293,2.196-0.73,3.039-1.316c0.842-0.586,1.488-1.32,1.938-2.199c0.452-0.881,0.679-1.906,0.679-3.08v-0.072
		c0-1.711-0.425-3.049-1.276-4.014S75.374,24.523,73.891,23.96z M62.398,16.669h5.571c1.196,0,2.113,0.227,2.748,0.68
		c0.635,0.451,0.953,1.105,0.953,1.959v0.074c0,0.951-0.368,1.643-1.1,2.07c-0.733,0.428-1.723,0.641-2.97,0.641h-5.203V16.669z
		 M73.101,29.642c0,0.953-0.355,1.656-1.063,2.107c-0.711,0.453-1.688,0.68-2.933,0.68h-6.707v-5.645h6.523
		c1.466,0,2.528,0.252,3.188,0.752c0.66,0.5,0.991,1.18,0.991,2.033V29.642z"/>
	<rect x="85.751" y="11.722" width="5.646" height="25.654"/>
	<polygon points="117.169,27.517 105.147,11.722 99.943,11.722 99.943,37.376 105.515,37.376 105.515,21.068 117.939,37.376 
		122.74,37.376 122.74,11.722 117.169,11.722 	"/>
	<path d="M139.827,11.539l-10.995,25.838h5.754l2.344-5.752h10.85l2.347,5.752h5.898l-10.995-25.838H139.827z M138.947,26.636
		l3.407-8.316l3.409,8.316H138.947z"/>
	<polygon points="179.344,27.517 167.322,11.722 162.12,11.722 162.12,37.376 167.689,37.376 167.689,21.068 180.112,37.376 
		184.914,37.376 184.914,11.722 179.344,11.722 	"/>
	<path d="M209.128,31.806c-1.016,0.537-2.254,0.807-3.721,0.807c-1.099,0-2.106-0.215-3.022-0.643
		c-0.916-0.426-1.699-1.008-2.345-1.74c-0.648-0.732-1.155-1.588-1.523-2.564c-0.364-0.977-0.547-2.016-0.547-3.115v-0.072
		c0-1.1,0.183-2.131,0.547-3.098c0.368-0.967,0.882-1.814,1.541-2.547c0.66-0.734,1.449-1.307,2.364-1.723s1.911-0.623,2.985-0.623
		c1.294,0,2.46,0.256,3.5,0.77c1.039,0.514,2.059,1.223,3.061,2.127l3.593-4.141c-0.586-0.588-1.223-1.125-1.906-1.615
		c-0.684-0.488-1.428-0.902-2.234-1.244c-0.807-0.344-1.705-0.611-2.695-0.807c-0.988-0.195-2.082-0.293-3.279-0.293
		c-1.979,0-3.786,0.348-5.424,1.043c-1.637,0.695-3.041,1.648-4.214,2.857s-2.089,2.615-2.749,4.215s-0.989,3.316-0.989,5.15v0.072
		c0,1.832,0.329,3.555,0.989,5.168c0.66,1.611,1.576,3.012,2.749,4.195c1.173,1.186,2.565,2.121,4.178,2.805
		c1.611,0.682,3.36,1.025,5.241,1.025c1.246,0,2.37-0.104,3.369-0.311c1.002-0.207,1.924-0.514,2.767-0.916
		c0.844-0.404,1.619-0.887,2.328-1.449c0.707-0.561,1.393-1.195,2.053-1.904l-3.593-3.629
		C211.15,30.537,210.142,31.269,209.128,31.806z"/>
	<polygon points="227.957,32.357 227.957,26.968 240.052,26.968 240.052,21.947 227.957,21.947 227.957,16.744 241.7,16.744 
		241.7,11.722 222.387,11.722 222.387,37.376 241.885,37.376 241.885,32.357 	"/>
</g>
</svg>
