<?xml version="1.0" encoding="utf-8"?>
<!-- Generator: Adobe Illustrator 16.0.0, SVG Export Plug-In . SVG Version: 6.00 Build 0)  -->
<!DOCTYPE svg PUBLIC "-//W3C//DTD SVG 1.1//EN" "http://www.w3.org/Graphics/SVG/1.1/DTD/svg11.dtd">
<svg version="1.1" id="Layer_1" xmlns="http://www.w3.org/2000/svg" xmlns:xlink="http://www.w3.org/1999/xlink" x="0px" y="0px"
	 width="188.051px" height="47.508px" viewBox="0 0 188.051 47.508" enable-background="new 0 0 188.051 47.508"
	 xml:space="preserve">
<rect x="291.365" y="-400.117" display="none" fill="#FFFFFF" width="1570.537" height="729.947"/>
<g>
	<path d="M76.087,4.985c-1.844,0-3.676,0-5.52,0c-0.851,0.011-1.234,0.332-1.314,1.193c-0.152,1.578-0.283,3.157-0.426,4.737
		c-0.303,3.422-0.596,6.854-0.9,10.275c-0.061,0.637-0.162,0.729-0.778,0.729c-5.438,0-10.861,0-16.3,0
		c-0.618,0-0.698-0.071-0.646-0.668c0.158-1.993,0.352-3.998,0.525-5.993c0.26-3.035,0.526-6.084,0.778-9.121
		c0.06-0.759-0.303-1.144-1.063-1.144c-1.924-0.01-3.847-0.01-5.771,0c-0.729,0-1.125,0.334-1.215,1.07
		c-0.102,0.893-0.162,1.783-0.244,2.674c-0.283,3.313-0.565,6.621-0.85,9.932c-0.324,3.716-0.648,7.423-0.974,11.138
		c-0.231,2.603-0.465,5.203-0.688,7.805c-0.213,2.572-0.437,5.146-0.641,7.716c-0.068,0.84,0.274,1.174,1.114,1.174
		c1.894,0,3.775,0,5.67,0c0.81,0,1.214-0.354,1.275-1.174c0.252-2.888,0.496-5.779,0.738-8.668c0.211-2.486,0.414-4.97,0.639-7.459
		c0.059-0.668,0.191-0.771,0.869-0.771c2.684,0,5.365,0,8.049,0c2.732,0,5.467,0,8.213,0c0.605,0.01,0.699,0.123,0.637,0.729
		c-0.092,0.963-0.184,1.911-0.264,2.875c-0.19,2.237-0.385,4.467-0.578,6.7c-0.19,2.199-0.383,4.396-0.555,6.604
		c-0.074,0.818,0.271,1.164,1.072,1.164c1.893,0,3.774,0,5.668,0c0.76,0,1.164-0.355,1.233-1.105
		c0.113-1.254,0.213-2.518,0.326-3.775c0.281-3.291,0.545-6.59,0.84-9.881c0.386-4.401,0.789-8.797,1.174-13.201
		c0.355-4.078,0.699-8.17,1.054-12.25C77.31,5.369,76.986,4.985,76.087,4.985z"/>
	<path d="M106.759,16.932c-1.621,0-3.239,0-4.858,0c-1.185,0-1.488,0.283-1.578,1.467c-0.113,1.459-0.234,2.926-0.354,4.385
		c-0.266,3.025-0.539,6.043-0.791,9.068c-0.133,1.621-0.305,3.229-0.801,4.781c-0.787,2.449-2.236,4.199-4.979,4.434
		c-2.5,0.209-4.384-0.742-5.134-3.311c-0.323-1.123-0.403-2.289-0.354-3.453c0.133-2.865,0.465-5.709,0.709-8.564
		c0.211-2.541,0.443-5.072,0.646-7.613c0.063-0.819-0.313-1.192-1.125-1.192c-0.879,0-1.75,0-2.631,0c-0.91,0-1.821,0-2.723,0.01
		c-0.627,0-1.053,0.388-1.113,1.002c-0.231,2.523-0.455,5.033-0.678,7.556c-0.231,2.606-0.456,5.229-0.687,7.852
		c-0.172,1.902-0.264,3.807,0.07,5.699c0.699,4.02,2.937,6.682,6.924,7.773c3.15,0.86,6.326,0.842,9.506,0.153
		c2.703-0.588,5.021-1.854,6.765-4.049c1.608-2.037,2.449-4.406,2.805-6.947c0.435-3.16,0.617-6.348,0.902-9.514
		c0.237-2.736,0.481-5.48,0.705-8.211C108.075,17.256,107.751,16.932,106.759,16.932z"/>
	<path d="M19.413,21.85c1.377-1.791,2.359-3.725,2.338-6.164c-0.01-0.213,0-0.537-0.029-0.85c-0.403-3.291-1.348-6.39-3.098-9.224
		c-1.236-2.006-2.693-3.838-4.465-5.396c-0.123-0.102-0.244-0.285-0.437-0.191c-0.202,0.09-0.123,0.293-0.102,0.453
		c0.182,1.996,0.049,3.971-0.273,5.943c-0.801,4.799-3.026,8.859-6.418,12.301c-0.799,0.82-1.721,1.508-2.521,2.34
		c-6.226,6.457-5.812,16.531,0.934,22.441c0.396,0.354,0.484,0.326,0.597-0.191c0.231-1.094,0.547-2.156,0.911-3.209
		c1.812-5.314,4.556-10.053,8.574-14.02C16.813,24.725,18.229,23.399,19.413,21.85z"/>
	<path d="M27.673,20.229c-0.082-0.149-0.131-0.385-0.365-0.362c-0.211,0.02-0.211,0.241-0.262,0.395
		c-1.377,3.938-3.654,7.311-6.459,10.357c-1.692,1.832-3.563,3.502-5.104,5.477c-1.56,2.014-2.795,4.17-2.986,6.793
		c-0.031,0.383-0.121,0.77-0.223,1.143c-0.224,0.853-0.789,1.357-1.67,1.449c-0.375,0.039-0.354,0.283-0.404,0.525
		c-0.07,0.303,0.121,0.365,0.354,0.424c1.642,0.426,3.291,0.73,4.972,0.76c3.342-0.029,6.299-1.133,8.93-3.119
		c3.686-2.762,5.607-6.508,6.002-11.064c0.184-2.043-0.039-4.067-0.414-6.084C29.607,24.563,28.837,22.326,27.673,20.229z"/>
	<path d="M186.009,16.94c-1.742,0-3.474,0-5.215,0c-0.799,0-1.227,0.363-1.295,1.164c-0.283,3.168-0.561,6.336-0.83,9.517
		c-0.326,3.766-0.649,7.521-0.975,11.287c-0.183,2.116-0.386,4.231-0.558,6.348c-0.069,0.871,0.283,1.246,1.113,1.246
		c0.861,0,1.723,0,2.582,0c0.912,0,1.822,0,2.734,0c0.74,0,1.113-0.334,1.187-1.084c0.2-2.045,0.385-4.101,0.565-6.146
		c0.365-4.18,0.72-8.36,1.084-12.543c0.242-2.854,0.506-5.709,0.738-8.563C187.213,17.305,186.859,16.94,186.009,16.94z"/>
	<path d="M187.063,6.826c-1.854-0.021-3.707-0.021-5.56,0c-0.619,0.012-1.053,0.405-1.104,0.983
		c-0.152,1.688-0.304,3.381-0.425,5.08c-0.051,0.76,0.313,1.114,1.082,1.114c0.882,0,1.75,0,2.632,0
		c0.911,0,1.823,0.011,2.727,0.003c0.719-0.013,1.092-0.357,1.164-1.064c0.162-1.661,0.313-3.321,0.467-4.979
		C188.105,7.295,187.74,6.84,187.063,6.826z"/>
	<path d="M163.645,16.131c-3.554-0.394-6.927,0.143-9.9,2.299c-0.185,0.131-0.385,0.232-0.609,0.111
		c-0.201-0.111-0.19-0.306-0.17-0.496c0.211-2.392,0.424-4.769,0.627-7.158c0.16-1.852,0.322-3.693,0.465-5.547
		c0.052-0.699-0.264-1.072-0.897-1.084c-1.896-0.021-3.777-0.01-5.67,0c-0.601,0-0.963,0.375-1.033,0.973
		c-0.049,0.445-0.08,0.9-0.121,1.355c-0.324,3.686-0.647,7.36-0.971,11.035c-0.256,2.926-0.486,5.842-0.74,8.768
		c-0.293,3.32-0.588,6.65-0.881,9.971c-0.252,2.986-0.506,5.984-0.771,8.971c-0.059,0.73,0.306,1.174,1.033,1.174
		c1.822,0.013,3.646,0.013,5.467,0c0.679,0,1.054-0.354,1.154-1.02c0.051-0.365,0.111-0.73,0.182-1.188
		c0.457,0.567,0.91,1.021,1.439,1.416c0.525,0.354,1.072,0.688,1.682,0.912c2.511,0.936,5.103,1.094,7.715,0.641
		c3.634-0.641,6.438-2.633,8.664-5.51c2.238-2.896,3.392-6.217,3.757-9.83c0.414-4.068-0.367-7.855-2.816-11.207
		C169.354,18.137,166.854,16.483,163.645,16.131z M162.55,39.162c-2.299,1.885-6.186,2.104-8.373,0.444
		c-1.821-1.396-2.854-3.26-3.137-5.519c-0.365-2.913,0.242-5.629,2.045-7.977c1.963-2.563,4.555-3.807,7.834-3.221
		c1.945,0.346,3.271,1.6,4.232,3.252c0.83,1.416,1.225,2.955,1.184,4.596C166.255,34.08,165.202,36.985,162.55,39.162z"/>
	<path d="M133.384,17.315c-2.188-1.032-4.524-1.377-6.936-1.325c-6.104,0.131-10.853,2.711-14,7.956
		c-2.34,3.896-2.967,8.189-2.188,12.636c0.627,3.604,2.48,6.487,5.527,8.555c2.529,1.721,5.385,2.299,8.395,2.316
		c0.232,0,0.466,0.021,0.697,0c0.588-0.041,1.174-0.068,1.762-0.15c4.949-0.666,8.798-3.107,11.48-7.289
		c2.58-4.02,3.301-8.494,2.51-13.15C139.882,22.478,137.454,19.228,133.384,17.315z M131.359,36.916
		c-1.054,1.68-2.488,2.996-4.465,3.502c-2.562,0.647-4.979,0.385-6.976-1.549c-1.447-1.408-2.084-3.189-2.207-5.183
		c-0.01-0.265,0-0.539,0-0.801c0.021-2.89,0.791-5.498,2.824-7.638c2.104-2.217,4.697-2.977,7.654-2.285
		c2.096,0.476,3.412,1.953,4.2,3.855C133.839,30.344,133.343,33.727,131.359,36.916z"/>
</g>
</svg>
