<?xml version="1.0" encoding="utf-8"?>
<!-- Generator: Adobe Illustrator 16.0.0, SVG Export Plug-In . SVG Version: 6.00 Build 0)  -->
<!DOCTYPE svg PUBLIC "-//W3C//DTD SVG 1.1//EN" "http://www.w3.org/Graphics/SVG/1.1/DTD/svg11.dtd">
<svg version="1.1" id="Layer_1" xmlns="http://www.w3.org/2000/svg" xmlns:xlink="http://www.w3.org/1999/xlink" x="0px" y="0px"
	 width="167.053px" height="26.078px" viewBox="0 0 167.053 26.078" enable-background="new 0 0 167.053 26.078"
	 xml:space="preserve">
<g>
	<polygon points="166.668,0.417 159.209,0.417 155.999,5.089 159.836,10.675 	"/>
	<polygon points="159.82,15.207 155.999,20.46 159.613,25.417 167.053,25.417 	"/>
	<path d="M13.342,0.291H0v25.496h5.725v-8.615h7.617c2.383,0,4.179-0.619,5.387-1.861c1.207-1.238,1.813-4.252,1.813-6.764
		c0-2.48-0.579-5.143-1.739-6.387C17.642,0.914,15.822,0.291,13.342,0.291z M14.62,11.169c-0.098,0.4-0.271,0.723-0.52,0.971
		c-0.248,0.248-0.581,0.432-1.002,0.551s-0.955,0.178-1.601,0.178H5.724v-8.24h5.66c0.713,0,1.285,0.061,1.723,0.184
		c0.438,0.125,0.779,0.316,1.027,0.574c0.248,0.26,0.415,0.59,0.502,0.996c0.086,0.404,0.129,0.881,0.129,1.432
		C14.766,8.361,14.717,10.771,14.62,11.169z"/>
	<path d="M42.165,1.998c-0.776-0.695-1.771-1.203-2.983-1.521C37.968,0.16,36.509,0,34.806,0H32.09
		c-1.693,0-3.146,0.162-4.358,0.486c-1.214,0.322-2.213,0.834-2.993,1.533c-0.78,0.703-1.357,1.604-1.729,2.703
		c-0.372,1.102-0.56,2.426-0.56,3.979v7.971c0,1.551,0.188,3.582,0.56,4.684c0.372,1.1,0.949,1.998,1.729,2.701
		c0.78,0.701,1.779,1.213,2.993,1.535c1.212,0.324,2.665,0.486,4.358,0.486h2.716c1.693,0,3.147-0.162,4.359-0.486
		c1.214-0.322,2.208-0.834,2.982-1.535c0.777-0.703,1.349-1.602,1.716-2.701c0.365-1.102,0.549-3.133,0.549-4.684V8.701
		c0-1.563-0.181-2.898-0.539-4.002C43.509,3.593,42.942,2.693,42.165,1.998z M38.575,15.634c0,1.023-0.091,2.563-0.269,3.197
		c-0.177,0.637-0.465,1.129-0.864,1.479c-0.398,0.352-0.908,0.588-1.533,0.709c-0.625,0.125-1.389,0.189-2.294,0.189h-0.368
		c-0.906,0-1.669-0.064-2.293-0.189c-0.625-0.121-1.137-0.361-1.534-0.719c-0.399-0.354-0.688-0.85-0.865-1.479
		c-0.178-0.629-0.266-2.164-0.266-3.188v-5.16c0-1.023,0.088-2.561,0.266-3.195c0.177-0.639,0.466-1.129,0.865-1.48
		c0.397-0.35,0.909-0.588,1.534-0.713C31.578,4.962,32.341,4.9,33.247,4.9h0.368c0.905,0,1.672,0.061,2.302,0.18
		c0.63,0.117,1.142,0.352,1.534,0.703c0.394,0.35,0.68,0.84,0.855,1.471c0.178,0.631,0.268,2.164,0.268,3.189L38.575,15.634
		L38.575,15.634z"/>
	<polygon points="52.533,0.291 46.807,0.291 46.807,25.787 62.324,25.787 62.324,20.886 52.533,20.886 	"/>
	<path d="M83.271,1.998c-0.776-0.695-1.771-1.203-2.983-1.521C79.074,0.16,77.615,0,75.912,0h-2.715
		c-1.693,0-3.146,0.162-4.36,0.486c-1.211,0.322-2.21,0.834-2.992,1.533c-0.78,0.703-1.358,1.604-1.731,2.703
		c-0.37,1.102-0.557,2.426-0.557,3.979v7.971c0,1.551,0.187,3.582,0.557,4.684c0.373,1.1,0.951,1.998,1.731,2.701
		c0.782,0.701,1.781,1.213,2.992,1.535c1.215,0.324,2.667,0.486,4.36,0.486h2.715c1.692,0,3.146-0.162,4.359-0.486
		c1.212-0.322,2.207-0.834,2.983-1.535c0.776-0.703,1.348-1.602,1.714-2.701c0.367-1.102,0.551-3.133,0.551-4.684V8.701
		c0-1.563-0.18-2.898-0.542-4.002C84.617,3.593,84.048,2.693,83.271,1.998z M79.681,15.634c0,1.023-0.09,2.563-0.267,3.197
		c-0.179,0.637-0.467,1.129-0.865,1.479c-0.397,0.352-0.909,0.588-1.534,0.709c-0.624,0.125-1.389,0.189-2.292,0.189h-0.369
		c-0.903,0-1.671-0.064-2.294-0.189c-0.624-0.121-1.138-0.361-1.534-0.719c-0.397-0.354-0.688-0.85-0.864-1.479
		c-0.178-0.629-0.268-2.164-0.268-3.188v-5.16c0-1.023,0.09-2.561,0.268-3.195c0.178-0.639,0.467-1.129,0.864-1.48
		c0.396-0.35,0.91-0.588,1.534-0.713C72.683,4.962,73.45,4.9,74.354,4.9h0.369c0.903,0,1.67,0.061,2.3,0.18
		c0.63,0.117,1.144,0.352,1.535,0.703c0.393,0.35,0.679,0.84,0.856,1.471c0.177,0.631,0.267,2.164,0.267,3.189V15.634z"/>
	<polygon points="104.361,17.697 94.822,0.291 88.238,0.291 88.238,25.787 93.608,25.787 93.608,8.185 103.146,25.787 
		109.73,25.787 109.73,0.291 104.361,0.291 	"/>
	<rect x="113.209" y="0.291" width="5.727" height="25.496"/>
	<polygon points="122.384,25.787 139.995,25.787 139.995,20.886 128.109,20.886 128.109,15.277 139.607,15.277 139.607,10.41 
		128.109,10.41 128.109,5.191 139.995,5.191 139.995,0.291 122.384,0.291 	"/>
	<polygon points="149.413,0.291 141.954,0.291 150.43,13.062 141.55,25.787 148.976,25.787 158.14,13.039 	"/>
</g>
</svg>
