<?xml version="1.0" encoding="utf-8"?>
<!-- Generator: Adobe Illustrator 16.0.0, SVG Export Plug-In . SVG Version: 6.00 Build 0)  -->
<!DOCTYPE svg PUBLIC "-//W3C//DTD SVG 1.1//EN" "http://www.w3.org/Graphics/SVG/1.1/DTD/svg11.dtd">
<svg version="1.1" id="Layer_1" xmlns="http://www.w3.org/2000/svg" xmlns:xlink="http://www.w3.org/1999/xlink" x="0px" y="0px"
	 width="128px" height="128px" viewBox="0 0 128 128" enable-background="new 0 0 128 128" xml:space="preserve">
<rect x="-31.896" y="-22" display="none" fill="#231F20" width="215.833" height="195.044"/>
<g opacity="0.96">
	<path fill="#FFFFFF" d="M59.41,13.979c0-4.335,3.52-8.006,8.003-8.006c4.479,0,8.003,3.533,8.01,8.006v37.724
		c0,4.344-3.52,8.007-8.01,8.007c-4.34,0-8.003-3.528-8.003-8.007V13.979z"/>
	<path fill="#FFFFFF" d="M67.538,125.799c-30.528,0-55.226-24.837-55.226-55.223c0-16.011,6.917-31.211,19.272-41.661
		c0.817-0.821,1.76-1.627,2.577-2.311c1.358-1.087,3.261-1.76,5.024-1.76c4.338,0,8.004,3.518,8.131,7.872
		c0,2.311-1.077,4.605-2.985,5.966l-0.135,0.13c-0.132,0.148-0.268,0.278-0.403,0.416c-0.134,0.137-0.402,0.404-0.671,0.672
		c-9.365,7.456-14.788,18.589-14.656,30.528c0,21.577,17.502,39.088,39.075,39.088c21.576,0,39.087-17.511,39.087-39.088
		c0.122-11.939-5.166-23.073-14.524-30.391c-0.26-0.27-0.547-0.548-0.673-0.683c-0.138-0.126-0.27-0.268-0.551-0.542
		c-1.9-1.49-2.98-3.655-2.98-5.963c0-1.76,0.678-3.52,1.768-5.021c2.701-3.389,7.862-3.939,11.254-1.224
		c0.821,0.684,1.765,1.49,2.579,2.311c12.218,10.45,19.27,25.65,19.27,41.661C122.77,101.109,97.932,125.799,67.538,125.799z"/>
</g>
<path fill="#FFFFFF" d="M-0.957-1.292V129.36H129V-1.292H-0.957z M59.41,12.624c0-4.335,3.52-8.007,8.003-8.007
	c4.479,0,8.003,3.534,8.01,8.007v37.724c0,4.344-3.52,8.007-8.01,8.007c-4.34,0-8.003-3.528-8.003-8.007V12.624z M67.538,124.443
	c-30.528,0-55.226-24.838-55.226-55.223c0-16.011,6.917-31.211,19.272-41.661c0.817-0.82,1.76-1.627,2.577-2.31
	c1.358-1.087,3.261-1.76,5.024-1.76c4.338,0,8.004,3.517,8.131,7.872c0,2.31-1.077,4.605-2.985,5.966l-0.135,0.129
	c-0.132,0.148-0.268,0.278-0.403,0.416c-0.134,0.137-0.402,0.405-0.671,0.672C33.757,46,28.334,57.133,28.466,69.072
	c0,21.577,17.502,39.088,39.075,39.088c21.576,0,39.087-17.511,39.087-39.088C106.75,57.133,101.462,46,92.104,38.682
	c-0.26-0.27-0.547-0.547-0.673-0.682c-0.138-0.127-0.27-0.268-0.551-0.543c-1.9-1.49-2.98-3.655-2.98-5.963
	c0-1.76,0.678-3.52,1.768-5.021c2.701-3.388,7.862-3.938,11.254-1.222c0.821,0.683,1.765,1.49,2.579,2.31
	c12.218,10.45,19.27,25.65,19.27,41.661C122.77,99.754,97.932,124.443,67.538,124.443z"/>
</svg>
