<?xml version="1.0" encoding="utf-8"?>
<!-- Generator: Adobe Illustrator 16.0.0, SVG Export Plug-In . SVG Version: 6.00 Build 0)  -->
<!DOCTYPE svg PUBLIC "-//W3C//DTD SVG 1.1//EN" "http://www.w3.org/Graphics/SVG/1.1/DTD/svg11.dtd">
<svg version="1.1" id="Layer_1" xmlns="http://www.w3.org/2000/svg" xmlns:xlink="http://www.w3.org/1999/xlink" x="0px" y="0px"
	 width="500px" height="500px" viewBox="0 0 500 500" enable-background="new 0 0 500 500" xml:space="preserve">
<g>
	<path d="M250,0C111.929,0,0,111.929,0,250c0,138.07,111.929,250,250,250s250-111.93,250-250C500,111.929,388.071,0,250,0z
		 M222.938,66.948c0-14.033,11.416-25.893,25.909-25.893c14.469,0,25.924,11.4,25.924,25.893v122.086
		c0,14.048-11.455,25.908-25.924,25.908c-14.049,0-25.909-11.439-25.909-25.908V66.948z M249.283,428.779
		c-98.811,0-178.717-80.343-178.717-178.711c0-51.824,22.378-101,62.36-134.809c2.649-2.634,5.695-5.267,8.321-7.465
		c4.411-3.522,10.551-5.711,16.262-5.711c14.049,0,25.924,11.415,26.336,25.479c0,7.457-3.498,14.922-9.646,19.309l-0.453,0.437
		c-0.429,0.444-0.849,0.88-1.309,1.333c-0.428,0.428-1.309,1.309-2.189,2.189c-30.303,24.14-47.882,60.163-47.43,98.795
		c0,69.84,56.664,126.464,126.464,126.464c69.832,0,126.457-56.624,126.457-126.464c0.443-38.633-16.674-74.656-46.979-98.359
		c-0.889-0.881-1.793-1.761-2.205-2.198c-0.443-0.428-0.873-0.88-1.76-1.761c-6.156-4.823-9.648-11.852-9.648-19.3
		c0-5.728,2.207-11.432,5.729-16.27c0.305-0.381,0.62-0.748,0.943-1.106c0.049-0.054,0.1-0.105,0.149-0.159
		c0.274-0.3,0.555-0.592,0.842-0.875c0.07-0.07,0.143-0.137,0.214-0.205c0.269-0.26,0.542-0.513,0.821-0.759
		c0.086-0.076,0.174-0.151,0.261-0.226c0.268-0.229,0.539-0.452,0.814-0.668c0.101-0.079,0.2-0.158,0.302-0.235
		c0.266-0.202,0.534-0.396,0.807-0.587c0.115-0.08,0.229-0.162,0.345-0.241c0.264-0.178,0.531-0.348,0.801-0.516
		c0.126-0.079,0.251-0.161,0.378-0.237c0.267-0.159,0.538-0.309,0.81-0.458c0.373-0.205,0.75-0.399,1.132-0.585
		c0.124-0.061,0.247-0.126,0.373-0.185c0.287-0.134,0.579-0.258,0.871-0.382c0.107-0.045,0.215-0.094,0.323-0.138
		c0.305-0.125,0.612-0.24,0.921-0.353c0.095-0.034,0.188-0.07,0.283-0.103c0.325-0.114,0.651-0.221,0.98-0.322
		c0.073-0.023,0.146-0.045,0.22-0.067c0.351-0.104,0.702-0.203,1.057-0.293c0.038-0.01,0.076-0.019,0.113-0.028
		c0.567-0.142,1.14-0.262,1.716-0.367c0.006-0.001,0.012-0.001,0.018-0.003c1.57-0.286,3.165-0.437,4.767-0.437
		c0.155,0,0.311,0.016,0.466,0.019c0.405,0.007,0.811,0.024,1.216,0.049c0.304,0.019,0.606,0.043,0.91,0.073
		c0.425,0.042,0.849,0.093,1.271,0.155c0.216,0.032,0.432,0.061,0.646,0.098c0.54,0.093,1.076,0.205,1.61,0.331
		c0.188,0.045,0.377,0.092,0.565,0.142c0.563,0.146,1.121,0.307,1.675,0.491c0.116,0.039,0.23,0.083,0.347,0.124
		c0.542,0.189,1.079,0.396,1.609,0.623c0.082,0.035,0.166,0.066,0.248,0.103c0.583,0.256,1.156,0.541,1.723,0.843
		c0.105,0.056,0.21,0.111,0.314,0.169c0.563,0.31,1.115,0.642,1.657,0.997c0.085,0.056,0.169,0.115,0.253,0.171
		c0.563,0.379,1.117,0.776,1.654,1.206c2.666,2.198,5.713,4.831,8.363,7.465c39.504,33.809,62.318,82.985,62.318,134.809
		C427.984,348.879,347.643,428.779,249.283,428.779z"/>
	<path fill="#FFFFFF" d="M248.847,201.98c7.164,0,12.961-5.815,12.961-12.946V66.948c0-7.37-5.576-12.922-12.961-12.922
		c-7.14,0-12.954,5.792-12.954,12.922v122.086C235.893,196.166,241.708,201.98,248.847,201.98z"/>
	<path fill="#FFFFFF" d="M357.24,125.111l-0.381-0.325l-0.381-0.357c-2.363-2.363-5.314-4.871-7.344-6.568
		c-2.207-1.737-5.031-2.689-7.998-2.689c-3.918,0-7.6,1.658-9.963,4.442c-1.936,2.776-3.078,5.838-3.078,8.393
		c0,3.498,1.666,6.719,4.713,9.099l0.506,0.413l0.477,0.445c0.588,0.594,1.031,1.022,1.381,1.364
		c0.127,0.143,0.254,0.246,0.35,0.373l0.316,0.277l0.238,0.294c0.158,0.158,0.477,0.436,0.793,0.761
		c0.16,0.174,0.35,0.357,0.541,0.531c33.094,26.218,51.752,65.588,51.291,108.124c-0.031,76.853-62.588,139.364-139.418,139.364
		c-76.845,0-139.378-62.511-139.418-139.364c-0.483-42.163,18.381-81.676,51.714-108.536l1.222-1.214l0.476-0.468l0.15-0.167
		c0.35-0.34,0.667-0.666,1-1.007l0.143-0.151l0.143-0.134l0.452-0.437l0.707-0.682l0.801-0.579c2.515-1.785,4.157-5.125,4.212-8.544
		c-0.325-6.925-6.41-12.716-13.375-12.716c-2.706,0-5.918,1.119-8.068,2.784c-2.229,1.873-5.045,4.3-7.354,6.592l-0.372,0.373
		l-0.413,0.357c-36.713,31.049-57.767,76.56-57.767,124.909c0,91.387,74.346,165.747,165.748,165.747
		c91.395,0,165.756-74.36,165.756-165.747C415.039,202.067,393.938,156.525,357.24,125.111z"/>
	<path d="M334.637,103.008c0.567-0.142,1.14-0.264,1.716-0.367C335.776,102.746,335.204,102.867,334.637,103.008z"/>
	<linearGradient id="SVGID_1_" gradientUnits="userSpaceOnUse" x1="70.5659" y1="102.8247" x2="427.9844" y2="102.8247">
		<stop  offset="0.2" style="stop-color:#33DAFF"/>
		<stop  offset="0.2005" style="stop-color:#33DAFE"/>
		<stop  offset="0.232" style="stop-color:#23DED5"/>
		<stop  offset="0.264" style="stop-color:#17E1B3"/>
		<stop  offset="0.2966" style="stop-color:#0DE398"/>
		<stop  offset="0.3297" style="stop-color:#06E585"/>
		<stop  offset="0.3638" style="stop-color:#01E67A"/>
		<stop  offset="0.4" style="stop-color:#00E676"/>
		<stop  offset="0.6" style="stop-color:#EFFF48"/>
		<stop  offset="0.8" style="stop-color:#FF23C0"/>
	</linearGradient>
	<path fill="url(#SVGID_1_)" d="M334.637,103.008c0.567-0.142,1.14-0.264,1.716-0.367
		C335.776,102.746,335.204,102.867,334.637,103.008z"/>
	<path d="M341.137,102.202c-1.602,0-3.196,0.151-4.767,0.437c1.725-0.309,3.479-0.448,5.232-0.418
		C341.447,102.218,341.292,102.202,341.137,102.202z"/>
	<linearGradient id="SVGID_2_" gradientUnits="userSpaceOnUse" x1="70.5659" y1="102.4199" x2="427.9844" y2="102.4199">
		<stop  offset="0.2" style="stop-color:#33DAFF"/>
		<stop  offset="0.2005" style="stop-color:#33DAFE"/>
		<stop  offset="0.232" style="stop-color:#23DED5"/>
		<stop  offset="0.264" style="stop-color:#17E1B3"/>
		<stop  offset="0.2966" style="stop-color:#0DE398"/>
		<stop  offset="0.3297" style="stop-color:#06E585"/>
		<stop  offset="0.3638" style="stop-color:#01E67A"/>
		<stop  offset="0.4" style="stop-color:#00E676"/>
		<stop  offset="0.6" style="stop-color:#EFFF48"/>
		<stop  offset="0.8" style="stop-color:#FF23C0"/>
	</linearGradient>
	<path fill="url(#SVGID_2_)" d="M341.137,102.202c-1.602,0-3.196,0.151-4.767,0.437c1.725-0.309,3.479-0.448,5.232-0.418
		C341.447,102.218,341.292,102.202,341.137,102.202z"/>
	<path fill="#FFFFFF" d="M248.847,214.942c14.469,0,25.924-11.86,25.924-25.908V66.948c0-14.493-11.455-25.893-25.924-25.893
		c-14.493,0-25.909,11.86-25.909,25.893v122.086C222.938,203.503,234.798,214.942,248.847,214.942z M235.893,66.948
		c0-7.131,5.814-12.922,12.954-12.922c7.385,0,12.961,5.553,12.961,12.922v122.086c0,7.131-5.798,12.946-12.961,12.946
		c-7.14,0-12.954-5.815-12.954-12.946V66.948z"/>
	<linearGradient id="SVGID_3_" gradientUnits="userSpaceOnUse" x1="70.5659" y1="127.999" x2="427.9844" y2="127.999">
		<stop  offset="0.2" style="stop-color:#33DAFF"/>
		<stop  offset="0.2005" style="stop-color:#33DAFE"/>
		<stop  offset="0.232" style="stop-color:#23DED5"/>
		<stop  offset="0.264" style="stop-color:#17E1B3"/>
		<stop  offset="0.2966" style="stop-color:#0DE398"/>
		<stop  offset="0.3297" style="stop-color:#06E585"/>
		<stop  offset="0.3638" style="stop-color:#01E67A"/>
		<stop  offset="0.4" style="stop-color:#00E676"/>
		<stop  offset="0.6" style="stop-color:#EFFF48"/>
		<stop  offset="0.8" style="stop-color:#FF23C0"/>
	</linearGradient>
	<path fill="url(#SVGID_3_)" d="M248.847,214.942c14.469,0,25.924-11.86,25.924-25.908V66.948c0-14.493-11.455-25.893-25.924-25.893
		c-14.493,0-25.909,11.86-25.909,25.893v122.086C222.938,203.503,234.798,214.942,248.847,214.942z M235.893,66.948
		c0-7.131,5.814-12.922,12.954-12.922c7.385,0,12.961,5.553,12.961,12.922v122.086c0,7.131-5.798,12.946-12.961,12.946
		c-7.14,0-12.954-5.815-12.954-12.946V66.948z"/>
	<path fill="#FFFFFF" d="M365.666,115.259c-2.65-2.634-5.697-5.267-8.363-7.465c-0.537-0.43-1.092-0.827-1.654-1.206
		c-0.084-0.057-0.168-0.116-0.253-0.171c-0.542-0.355-1.095-0.687-1.657-0.997c-0.104-0.058-0.209-0.113-0.314-0.169
		c-0.566-0.302-1.14-0.586-1.723-0.843c-0.082-0.036-0.166-0.067-0.248-0.103c-0.53-0.227-1.067-0.434-1.609-0.623
		c-0.116-0.041-0.23-0.085-0.347-0.124c-0.554-0.185-1.112-0.345-1.675-0.491c-0.188-0.049-0.377-0.097-0.565-0.142
		c-0.534-0.126-1.07-0.238-1.61-0.331c-0.215-0.037-0.431-0.066-0.646-0.098c-0.423-0.062-0.847-0.113-1.271-0.155
		c-0.304-0.03-0.606-0.054-0.91-0.073c-0.405-0.025-0.811-0.042-1.216-0.049c-1.754-0.03-3.508,0.109-5.232,0.418
		c-0.006,0.001-0.012,0.002-0.018,0.003c-0.576,0.104-1.148,0.226-1.716,0.367c-0.037,0.009-0.075,0.018-0.113,0.028
		c-0.354,0.09-0.706,0.188-1.057,0.293c-0.073,0.022-0.146,0.044-0.22,0.067c-0.329,0.101-0.655,0.208-0.98,0.322
		c-0.095,0.033-0.188,0.069-0.283,0.103c-0.309,0.113-0.616,0.228-0.921,0.353c-0.108,0.044-0.216,0.092-0.323,0.138
		c-0.292,0.124-0.584,0.248-0.871,0.382c-0.126,0.059-0.249,0.124-0.373,0.185c-0.382,0.186-0.759,0.38-1.132,0.585
		c-0.271,0.149-0.543,0.299-0.81,0.458c-0.127,0.077-0.252,0.159-0.378,0.237c-0.27,0.167-0.537,0.337-0.801,0.516
		c-0.116,0.079-0.229,0.161-0.345,0.241c-0.272,0.191-0.541,0.386-0.807,0.587c-0.102,0.078-0.201,0.156-0.302,0.235
		c-0.275,0.216-0.547,0.439-0.814,0.668c-0.087,0.075-0.175,0.15-0.261,0.226c-0.279,0.246-0.553,0.499-0.821,0.759
		c-0.071,0.068-0.144,0.135-0.214,0.205c-0.287,0.284-0.567,0.576-0.842,0.875c-0.05,0.053-0.101,0.105-0.149,0.159
		c-0.323,0.359-0.639,0.726-0.943,1.106c-3.521,4.838-5.729,10.542-5.729,16.27c0,7.449,3.492,14.477,9.648,19.3
		c0.887,0.88,1.316,1.333,1.76,1.761c0.412,0.437,1.316,1.317,2.205,2.198c30.305,23.703,47.422,59.726,46.979,98.359
		c0,69.84-56.625,126.464-126.457,126.464c-69.8,0-126.464-56.624-126.464-126.464c-0.452-38.633,17.127-74.656,47.43-98.795
		c0.881-0.88,1.761-1.761,2.189-2.189c0.46-0.453,0.88-0.889,1.309-1.333l0.453-0.437c6.147-4.387,9.646-11.852,9.646-19.309
		c-0.412-14.065-12.288-25.479-26.336-25.479c-5.711,0-11.852,2.189-16.262,5.711c-2.626,2.198-5.672,4.831-8.321,7.465
		c-39.981,33.809-62.36,82.985-62.36,134.809c0,98.368,79.907,178.711,178.717,178.711c98.359,0,178.701-79.9,178.701-178.711
		C427.984,198.244,405.17,149.068,365.666,115.259z M249.283,415.815c-91.401,0-165.748-74.36-165.748-165.747
		c0-48.35,21.054-93.86,57.767-124.909l0.413-0.357l0.372-0.373c2.309-2.292,5.125-4.72,7.354-6.592
		c2.15-1.666,5.362-2.784,8.068-2.784c6.964,0,13.049,5.792,13.375,12.716c-0.055,3.419-1.698,6.759-4.212,8.544l-0.801,0.579
		l-0.707,0.682l-0.452,0.437l-0.143,0.134l-0.143,0.151c-0.333,0.341-0.65,0.667-1,1.007l-0.15,0.167l-0.476,0.468l-1.222,1.214
		c-33.333,26.86-52.197,66.374-51.714,108.536c0.04,76.853,62.574,139.364,139.418,139.364c76.83,0,139.387-62.511,139.418-139.364
		c0.461-42.536-18.197-81.906-51.291-108.124c-0.191-0.174-0.381-0.357-0.541-0.531c-0.316-0.326-0.635-0.603-0.793-0.761
		l-0.238-0.294l-0.316-0.277c-0.096-0.127-0.223-0.23-0.35-0.373c-0.35-0.341-0.793-0.77-1.381-1.364l-0.477-0.445l-0.506-0.413
		c-3.047-2.379-4.713-5.601-4.713-9.099c0-2.555,1.143-5.617,3.078-8.393c2.363-2.785,6.045-4.442,9.963-4.442
		c2.967,0,5.791,0.952,7.998,2.689c2.029,1.697,4.98,4.205,7.344,6.568l0.381,0.357l0.381,0.325
		c36.697,31.414,57.799,76.956,57.799,124.957C415.039,341.455,340.678,415.815,249.283,415.815z"/>
	<linearGradient id="SVGID_4_" gradientUnits="userSpaceOnUse" x1="70.5659" y1="265.4316" x2="427.9844" y2="265.4316">
		<stop  offset="0.2" style="stop-color:#33DAFF"/>
		<stop  offset="0.2005" style="stop-color:#33DAFE"/>
		<stop  offset="0.232" style="stop-color:#23DED5"/>
		<stop  offset="0.264" style="stop-color:#17E1B3"/>
		<stop  offset="0.2966" style="stop-color:#0DE398"/>
		<stop  offset="0.3297" style="stop-color:#06E585"/>
		<stop  offset="0.3638" style="stop-color:#01E67A"/>
		<stop  offset="0.4" style="stop-color:#00E676"/>
		<stop  offset="0.6" style="stop-color:#EFFF48"/>
		<stop  offset="0.8" style="stop-color:#FF23C0"/>
	</linearGradient>
	<path fill="url(#SVGID_4_)" d="M365.666,115.259c-2.65-2.634-5.697-5.267-8.363-7.465c-0.537-0.43-1.092-0.827-1.654-1.206
		c-0.084-0.057-0.168-0.116-0.253-0.171c-0.542-0.355-1.095-0.687-1.657-0.997c-0.104-0.058-0.209-0.113-0.314-0.169
		c-0.566-0.302-1.14-0.586-1.723-0.843c-0.082-0.036-0.166-0.067-0.248-0.103c-0.53-0.227-1.067-0.434-1.609-0.623
		c-0.116-0.041-0.23-0.085-0.347-0.124c-0.554-0.185-1.112-0.345-1.675-0.491c-0.188-0.049-0.377-0.097-0.565-0.142
		c-0.534-0.126-1.07-0.238-1.61-0.331c-0.215-0.037-0.431-0.066-0.646-0.098c-0.423-0.062-0.847-0.113-1.271-0.155
		c-0.304-0.03-0.606-0.054-0.91-0.073c-0.405-0.025-0.811-0.042-1.216-0.049c-1.754-0.03-3.508,0.109-5.232,0.418
		c-0.006,0.001-0.012,0.002-0.018,0.003c-0.576,0.104-1.148,0.226-1.716,0.367c-0.037,0.009-0.075,0.018-0.113,0.028
		c-0.354,0.09-0.706,0.188-1.057,0.293c-0.073,0.022-0.146,0.044-0.22,0.067c-0.329,0.101-0.655,0.208-0.98,0.322
		c-0.095,0.033-0.188,0.069-0.283,0.103c-0.309,0.113-0.616,0.228-0.921,0.353c-0.108,0.044-0.216,0.092-0.323,0.138
		c-0.292,0.124-0.584,0.248-0.871,0.382c-0.126,0.059-0.249,0.124-0.373,0.185c-0.382,0.186-0.759,0.38-1.132,0.585
		c-0.271,0.149-0.543,0.299-0.81,0.458c-0.127,0.077-0.252,0.159-0.378,0.237c-0.27,0.167-0.537,0.337-0.801,0.516
		c-0.116,0.079-0.229,0.161-0.345,0.241c-0.272,0.191-0.541,0.386-0.807,0.587c-0.102,0.078-0.201,0.156-0.302,0.235
		c-0.275,0.216-0.547,0.439-0.814,0.668c-0.087,0.075-0.175,0.15-0.261,0.226c-0.279,0.246-0.553,0.499-0.821,0.759
		c-0.071,0.068-0.144,0.135-0.214,0.205c-0.287,0.284-0.567,0.576-0.842,0.875c-0.05,0.053-0.101,0.105-0.149,0.159
		c-0.323,0.359-0.639,0.726-0.943,1.106c-3.521,4.838-5.729,10.542-5.729,16.27c0,7.449,3.492,14.477,9.648,19.3
		c0.887,0.88,1.316,1.333,1.76,1.761c0.412,0.437,1.316,1.317,2.205,2.198c30.305,23.703,47.422,59.726,46.979,98.359
		c0,69.84-56.625,126.464-126.457,126.464c-69.8,0-126.464-56.624-126.464-126.464c-0.452-38.633,17.127-74.656,47.43-98.795
		c0.881-0.88,1.761-1.761,2.189-2.189c0.46-0.453,0.88-0.889,1.309-1.333l0.453-0.437c6.147-4.387,9.646-11.852,9.646-19.309
		c-0.412-14.065-12.288-25.479-26.336-25.479c-5.711,0-11.852,2.189-16.262,5.711c-2.626,2.198-5.672,4.831-8.321,7.465
		c-39.981,33.809-62.36,82.985-62.36,134.809c0,98.368,79.907,178.711,178.717,178.711c98.359,0,178.701-79.9,178.701-178.711
		C427.984,198.244,405.17,149.068,365.666,115.259z M249.283,415.815c-91.401,0-165.748-74.36-165.748-165.747
		c0-48.35,21.054-93.86,57.767-124.909l0.413-0.357l0.372-0.373c2.309-2.292,5.125-4.72,7.354-6.592
		c2.15-1.666,5.362-2.784,8.068-2.784c6.964,0,13.049,5.792,13.375,12.716c-0.055,3.419-1.698,6.759-4.212,8.544l-0.801,0.579
		l-0.707,0.682l-0.452,0.437l-0.143,0.134l-0.143,0.151c-0.333,0.341-0.65,0.667-1,1.007l-0.15,0.167l-0.476,0.468l-1.222,1.214
		c-33.333,26.86-52.197,66.374-51.714,108.536c0.04,76.853,62.574,139.364,139.418,139.364c76.83,0,139.387-62.511,139.418-139.364
		c0.461-42.536-18.197-81.906-51.291-108.124c-0.191-0.174-0.381-0.357-0.541-0.531c-0.316-0.326-0.635-0.603-0.793-0.761
		l-0.238-0.294l-0.316-0.277c-0.096-0.127-0.223-0.23-0.35-0.373c-0.35-0.341-0.793-0.77-1.381-1.364l-0.477-0.445l-0.506-0.413
		c-3.047-2.379-4.713-5.601-4.713-9.099c0-2.555,1.143-5.617,3.078-8.393c2.363-2.785,6.045-4.442,9.963-4.442
		c2.967,0,5.791,0.952,7.998,2.689c2.029,1.697,4.98,4.205,7.344,6.568l0.381,0.357l0.381,0.325
		c36.697,31.414,57.799,76.956,57.799,124.957C415.039,341.455,340.678,415.815,249.283,415.815z"/>
</g>
</svg>
