<?xml version="1.0" encoding="utf-8"?>
<!-- Generator: Adobe Illustrator 16.0.0, SVG Export Plug-In . SVG Version: 6.00 Build 0)  -->
<!DOCTYPE svg PUBLIC "-//W3C//DTD SVG 1.1//EN" "http://www.w3.org/Graphics/SVG/1.1/DTD/svg11.dtd">
<svg version="1.1" id="Layer_1" xmlns="http://www.w3.org/2000/svg" xmlns:xlink="http://www.w3.org/1999/xlink" x="0px" y="0px"
	 width="24px" height="24px" viewBox="0 0 24 24" enable-background="new 0 0 24 24" xml:space="preserve">
<path fill="#FFFFFF" d="M0.041,0.083v23.834h23.918V0.083H0.041z M10.392,1.738c0-0.858,0.696-1.583,1.583-1.583
	c0.885,0,1.582,0.698,1.584,1.583v7.458c0,0.858-0.697,1.583-1.584,1.583c-0.858,0-1.583-0.698-1.583-1.583V1.738z M11.999,23.845
	c-6.035,0-10.918-4.909-10.918-10.918c0-3.165,1.367-6.171,3.81-8.236c0.162-0.162,0.348-0.322,0.51-0.457
	c0.268-0.215,0.645-0.348,0.993-0.348c0.858,0,1.583,0.696,1.607,1.556c0,0.457-0.213,0.911-0.59,1.18L7.385,6.647
	c-0.027,0.029-0.053,0.055-0.08,0.082c-0.026,0.026-0.08,0.08-0.133,0.133c-1.851,1.474-2.924,3.675-2.897,6.036
	c0,4.266,3.46,7.727,7.725,7.727c4.266,0,7.727-3.461,7.727-7.727c0.025-2.361-1.021-4.562-2.871-6.009
	c-0.051-0.053-0.108-0.108-0.133-0.135c-0.027-0.024-0.053-0.053-0.109-0.106c-0.376-0.295-0.589-0.723-0.589-1.179
	c0-0.348,0.135-0.696,0.351-0.993c0.533-0.669,1.553-0.778,2.225-0.241c0.162,0.135,0.348,0.294,0.51,0.457
	c2.414,2.065,3.809,5.071,3.809,8.236C22.918,18.962,18.008,23.845,11.999,23.845z"/>
</svg>
