<?xml version="1.0" encoding="utf-8"?>
<!-- Generator: Adobe Illustrator 16.0.0, SVG Export Plug-In . SVG Version: 6.00 Build 0)  -->
<!DOCTYPE svg PUBLIC "-//W3C//DTD SVG 1.1//EN" "http://www.w3.org/Graphics/SVG/1.1/DTD/svg11.dtd">
<svg version="1.1" id="Layer_1" xmlns="http://www.w3.org/2000/svg" xmlns:xlink="http://www.w3.org/1999/xlink" x="0px" y="0px"
	 width="24px" height="24px" viewBox="0 0 24 24" enable-background="new 0 0 24 24" xml:space="preserve">
<g id="SvgjsG6126" transform="matrix(2.0473127365112305,0,0,2.0473127365112305,54.75527082849162,52.92085051039325)">
	<g transform="translate(-333 -77)">
		<g>
			<path fill="#00E676" d="M309.378,53.049c-0.17,0-0.354,0.065-0.485,0.17c-0.079,0.066-0.17,0.144-0.249,0.223
				c-1.193,1.009-1.861,2.477-1.861,4.023c0,2.935,2.385,5.333,5.333,5.333c2.935,0,5.333-2.385,5.333-5.333
				c0-1.546-0.681-3.014-1.86-4.023c-0.079-0.079-0.17-0.157-0.249-0.223c-0.328-0.262-0.826-0.209-1.087,0.118
				c-0.105,0.145-0.171,0.315-0.171,0.485c0,0.223,0.104,0.432,0.288,0.576c0.027,0.026,0.04,0.04,0.053,0.052
				c0.012,0.013,0.04,0.04,0.065,0.066c0.904,0.707,1.415,1.782,1.402,2.935c0,2.084-1.69,3.774-3.774,3.774
				c-2.083,0-3.773-1.69-3.773-3.774c-0.013-1.153,0.511-2.228,1.415-2.948c0.026-0.026,0.052-0.052,0.065-0.065
				c0.013-0.013,0.026-0.026,0.039-0.04l0.013-0.013c0.184-0.131,0.288-0.353,0.288-0.576
				C310.151,53.389,309.797,53.049,309.378,53.049z M312.104,51.227c-0.433,0-0.773,0.354-0.773,0.773v3.643
				c0,0.432,0.354,0.773,0.773,0.773c0.433,0,0.774-0.354,0.774-0.773V52C312.877,51.568,312.536,51.227,312.104,51.227z"/>
		</g>
	</g>
</g>
</svg>
