<?xml version="1.0" encoding="utf-8"?>
<!-- Generator: Adobe Illustrator 16.0.0, SVG Export Plug-In . SVG Version: 6.00 Build 0)  -->
<!DOCTYPE svg PUBLIC "-//W3C//DTD SVG 1.1//EN" "http://www.w3.org/Graphics/SVG/1.1/DTD/svg11.dtd">
<svg version="1.1" id="Layer_1" xmlns="http://www.w3.org/2000/svg" xmlns:xlink="http://www.w3.org/1999/xlink" x="0px" y="0px"
	 width="447.392px" height="73.9px" viewBox="0 0 447.392 73.9" enable-background="new 0 0 447.392 73.9" xml:space="preserve">
<g>
	<g>
		<path fill="#FFFFFF" d="M131.592,51.793c-3.3,0-6.116-1.166-8.448-3.498c-2.333-2.333-3.499-5.148-3.499-8.448
			c0-3.299,1.166-6.115,3.499-8.448c2.332-2.332,5.148-3.498,8.448-3.498h10.24c3.299,0,6.115,1.166,8.447,3.498
			c2.333,2.333,3.499,5.149,3.499,8.448c0,3.3-1.167,6.115-3.499,8.448c-2.332,2.332-5.148,3.498-8.447,3.498H131.592z
			 M131.592,33.02c-1.89,0-3.499,0.666-4.83,1.997s-1.997,2.941-1.997,4.83s0.666,3.499,1.997,4.83s2.94,1.997,4.83,1.997h10.24
			c1.889,0,3.498-0.666,4.829-1.997s1.997-2.941,1.997-4.83s-0.666-3.499-1.997-4.83s-2.941-1.997-4.829-1.997H131.592
			L131.592,33.02z"/>
		<path fill="#FFFFFF" d="M163.829,27.899v23.894h-5.12V27.899H163.829z"/>
		<path fill="#FFFFFF" d="M174.169,39.847v11.946h-5.119V39.847c0-3.299,1.166-6.115,3.499-8.448
			c2.332-2.332,5.147-3.498,8.447-3.498h10.24c3.3,0,6.115,1.166,8.448,3.498c2.332,2.333,3.498,5.149,3.498,8.448v11.946h-5.12
			V39.847c0-1.889-0.665-3.499-1.996-4.83c-1.332-1.331-2.942-1.997-4.83-1.997h-10.24c-1.889,0-3.499,0.666-4.83,1.997
			S174.169,37.958,174.169,39.847z"/>
		<path fill="#FFFFFF" d="M235.862,27.899c2.002,0,3.712,0.708,5.129,2.125c1.416,1.417,2.124,3.126,2.124,5.129
			c0,1.798-0.574,3.362-1.723,4.693c1.148,1.331,1.723,2.896,1.723,4.693c0,2.003-0.707,3.712-2.124,5.129
			c-1.417,1.416-3.127,2.125-5.129,2.125h-26.879V27.899H235.862z M214.103,33.02v4.268h21.76c0.591,0,1.095-0.208,1.511-0.623
			c0.415-0.415,0.623-0.919,0.623-1.511s-0.208-1.095-0.623-1.51c-0.416-0.416-0.92-0.624-1.511-0.624H214.103z M214.103,46.674
			h21.76c0.591,0,1.095-0.208,1.511-0.623c0.415-0.415,0.623-0.919,0.623-1.511s-0.208-1.095-0.623-1.51
			c-0.416-0.416-0.92-0.623-1.511-0.623h-21.76V46.674z"/>
		<path fill="#FFFFFF" d="M259.413,51.793c-3.299,0-6.115-1.166-8.447-3.498c-2.333-2.333-3.499-5.148-3.499-8.448
			c0-3.299,1.166-6.115,3.499-8.448c2.332-2.332,5.148-3.498,8.447-3.498h10.24c3.3,0,6.116,1.166,8.448,3.498
			c2.333,2.333,3.498,5.149,3.498,8.448c0,3.3-1.166,6.115-3.498,8.448c-2.332,2.332-5.148,3.498-8.448,3.498H259.413z
			 M259.413,33.02c-1.889,0-3.498,0.666-4.83,1.997c-1.33,1.331-1.996,2.941-1.996,4.83s0.666,3.499,1.996,4.83
			c1.332,1.331,2.941,1.997,4.83,1.997h10.24c1.889,0,3.499-0.666,4.83-1.997s1.997-2.941,1.997-4.83s-0.666-3.499-1.997-4.83
			c-1.33-1.331-2.941-1.997-4.83-1.997H259.413L259.413,33.02z"/>
		<path fill="#FFFFFF" d="M348.296,51.793l-13.96-23.894h5.939l11.109,19.013l11.111-19.013h5.939l-13.978,23.894H348.296z"/>
		<path fill="#FFFFFF" d="M399.666,27.899c2.003,0,3.712,0.708,5.128,2.125c1.417,1.417,2.126,3.126,2.126,5.129
			s-0.709,3.712-2.126,5.128c-1.416,1.417-3.125,2.126-5.128,2.126h-21.76v9.387h-5.12V27.899H399.666z M377.906,33.02v4.268h21.76
			c0.592,0,1.096-0.208,1.511-0.623s0.623-0.919,0.623-1.511s-0.208-1.095-0.623-1.51c-0.415-0.416-0.919-0.624-1.511-0.624H377.906
			z"/>
		<path fill="#FFFFFF" d="M115.198,46.674H96.004c-1.889,0-3.498-0.666-4.829-1.997s-1.997-2.941-1.997-4.83s0.666-3.499,1.997-4.83
			s2.94-1.997,4.829-1.997h19.193l2.99-5.12H96.004c-3.299,0-6.115,1.167-8.447,3.499c-2.333,2.333-3.499,5.149-3.499,8.448
			c0,3.3,1.166,6.115,3.499,8.448c2.332,2.332,5.148,3.498,8.447,3.498h22.185L115.198,46.674z"/>
		<polygon fill="#FFFFFF" points="283.069,27.899 286.06,33.02 297.561,33.02 297.561,51.793 302.681,51.793 302.681,33.02 
			314.198,33.02 317.188,27.902 317.188,27.899 		"/>
		<path fill="#FFFFFF" d="M443.279,39.412c-1.417-1.417-3.126-2.126-5.128-2.126h-19.627c-0.593,0-1.096-0.207-1.511-0.623
			c-0.415-0.415-0.623-0.918-0.623-1.51s0.208-1.095,0.623-1.511c0.415-0.415,0.918-0.623,1.511-0.623h23.884l2.99-5.12h-26.874
			c-2.003,0-3.713,0.708-5.129,2.125c-1.417,1.417-2.125,3.126-2.125,5.129s0.708,3.712,2.125,5.128
			c1.416,1.417,3.126,2.126,5.129,2.126h19.627c0.591,0,1.095,0.207,1.51,0.622c0.416,0.415,0.623,0.919,0.623,1.511
			s-0.207,1.096-0.623,1.51c-0.415,0.416-0.919,0.624-1.51,0.624h-23.873l-2.99,5.119h26.863c2.002,0,3.711-0.708,5.128-2.125
			c1.416-1.416,2.125-3.126,2.125-5.128S444.695,40.828,443.279,39.412z"/>
	</g>
	<g>
		<path fill="#FFFFFF" d="M18.299,13.757c-0.996,0-2.071,0.383-2.838,0.996c-0.461,0.385-0.994,0.844-1.454,1.304
			C7.026,21.96,3.119,30.548,3.119,39.593c0,17.177,13.952,31.206,31.203,31.206c17.173,0,31.203-13.952,31.203-31.206
			c0-9.045-3.982-17.633-10.885-23.536c-0.461-0.46-0.994-0.919-1.457-1.304c-1.917-1.532-4.831-1.225-6.361,0.689
			c-0.613,0.846-1.001,1.842-1.001,2.839c0,1.303,0.61,2.528,1.686,3.372c0.159,0.152,0.231,0.23,0.31,0.306
			c0.072,0.078,0.231,0.231,0.383,0.386c5.289,4.139,8.28,10.427,8.202,17.173c0,12.191-9.889,22.082-22.079,22.082
			c-12.188,0-22.08-9.891-22.08-22.082c-0.078-6.746,2.989-13.034,8.281-17.251c0.153-0.153,0.307-0.308,0.383-0.383
			c0.078-0.078,0.153-0.153,0.229-0.231l0.078-0.075c1.074-0.768,1.686-2.068,1.686-3.372
			C22.823,15.749,20.752,13.757,18.299,13.757z M34.246,3.101c-2.53,0-4.523,2.071-4.523,4.521v21.314
			c0,2.529,2.071,4.524,4.523,4.524c2.532,0,4.527-2.071,4.527-4.524V7.622C38.773,5.094,36.778,3.101,34.246,3.101z"/>
		
			<linearGradient id="SVGID_1_" gradientUnits="userSpaceOnUse" x1="1152.7188" y1="-47.6279" x2="1152.875" y2="-47.6279" gradientTransform="matrix(414.0225 0 0 414.0225 -477249.875 19755.832)">
			<stop  offset="0" style="stop-color:#33DAFF"/>
			<stop  offset="0.2" style="stop-color:#33DAFF"/>
			<stop  offset="0.2005" style="stop-color:#33DAFE"/>
			<stop  offset="0.232" style="stop-color:#23DED5"/>
			<stop  offset="0.264" style="stop-color:#17E1B3"/>
			<stop  offset="0.2966" style="stop-color:#0DE398"/>
			<stop  offset="0.3297" style="stop-color:#06E585"/>
			<stop  offset="0.3638" style="stop-color:#01E67A"/>
			<stop  offset="0.4" style="stop-color:#00E676"/>
			<stop  offset="0.6" style="stop-color:#EFFF48"/>
			<stop  offset="0.8" style="stop-color:#FF23C0"/>
			<stop  offset="1" style="stop-color:#FF23C0"/>
		</linearGradient>
		<path fill="url(#SVGID_1_)" d="M34.322,71.931c-17.83,0-32.335-14.507-32.335-32.338c0-9.424,4.101-18.305,11.253-24.371
			c0.497-0.493,1.059-0.972,1.494-1.337c0.992-0.794,2.318-1.26,3.564-1.26c3.066,0,5.637,2.488,5.73,5.546
			c0.001,1.699-0.797,3.316-2.087,4.274l-0.008,0.008c-0.063,0.065-0.126,0.128-0.189,0.192l-0.517,0.506
			c-5.065,4.037-7.928,9.997-7.854,16.354c0,11.565,9.397,20.963,20.948,20.963c11.55,0,20.947-9.397,20.947-20.95
			c0.074-6.431-2.757-12.359-7.769-16.281l-0.109-0.099l-0.185-0.185c-0.078-0.078-0.147-0.147-0.196-0.198
			c-0.032-0.031-0.063-0.063-0.101-0.101c-0.04-0.04-0.087-0.088-0.15-0.149c-1.316-1.056-2.071-2.592-2.071-4.224
			c0-1.178,0.434-2.422,1.219-3.504l0.031-0.041c1.061-1.328,2.673-2.09,4.421-2.09c1.291,0,2.544,0.435,3.53,1.223
			c0.416,0.345,1.001,0.841,1.52,1.355c7.148,6.131,11.248,15.01,11.248,24.368C66.657,57.424,52.151,71.931,34.322,71.931z
			 M18.299,14.889c-0.727,0-1.563,0.294-2.131,0.748c-0.392,0.327-0.919,0.778-1.361,1.22l-0.069,0.064
			C8.073,22.557,4.251,30.82,4.251,39.593c0,16.583,13.489,30.075,30.071,30.075s30.071-13.492,30.071-30.075
			c0-8.71-3.823-16.976-10.488-22.676l-0.064-0.061c-0.46-0.458-1.008-0.923-1.381-1.232c-0.569-0.456-1.321-0.714-2.1-0.714
			c-1.048,0-2.008,0.444-2.637,1.219c-0.497,0.692-0.771,1.456-0.771,2.152c0,0.952,0.456,1.856,1.252,2.48l0.087,0.076
			c0.101,0.097,0.17,0.166,0.227,0.224l0.128,0.129c0.034,0.036,0.092,0.093,0.157,0.158l0.148,0.148
			c5.537,4.36,8.664,10.929,8.581,18.034c0,12.787-10.412,23.201-23.211,23.201S11.11,52.318,11.11,39.518
			c-0.081-7.024,3.073-13.621,8.657-18.096l0.374-0.374c0.061-0.061,0.119-0.12,0.179-0.181l0.235-0.211
			c0.747-0.534,1.211-1.473,1.211-2.451C21.711,16.393,20.154,14.889,18.299,14.889z M34.246,34.593
			c-3.118,0-5.655-2.537-5.655-5.656V7.622c0-3.117,2.537-5.653,5.655-5.653c3.174,0,5.66,2.483,5.66,5.653v21.314
			C39.906,32.056,37.367,34.593,34.246,34.593z M34.246,4.232c-1.87,0-3.392,1.521-3.392,3.39v21.314
			c0,1.871,1.521,3.393,3.392,3.393c1.873,0,3.396-1.521,3.396-3.393V7.622C37.642,5.722,36.15,4.232,34.246,4.232z"/>
	</g>
</g>
</svg>
