<?xml version="1.0" encoding="utf-8"?>
<!-- Generator: Adobe Illustrator 16.0.0, SVG Export Plug-In . SVG Version: 6.00 Build 0)  -->
<!DOCTYPE svg PUBLIC "-//W3C//DTD SVG 1.1//EN" "http://www.w3.org/Graphics/SVG/1.1/DTD/svg11.dtd">
<svg version="1.1" id="Layer_1" xmlns="http://www.w3.org/2000/svg" xmlns:xlink="http://www.w3.org/1999/xlink" x="0px" y="0px"
	 width="2859.075px" height="522.051px" viewBox="0 0 2859.075 522.051" enable-background="new 0 0 2859.075 522.051"
	 xml:space="preserve">
<g>
	<path fill="#FFFFFF" d="M840.028,356.417c-21.125,0-39.153-7.467-54.085-22.399c-14.935-14.933-22.398-32.959-22.398-54.084
		c0-21.124,7.465-39.149,22.398-54.083c14.932-14.931,32.959-22.4,54.085-22.4h65.557c21.123,0,39.152,7.469,54.084,22.4
		c14.931,14.934,22.398,32.96,22.398,54.083c0,21.125-7.469,39.151-22.398,54.084c-14.933,14.935-32.961,22.399-54.084,22.399
		H840.028z M840.028,236.228c-12.094,0-22.399,4.261-30.921,12.783c-8.523,8.522-12.784,18.831-12.784,30.923
		c0,12.094,4.261,22.397,12.784,30.92c8.521,8.522,18.827,12.785,30.921,12.785h65.557c12.091,0,22.398-4.263,30.921-12.785
		c8.522-8.521,12.783-18.826,12.783-30.92c0-12.092-4.261-22.399-12.783-30.923c-8.521-8.522-18.831-12.783-30.921-12.783H840.028
		L840.028,236.228z"/>
	<path fill="#FFFFFF" d="M1302.413,203.449v152.968h-32.778V203.449H1302.413z"/>
	<path fill="#FFFFFF" d="M1371.613,279.934v76.483h-32.778v-76.483c0-21.124,7.466-39.149,22.399-54.083
		c14.931-14.931,32.959-22.4,54.084-22.4h65.557c21.123,0,39.15,7.469,54.084,22.4c14.932,14.934,22.398,32.96,22.398,54.083v76.483
		h-32.779v-76.483c0-12.092-4.26-22.399-12.783-30.923c-8.523-8.522-18.83-12.783-30.922-12.783h-65.557
		c-12.093,0-22.398,4.261-30.922,12.783C1375.875,257.533,1371.613,267.842,1371.613,279.934z"/>
	<polygon fill="#FFFFFF" points="737.077,323.639 663.448,323.639 630.67,323.639 570.497,323.639 570.497,203.449 537.719,203.449 
		537.719,356.417 537.797,356.417 570.497,356.417 756.223,356.417 	"/>
	<path fill="#FFFFFF" d="M1232.163,356.417v-92.635h-17.334h-73.629l-19.146,32.778h77.749v27.078h-109.605
		c-12.094,0-22.399-4.263-30.92-12.785c-8.523-8.521-12.785-18.826-12.785-30.92c0-12.092,4.262-22.399,12.785-30.923
		c8.521-8.522,18.829-12.783,30.92-12.783h141.966V203.45h-141.966c-21.125,0-39.153,7.469-54.084,22.4
		c-14.935,14.934-22.398,32.96-22.398,54.083c0,21.125,7.466,39.15,22.398,54.084c14.932,14.934,32.959,22.398,54.084,22.398
		h109.605v0.001H1232.163z"/>
</g>
<g id="SvgjsG6126_10_" transform="matrix(2.0473127365112305,0,0,2.0473127365112305,54.75527082849162,52.92085051039325)">
	<g transform="translate(-333 -77)">
	</g>
</g>
<g display="none">
	<path display="inline" fill="#FFFFFF" d="M320.351,108.108c0.509-0.08,1.016-0.149,1.522-0.203
		C321.368,107.96,320.86,108.029,320.351,108.108z"/>
	<path display="inline" fill="#FFFFFF" d="M315.824,109.183c0.266-0.084,0.532-0.165,0.8-0.242
		C316.356,109.018,316.089,109.099,315.824,109.183z"/>
	<path display="inline" fill="#FFFFFF" d="M303.164,117.157c0.267-0.287,0.535-0.57,0.811-0.844
		C303.7,116.587,303.431,116.871,303.164,117.157z"/>
	<path display="inline" fill="#FFFFFF" d="M322.08,107.888c0.452-0.045,0.904-0.083,1.354-0.108
		C322.985,107.805,322.532,107.842,322.08,107.888z"/>
	<path display="inline" fill="#FFFFFF" d="M308.162,112.874c0.292-0.197,0.589-0.385,0.887-0.57
		C308.751,112.49,308.454,112.678,308.162,112.874z"/>
	<path display="inline" fill="#FFFFFF" d="M312.835,110.31c0.277-0.122,0.554-0.243,0.834-0.356
		C313.39,110.067,313.112,110.188,312.835,110.31z"/>
	<path display="inline" fill="#FFFFFF" d="M314.336,109.699c0.264-0.099,0.528-0.196,0.794-0.288
		C314.864,109.503,314.599,109.6,314.336,109.699z"/>
	<path display="inline" fill="#FFFFFF" d="M318.831,108.39c0.312-0.065,0.625-0.121,0.938-0.177
		C319.456,108.268,319.141,108.325,318.831,108.39z"/>
	<path display="inline" fill="#FFFFFF" d="M304.375,115.93c0.256-0.245,0.515-0.486,0.779-0.721
		C304.89,115.443,304.631,115.685,304.375,115.93z"/>
	<path display="inline" fill="#FFFFFF" d="M305.601,114.823c0.259-0.22,0.521-0.436,0.787-0.646
		C306.122,114.387,305.86,114.602,305.601,114.823z"/>
	<path display="inline" fill="#FFFFFF" d="M317.321,108.747c0.274-0.073,0.556-0.139,0.835-0.204
		C317.877,108.608,317.599,108.675,317.321,108.747z"/>
	<path display="inline" fill="#FFFFFF" d="M306.863,113.807c0.269-0.204,0.542-0.4,0.813-0.594
		C307.404,113.407,307.131,113.603,306.863,113.807z"/>
	<path display="inline" fill="#FFFFFF" d="M218.599,217.977c5.507,0,9.976-4.466,9.976-9.964V67.001
		c0-5.672-4.293-9.954-9.976-9.954c-5.496,0-9.964,4.468-9.964,9.954v141.012C208.635,213.512,213.103,217.977,218.599,217.977z"/>
	<path display="inline" fill="#FFFFFF" d="M301.787,118.743c0.344-0.43,0.701-0.846,1.065-1.252
		C302.488,117.896,302.131,118.312,301.787,118.743z"/>
	<path display="inline" fill="#FFFFFF" d="M332.773,108.678c0.719,0.183,1.434,0.388,2.14,0.624
		C334.206,109.065,333.492,108.861,332.773,108.678z"/>
	<path display="inline" fill="#FFFFFF" d="M341.993,112.794c0.642,0.433,1.271,0.885,1.887,1.374
		C343.266,113.679,342.634,113.227,341.993,112.794z"/>
	<path display="inline" fill="#FFFFFF" d="M335.129,109.379c0.684,0.235,1.36,0.496,2.029,0.781
		C336.489,109.874,335.812,109.614,335.129,109.379z"/>
	<path display="inline" fill="#FFFFFF" d="M337.387,110.255c0.674,0.295,1.337,0.623,1.992,0.97
		C338.724,110.877,338.058,110.55,337.387,110.255z"/>
	<path display="inline" fill="#FFFFFF" d="M339.771,111.436c0.639,0.352,1.268,0.727,1.884,1.13
		C341.039,112.163,340.411,111.788,339.771,111.436z"/>
	<path display="inline" fill="#FFFFFF" d="M330.252,108.146c0.722,0.12,1.44,0.268,2.153,0.439
		C331.692,108.414,330.974,108.266,330.252,108.146z"/>
	<path display="inline" fill="#FFFFFF" d="M311.117,111.125c0.372-0.192,0.747-0.379,1.125-0.555
		C311.863,110.746,311.489,110.934,311.117,111.125z"/>
	<path display="inline" fill="#FFFFFF" d="M309.5,112.021c0.413-0.247,0.831-0.483,1.254-0.709
		C310.331,111.538,309.912,111.774,309.5,112.021z"/>
	<path display="inline" fill="#FFFFFF" d="M323.949,107.76c0.354-0.014,0.707-0.026,1.062-0.028
		C324.656,107.734,324.302,107.746,323.949,107.76z"/>
	<path display="inline" fill="#FFFFFF" d="M340.54,137.979l-0.597-0.509l-0.542-0.555c-2.58-2.58-5.824-5.333-8.103-7.232
		c-1.672-1.278-3.828-1.994-6.104-1.994c-2.983,0-5.771,1.193-7.537,3.208c-1.594,2.312-2.525,4.75-2.525,6.615
		c0,2.484,1.244,4.825,3.502,6.604l0.804,0.627l0.735,0.695c0.736,0.715,1.234,1.227,1.669,1.648l0.349,0.349l0.4,0.39l0.444,0.476
		c0.108,0.121,0.413,0.413,0.738,0.739c0.13,0.129,0.28,0.281,0.435,0.434c39.292,31.227,61.455,78.035,60.913,128.65
		c-0.063,91.506-74.512,165.932-166.026,165.932S53.126,369.629,53.061,278.123c-0.532-50.147,21.814-97.152,61.401-129.127
		l1.193-1.204l0.565-0.563l0.184-0.173c0.38-0.379,0.726-0.739,1.095-1.118l0.217-0.217l0.217-0.217l0.519-0.499l1.085-1.062
		l1.237-0.868c1.57-1.129,2.688-3.472,2.774-5.77c-0.346-5.313-5.052-9.748-10.453-9.748c-1.974,0-4.598,0.901-6.201,2.115
		c-2.472,2.082-5.584,4.75-8.077,7.242l-0.599,0.586l-0.628,0.542c-41.289,34.915-64.971,86.104-64.971,140.459
		c0,102.834,83.652,186.479,186.478,186.479c102.814,0,186.467-83.646,186.467-186.479
		C405.565,224.527,381.849,173.305,340.54,137.979z"/>
	<path display="inline" fill="#FFFFFF" d="M325.415,107.736c1.512,0.01,3.024,0.131,4.524,0.364
		C328.44,107.867,326.928,107.746,325.415,107.736z"/>
	
		<linearGradient id="SVGID_1_" gradientUnits="userSpaceOnUse" x1="180.6713" y1="-1.2388" x2="593.5253" y2="-1.2388" gradientTransform="matrix(1 0 0 -1 -168 108.1014)">
		<stop  offset="0.2" style="stop-color:#33DAFF"/>
		<stop  offset="0.2005" style="stop-color:#33DAFE"/>
		<stop  offset="0.232" style="stop-color:#23DED5"/>
		<stop  offset="0.264" style="stop-color:#17E1B3"/>
		<stop  offset="0.2966" style="stop-color:#0DE398"/>
		<stop  offset="0.3297" style="stop-color:#06E585"/>
		<stop  offset="0.3638" style="stop-color:#01E67A"/>
		<stop  offset="0.4" style="stop-color:#00E676"/>
		<stop  offset="0.6" style="stop-color:#EFFF48"/>
		<stop  offset="0.8" style="stop-color:#FF23C0"/>
	</linearGradient>
	<path display="inline" fill="url(#SVGID_1_)" d="M334.912,109.302c0.073,0.024,0.144,0.052,0.216,0.077
		C335.057,109.354,334.985,109.326,334.912,109.302z"/>
	
		<linearGradient id="SVGID_2_" gradientUnits="userSpaceOnUse" x1="180.6713" y1="0.3701" x2="593.5253" y2="0.3701" gradientTransform="matrix(1 0 0 -1 -168 108.1014)">
		<stop  offset="0.2" style="stop-color:#33DAFF"/>
		<stop  offset="0.2005" style="stop-color:#33DAFE"/>
		<stop  offset="0.232" style="stop-color:#23DED5"/>
		<stop  offset="0.264" style="stop-color:#17E1B3"/>
		<stop  offset="0.2966" style="stop-color:#0DE398"/>
		<stop  offset="0.3297" style="stop-color:#06E585"/>
		<stop  offset="0.3638" style="stop-color:#01E67A"/>
		<stop  offset="0.4" style="stop-color:#00E676"/>
		<stop  offset="0.6" style="stop-color:#EFFF48"/>
		<stop  offset="0.8" style="stop-color:#FF23C0"/>
	</linearGradient>
	<path display="inline" fill="url(#SVGID_2_)" d="M325.198,107.727c-0.063,0-0.125,0.004-0.188,0.005
		c0.135,0,0.271,0.003,0.405,0.004C325.343,107.735,325.267,107.727,325.198,107.727z"/>
	
		<linearGradient id="SVGID_3_" gradientUnits="userSpaceOnUse" x1="180.6713" y1="-3.2291" x2="593.525" y2="-3.2291" gradientTransform="matrix(1 0 0 -1 -168 108.1014)">
		<stop  offset="0.2" style="stop-color:#33DAFF"/>
		<stop  offset="0.2005" style="stop-color:#33DAFE"/>
		<stop  offset="0.232" style="stop-color:#23DED5"/>
		<stop  offset="0.264" style="stop-color:#17E1B3"/>
		<stop  offset="0.2966" style="stop-color:#0DE398"/>
		<stop  offset="0.3297" style="stop-color:#06E585"/>
		<stop  offset="0.3638" style="stop-color:#01E67A"/>
		<stop  offset="0.4" style="stop-color:#00E676"/>
		<stop  offset="0.6" style="stop-color:#EFFF48"/>
		<stop  offset="0.8" style="stop-color:#FF23C0"/>
	</linearGradient>
	<path display="inline" fill="url(#SVGID_3_)" d="M339.379,111.225c0.131,0.07,0.262,0.139,0.395,0.211
		C339.641,111.364,339.511,111.295,339.379,111.225z"/>
	
		<linearGradient id="SVGID_4_" gradientUnits="userSpaceOnUse" x1="180.6713" y1="-0.5303" x2="593.5253" y2="-0.5303" gradientTransform="matrix(1 0 0 -1 -168 108.1014)">
		<stop  offset="0.2" style="stop-color:#33DAFF"/>
		<stop  offset="0.2005" style="stop-color:#33DAFE"/>
		<stop  offset="0.232" style="stop-color:#23DED5"/>
		<stop  offset="0.264" style="stop-color:#17E1B3"/>
		<stop  offset="0.2966" style="stop-color:#0DE398"/>
		<stop  offset="0.3297" style="stop-color:#06E585"/>
		<stop  offset="0.3638" style="stop-color:#01E67A"/>
		<stop  offset="0.4" style="stop-color:#00E676"/>
		<stop  offset="0.6" style="stop-color:#EFFF48"/>
		<stop  offset="0.8" style="stop-color:#FF23C0"/>
	</linearGradient>
	<path display="inline" fill="url(#SVGID_4_)" d="M332.406,108.586c0.123,0.029,0.245,0.061,0.367,0.092
		C332.651,108.647,332.529,108.615,332.406,108.586z"/>
	
		<linearGradient id="SVGID_5_" gradientUnits="userSpaceOnUse" x1="180.6713" y1="-2.106" x2="593.5253" y2="-2.106" gradientTransform="matrix(1 0 0 -1 -168 108.1014)">
		<stop  offset="0.2" style="stop-color:#33DAFF"/>
		<stop  offset="0.2005" style="stop-color:#33DAFE"/>
		<stop  offset="0.232" style="stop-color:#23DED5"/>
		<stop  offset="0.264" style="stop-color:#17E1B3"/>
		<stop  offset="0.2966" style="stop-color:#0DE398"/>
		<stop  offset="0.3297" style="stop-color:#06E585"/>
		<stop  offset="0.3638" style="stop-color:#01E67A"/>
		<stop  offset="0.4" style="stop-color:#00E676"/>
		<stop  offset="0.6" style="stop-color:#EFFF48"/>
		<stop  offset="0.8" style="stop-color:#FF23C0"/>
	</linearGradient>
	<path display="inline" fill="url(#SVGID_5_)" d="M337.158,110.16c0.076,0.033,0.15,0.062,0.229,0.095
		C337.308,110.222,337.234,110.193,337.158,110.16z"/>
	
		<linearGradient id="SVGID_6_" gradientUnits="userSpaceOnUse" x1="180.6713" y1="-4.5782" x2="593.5253" y2="-4.5782" gradientTransform="matrix(1 0 0 -1 -168 108.1014)">
		<stop  offset="0.2" style="stop-color:#33DAFF"/>
		<stop  offset="0.2005" style="stop-color:#33DAFE"/>
		<stop  offset="0.232" style="stop-color:#23DED5"/>
		<stop  offset="0.264" style="stop-color:#17E1B3"/>
		<stop  offset="0.2966" style="stop-color:#0DE398"/>
		<stop  offset="0.3297" style="stop-color:#06E585"/>
		<stop  offset="0.3638" style="stop-color:#01E67A"/>
		<stop  offset="0.4" style="stop-color:#00E676"/>
		<stop  offset="0.6" style="stop-color:#EFFF48"/>
		<stop  offset="0.8" style="stop-color:#FF23C0"/>
	</linearGradient>
	<path display="inline" fill="url(#SVGID_6_)" d="M341.656,112.566c0.11,0.074,0.225,0.152,0.337,0.228
		C341.88,112.719,341.766,112.641,341.656,112.566z"/>
	
		<linearGradient id="SVGID_7_" gradientUnits="userSpaceOnUse" x1="180.6713" y1="-0.022" x2="593.5253" y2="-0.022" gradientTransform="matrix(1 0 0 -1 -168 108.1014)">
		<stop  offset="0.2" style="stop-color:#33DAFF"/>
		<stop  offset="0.2005" style="stop-color:#33DAFE"/>
		<stop  offset="0.232" style="stop-color:#23DED5"/>
		<stop  offset="0.264" style="stop-color:#17E1B3"/>
		<stop  offset="0.2966" style="stop-color:#0DE398"/>
		<stop  offset="0.3297" style="stop-color:#06E585"/>
		<stop  offset="0.3638" style="stop-color:#01E67A"/>
		<stop  offset="0.4" style="stop-color:#00E676"/>
		<stop  offset="0.6" style="stop-color:#EFFF48"/>
		<stop  offset="0.8" style="stop-color:#FF23C0"/>
	</linearGradient>
	<path display="inline" fill="url(#SVGID_7_)" d="M329.94,108.1c0.104,0.016,0.208,0.03,0.313,0.047
		C330.148,108.129,330.044,108.116,329.94,108.1z"/>
	
		<linearGradient id="SVGID_8_" gradientUnits="userSpaceOnUse" x1="180.6713" y1="-1.7252" x2="593.5253" y2="-1.7252" gradientTransform="matrix(1 0 0 -1 -168 108.1014)">
		<stop  offset="0.2" style="stop-color:#33DAFF"/>
		<stop  offset="0.2005" style="stop-color:#33DAFE"/>
		<stop  offset="0.232" style="stop-color:#23DED5"/>
		<stop  offset="0.264" style="stop-color:#17E1B3"/>
		<stop  offset="0.2966" style="stop-color:#0DE398"/>
		<stop  offset="0.3297" style="stop-color:#06E585"/>
		<stop  offset="0.3638" style="stop-color:#01E67A"/>
		<stop  offset="0.4" style="stop-color:#00E676"/>
		<stop  offset="0.6" style="stop-color:#EFFF48"/>
		<stop  offset="0.8" style="stop-color:#FF23C0"/>
	</linearGradient>
	<path display="inline" fill="url(#SVGID_8_)" d="M313.67,109.954c0.221-0.089,0.444-0.171,0.667-0.255
		C314.114,109.783,313.891,109.865,313.67,109.954z"/>
	
		<linearGradient id="SVGID_9_" gradientUnits="userSpaceOnUse" x1="180.6713" y1="-5.8907" x2="593.5253" y2="-5.8907" gradientTransform="matrix(1 0 0 -1 -168 108.1014)">
		<stop  offset="0.2" style="stop-color:#33DAFF"/>
		<stop  offset="0.2005" style="stop-color:#33DAFE"/>
		<stop  offset="0.232" style="stop-color:#23DED5"/>
		<stop  offset="0.264" style="stop-color:#17E1B3"/>
		<stop  offset="0.2966" style="stop-color:#0DE398"/>
		<stop  offset="0.3297" style="stop-color:#06E585"/>
		<stop  offset="0.3638" style="stop-color:#01E67A"/>
		<stop  offset="0.4" style="stop-color:#00E676"/>
		<stop  offset="0.6" style="stop-color:#EFFF48"/>
		<stop  offset="0.8" style="stop-color:#FF23C0"/>
	</linearGradient>
	<path display="inline" fill="url(#SVGID_9_)" d="M306.388,114.177c0.158-0.125,0.315-0.249,0.478-0.37
		C306.703,113.928,306.545,114.052,306.388,114.177z"/>
	
		<linearGradient id="SVGID_10_" gradientUnits="userSpaceOnUse" x1="180.6713" y1="-1.1954" x2="593.5253" y2="-1.1954" gradientTransform="matrix(1 0 0 -1 -168 108.1014)">
		<stop  offset="0.2" style="stop-color:#33DAFF"/>
		<stop  offset="0.2005" style="stop-color:#33DAFE"/>
		<stop  offset="0.232" style="stop-color:#23DED5"/>
		<stop  offset="0.264" style="stop-color:#17E1B3"/>
		<stop  offset="0.2966" style="stop-color:#0DE398"/>
		<stop  offset="0.3297" style="stop-color:#06E585"/>
		<stop  offset="0.3638" style="stop-color:#01E67A"/>
		<stop  offset="0.4" style="stop-color:#00E676"/>
		<stop  offset="0.6" style="stop-color:#EFFF48"/>
		<stop  offset="0.8" style="stop-color:#FF23C0"/>
	</linearGradient>
	<path display="inline" fill="url(#SVGID_10_)" d="M315.13,109.411c0.23-0.079,0.461-0.154,0.693-0.228
		C315.592,109.257,315.361,109.332,315.13,109.411z"/>
	
		<linearGradient id="SVGID_11_" gradientUnits="userSpaceOnUse" x1="180.6713" y1="-0.7422" x2="593.5253" y2="-0.7422" gradientTransform="matrix(1 0 0 -1 -168 108.1014)">
		<stop  offset="0.2" style="stop-color:#33DAFF"/>
		<stop  offset="0.2005" style="stop-color:#33DAFE"/>
		<stop  offset="0.232" style="stop-color:#23DED5"/>
		<stop  offset="0.264" style="stop-color:#17E1B3"/>
		<stop  offset="0.2966" style="stop-color:#0DE398"/>
		<stop  offset="0.3297" style="stop-color:#06E585"/>
		<stop  offset="0.3638" style="stop-color:#01E67A"/>
		<stop  offset="0.4" style="stop-color:#00E676"/>
		<stop  offset="0.6" style="stop-color:#EFFF48"/>
		<stop  offset="0.8" style="stop-color:#FF23C0"/>
	</linearGradient>
	<path display="inline" fill="url(#SVGID_11_)" d="M316.623,108.941c0.232-0.067,0.464-0.133,0.698-0.194
		C317.088,108.809,316.856,108.874,316.623,108.941z"/>
	
		<linearGradient id="SVGID_12_" gradientUnits="userSpaceOnUse" x1="180.6713" y1="-4.9424" x2="593.5253" y2="-4.9424" gradientTransform="matrix(1 0 0 -1 -168 108.1014)">
		<stop  offset="0.2" style="stop-color:#33DAFF"/>
		<stop  offset="0.2005" style="stop-color:#33DAFE"/>
		<stop  offset="0.232" style="stop-color:#23DED5"/>
		<stop  offset="0.264" style="stop-color:#17E1B3"/>
		<stop  offset="0.2966" style="stop-color:#0DE398"/>
		<stop  offset="0.3297" style="stop-color:#06E585"/>
		<stop  offset="0.3638" style="stop-color:#01E67A"/>
		<stop  offset="0.4" style="stop-color:#00E676"/>
		<stop  offset="0.6" style="stop-color:#EFFF48"/>
		<stop  offset="0.8" style="stop-color:#FF23C0"/>
	</linearGradient>
	<path display="inline" fill="url(#SVGID_12_)" d="M307.679,113.213c0.161-0.113,0.32-0.229,0.483-0.338
		C307.999,112.984,307.84,113.1,307.679,113.213z"/>
	
		<linearGradient id="SVGID_13_" gradientUnits="userSpaceOnUse" x1="180.6713" y1="-4.0611" x2="593.5253" y2="-4.0611" gradientTransform="matrix(1 0 0 -1 -168 108.1014)">
		<stop  offset="0.2" style="stop-color:#33DAFF"/>
		<stop  offset="0.2005" style="stop-color:#33DAFE"/>
		<stop  offset="0.232" style="stop-color:#23DED5"/>
		<stop  offset="0.264" style="stop-color:#17E1B3"/>
		<stop  offset="0.2966" style="stop-color:#0DE398"/>
		<stop  offset="0.3297" style="stop-color:#06E585"/>
		<stop  offset="0.3638" style="stop-color:#01E67A"/>
		<stop  offset="0.4" style="stop-color:#00E676"/>
		<stop  offset="0.6" style="stop-color:#EFFF48"/>
		<stop  offset="0.8" style="stop-color:#FF23C0"/>
	</linearGradient>
	<path display="inline" fill="url(#SVGID_13_)" d="M309.05,112.304c0.15-0.094,0.298-0.192,0.45-0.283
		C309.348,112.112,309.2,112.21,309.05,112.304z"/>
	
		<linearGradient id="SVGID_14_" gradientUnits="userSpaceOnUse" x1="180.6713" y1="-3.1172" x2="593.5253" y2="-3.1172" gradientTransform="matrix(1 0 0 -1 -168 108.1014)">
		<stop  offset="0.2" style="stop-color:#33DAFF"/>
		<stop  offset="0.2005" style="stop-color:#33DAFE"/>
		<stop  offset="0.232" style="stop-color:#23DED5"/>
		<stop  offset="0.264" style="stop-color:#17E1B3"/>
		<stop  offset="0.2966" style="stop-color:#0DE398"/>
		<stop  offset="0.3297" style="stop-color:#06E585"/>
		<stop  offset="0.3638" style="stop-color:#01E67A"/>
		<stop  offset="0.4" style="stop-color:#00E676"/>
		<stop  offset="0.6" style="stop-color:#EFFF48"/>
		<stop  offset="0.8" style="stop-color:#FF23C0"/>
	</linearGradient>
	<path display="inline" fill="url(#SVGID_14_)" d="M310.754,111.312c0.12-0.064,0.242-0.125,0.363-0.187
		C310.995,111.188,310.874,111.248,310.754,111.312z"/>
	
		<linearGradient id="SVGID_15_" gradientUnits="userSpaceOnUse" x1="180.6713" y1="-2.3384" x2="593.5253" y2="-2.3384" gradientTransform="matrix(1 0 0 -1 -168 108.1014)">
		<stop  offset="0.2" style="stop-color:#33DAFF"/>
		<stop  offset="0.2005" style="stop-color:#33DAFE"/>
		<stop  offset="0.232" style="stop-color:#23DED5"/>
		<stop  offset="0.264" style="stop-color:#17E1B3"/>
		<stop  offset="0.2966" style="stop-color:#0DE398"/>
		<stop  offset="0.3297" style="stop-color:#06E585"/>
		<stop  offset="0.3638" style="stop-color:#01E67A"/>
		<stop  offset="0.4" style="stop-color:#00E676"/>
		<stop  offset="0.6" style="stop-color:#EFFF48"/>
		<stop  offset="0.8" style="stop-color:#FF23C0"/>
	</linearGradient>
	<path display="inline" fill="url(#SVGID_15_)" d="M312.242,110.57c0.196-0.091,0.396-0.174,0.593-0.26
		C312.638,110.396,312.437,110.479,312.242,110.57z"/>
	
		<linearGradient id="SVGID_16_" gradientUnits="userSpaceOnUse" x1="180.6698" y1="-6.9146" x2="593.5238" y2="-6.9146" gradientTransform="matrix(1 0 0 -1 -168 108.1014)">
		<stop  offset="0.2" style="stop-color:#33DAFF"/>
		<stop  offset="0.2005" style="stop-color:#33DAFE"/>
		<stop  offset="0.232" style="stop-color:#23DED5"/>
		<stop  offset="0.264" style="stop-color:#17E1B3"/>
		<stop  offset="0.2966" style="stop-color:#0DE398"/>
		<stop  offset="0.3297" style="stop-color:#06E585"/>
		<stop  offset="0.3638" style="stop-color:#01E67A"/>
		<stop  offset="0.4" style="stop-color:#00E676"/>
		<stop  offset="0.6" style="stop-color:#EFFF48"/>
		<stop  offset="0.8" style="stop-color:#FF23C0"/>
	</linearGradient>
	<path display="inline" fill="url(#SVGID_16_)" d="M305.154,115.209c0.147-0.131,0.297-0.259,0.447-0.386
		C305.451,114.95,305.302,115.078,305.154,115.209z"/>
	
		<linearGradient id="SVGID_17_" gradientUnits="userSpaceOnUse" x1="180.6713" y1="0.205" x2="593.5253" y2="0.205" gradientTransform="matrix(1 0 0 -1 -168 108.1014)">
		<stop  offset="0.2" style="stop-color:#33DAFF"/>
		<stop  offset="0.2005" style="stop-color:#33DAFE"/>
		<stop  offset="0.232" style="stop-color:#23DED5"/>
		<stop  offset="0.264" style="stop-color:#17E1B3"/>
		<stop  offset="0.2966" style="stop-color:#0DE398"/>
		<stop  offset="0.3297" style="stop-color:#06E585"/>
		<stop  offset="0.3638" style="stop-color:#01E67A"/>
		<stop  offset="0.4" style="stop-color:#00E676"/>
		<stop  offset="0.6" style="stop-color:#EFFF48"/>
		<stop  offset="0.8" style="stop-color:#FF23C0"/>
	</linearGradient>
	<path display="inline" fill="url(#SVGID_17_)" d="M321.876,107.905c0.068-0.008,0.136-0.011,0.204-0.018
		C322.013,107.894,321.944,107.898,321.876,107.905z"/>
	
		<linearGradient id="SVGID_18_" gradientUnits="userSpaceOnUse" x1="180.6713" y1="-0.3643" x2="593.525" y2="-0.3643" gradientTransform="matrix(1 0 0 -1 -168 108.1014)">
		<stop  offset="0.2" style="stop-color:#33DAFF"/>
		<stop  offset="0.2005" style="stop-color:#33DAFE"/>
		<stop  offset="0.232" style="stop-color:#23DED5"/>
		<stop  offset="0.264" style="stop-color:#17E1B3"/>
		<stop  offset="0.2966" style="stop-color:#0DE398"/>
		<stop  offset="0.3297" style="stop-color:#06E585"/>
		<stop  offset="0.3638" style="stop-color:#01E67A"/>
		<stop  offset="0.4" style="stop-color:#00E676"/>
		<stop  offset="0.6" style="stop-color:#EFFF48"/>
		<stop  offset="0.8" style="stop-color:#FF23C0"/>
	</linearGradient>
	<path display="inline" fill="url(#SVGID_18_)" d="M318.156,108.543c0.225-0.052,0.449-0.106,0.675-0.154
		C318.605,108.437,318.381,108.491,318.156,108.543z"/>
	
		<linearGradient id="SVGID_19_" gradientUnits="userSpaceOnUse" x1="180.6713" y1="0.332" x2="593.5253" y2="0.332" gradientTransform="matrix(1 0 0 -1 -168 108.1014)">
		<stop  offset="0.2" style="stop-color:#33DAFF"/>
		<stop  offset="0.2005" style="stop-color:#33DAFE"/>
		<stop  offset="0.232" style="stop-color:#23DED5"/>
		<stop  offset="0.264" style="stop-color:#17E1B3"/>
		<stop  offset="0.2966" style="stop-color:#0DE398"/>
		<stop  offset="0.3297" style="stop-color:#06E585"/>
		<stop  offset="0.3638" style="stop-color:#01E67A"/>
		<stop  offset="0.4" style="stop-color:#00E676"/>
		<stop  offset="0.6" style="stop-color:#EFFF48"/>
		<stop  offset="0.8" style="stop-color:#FF23C0"/>
	</linearGradient>
	<path display="inline" fill="url(#SVGID_19_)" d="M323.437,107.779c0.171-0.01,0.341-0.012,0.512-0.019
		C323.778,107.767,323.608,107.77,323.437,107.779z"/>
	
		<linearGradient id="SVGID_20_" gradientUnits="userSpaceOnUse" x1="182.0267" y1="-9.2232" x2="592.9545" y2="-9.2232" gradientTransform="matrix(1 0 0 -1 -168 108.1014)">
		<stop  offset="0.2" style="stop-color:#33DAFF"/>
		<stop  offset="0.2005" style="stop-color:#33DAFE"/>
		<stop  offset="0.232" style="stop-color:#23DED5"/>
		<stop  offset="0.264" style="stop-color:#17E1B3"/>
		<stop  offset="0.2966" style="stop-color:#0DE398"/>
		<stop  offset="0.3297" style="stop-color:#06E585"/>
		<stop  offset="0.3638" style="stop-color:#01E67A"/>
		<stop  offset="0.4" style="stop-color:#00E676"/>
		<stop  offset="0.6" style="stop-color:#EFFF48"/>
		<stop  offset="0.8" style="stop-color:#FF23C0"/>
	</linearGradient>
	<path display="inline" fill="url(#SVGID_20_)" d="M302.852,117.491c0.102-0.114,0.209-0.222,0.313-0.333
		C303.061,117.269,302.954,117.377,302.852,117.491z"/>
	
		<linearGradient id="SVGID_21_" gradientUnits="userSpaceOnUse" x1="180.6713" y1="-0.0596" x2="593.5253" y2="-0.0596" gradientTransform="matrix(1 0 0 -1 -168 108.1014)">
		<stop  offset="0.2" style="stop-color:#33DAFF"/>
		<stop  offset="0.2005" style="stop-color:#33DAFE"/>
		<stop  offset="0.232" style="stop-color:#23DED5"/>
		<stop  offset="0.264" style="stop-color:#17E1B3"/>
		<stop  offset="0.2966" style="stop-color:#0DE398"/>
		<stop  offset="0.3297" style="stop-color:#06E585"/>
		<stop  offset="0.3638" style="stop-color:#01E67A"/>
		<stop  offset="0.4" style="stop-color:#00E676"/>
		<stop  offset="0.6" style="stop-color:#EFFF48"/>
		<stop  offset="0.8" style="stop-color:#FF23C0"/>
	</linearGradient>
	<path display="inline" fill="url(#SVGID_21_)" d="M319.767,108.213c0.195-0.034,0.392-0.074,0.585-0.104
		C320.159,108.139,319.965,108.179,319.767,108.213z"/>
	
		<linearGradient id="SVGID_22_" gradientUnits="userSpaceOnUse" x1="181.7396" y1="-8.0201" x2="593.0813" y2="-8.0201" gradientTransform="matrix(1 0 0 -1 -168 108.1014)">
		<stop  offset="0.2" style="stop-color:#33DAFF"/>
		<stop  offset="0.2005" style="stop-color:#33DAFE"/>
		<stop  offset="0.232" style="stop-color:#23DED5"/>
		<stop  offset="0.264" style="stop-color:#17E1B3"/>
		<stop  offset="0.2966" style="stop-color:#0DE398"/>
		<stop  offset="0.3297" style="stop-color:#06E585"/>
		<stop  offset="0.3638" style="stop-color:#01E67A"/>
		<stop  offset="0.4" style="stop-color:#00E676"/>
		<stop  offset="0.6" style="stop-color:#EFFF48"/>
		<stop  offset="0.8" style="stop-color:#FF23C0"/>
	</linearGradient>
	<path display="inline" fill="url(#SVGID_22_)" d="M303.975,116.313c0.131-0.13,0.266-0.256,0.399-0.383
		C304.242,116.057,304.107,116.183,303.975,116.313z"/>
	<path display="inline" fill="#FFFFFF" d="M353.509,122.798c-3.038-3.045-6.571-6.072-9.629-8.629
		c-0.613-0.489-1.246-0.941-1.887-1.374c-0.112-0.076-0.227-0.154-0.337-0.228c-0.616-0.403-1.245-0.779-1.884-1.13
		c-0.133-0.072-0.264-0.141-0.395-0.211c-0.655-0.348-1.316-0.675-1.992-0.97c-0.075-0.033-0.15-0.062-0.229-0.095
		c-0.668-0.286-1.347-0.546-2.029-0.781c-0.072-0.025-0.144-0.053-0.216-0.077c-0.706-0.236-1.42-0.441-2.141-0.624
		c-0.121-0.031-0.243-0.063-0.366-0.092c-0.713-0.172-1.435-0.32-2.153-0.439c-0.104-0.017-0.208-0.031-0.313-0.047
		c-1.5-0.233-3.016-0.354-4.524-0.364c-0.135-0.001-0.271-0.004-0.405-0.004c-0.354,0.002-0.708,0.014-1.062,0.028
		c-0.17,0.007-0.341,0.009-0.513,0.021c-0.451,0.026-0.904,0.063-1.355,0.108c-0.068,0.007-0.136,0.01-0.204,0.018
		c-0.509,0.054-1.016,0.124-1.521,0.203c-0.195,0.031-0.393,0.07-0.586,0.104c-0.313,0.056-0.628,0.112-0.938,0.177
		c-0.226,0.047-0.45,0.102-0.675,0.154c-0.279,0.065-0.561,0.131-0.835,0.204c-0.233,0.061-0.466,0.127-0.698,0.194
		c-0.268,0.077-0.534,0.157-0.8,0.242c-0.232,0.074-0.463,0.149-0.693,0.228c-0.266,0.092-0.527,0.189-0.794,0.288
		c-0.223,0.083-0.446,0.166-0.667,0.255c-0.28,0.113-0.558,0.234-0.834,0.356c-0.198,0.086-0.396,0.169-0.593,0.26
		c-0.379,0.176-0.753,0.363-1.125,0.555c-0.121,0.063-0.243,0.123-0.363,0.187c-0.423,0.226-0.841,0.462-1.254,0.709
		c-0.152,0.091-0.3,0.189-0.45,0.283c-0.298,0.186-0.595,0.374-0.887,0.57c-0.163,0.11-0.322,0.225-0.483,0.338
		c-0.272,0.194-0.548,0.39-0.813,0.594c-0.16,0.122-0.317,0.246-0.478,0.37c-0.266,0.21-0.528,0.426-0.787,0.646
		c-0.15,0.127-0.299,0.255-0.447,0.386c-0.264,0.234-0.523,0.476-0.779,0.721c-0.133,0.127-0.268,0.253-0.399,0.383
		c-0.276,0.274-0.544,0.558-0.811,0.844c-0.104,0.112-0.21,0.22-0.313,0.333c-0.364,0.406-0.721,0.822-1.065,1.252
		c-4.055,5.584-6.614,12.178-6.614,18.77c0,8.622,4.031,16.731,11.145,22.305c1.055,1.018,1.526,1.54,2.051,2.038
		c0.479,0.509,1.529,1.529,2.526,2.549c35.003,27.378,54.789,68.972,54.271,113.599c0,80.647-65.418,146.088-146.066,146.088
		c-80.628,0-146.077-65.438-146.077-146.088c-0.519-44.627,19.779-86.221,54.779-114.131c1.02-0.997,2.038-2.017,2.536-2.516
		c0.521-0.522,1.021-1.021,1.519-1.54l0.509-0.499c7.113-5.075,11.158-13.684,11.158-22.305
		c-0.499-16.243-14.203-29.439-30.426-29.439c-6.591,0-13.705,2.539-18.78,6.594c-3.045,2.557-6.571,5.584-9.628,8.629
		c-46.168,39.058-72.017,95.875-72.017,155.706c0,113.633,92.294,206.449,206.427,206.449c113.613,0,206.427-92.295,206.427-206.449
		C425.525,218.672,399.178,161.855,353.509,122.798z M219.099,464.98c-102.825,0-186.478-83.646-186.478-186.479
		c0-54.356,23.682-105.545,64.971-140.459l0.628-0.542l0.599-0.586c2.493-2.492,5.605-5.161,8.077-7.242
		c1.604-1.214,4.228-2.115,6.201-2.115c5.4,0,10.106,4.435,10.453,9.748c-0.085,2.298-1.204,4.641-2.774,5.77l-1.237,0.868
		l-1.085,1.062l-0.519,0.499l-0.217,0.217l-0.217,0.217c-0.369,0.379-0.715,0.739-1.095,1.118l-0.184,0.173l-0.565,0.563
		l-1.193,1.204c-39.587,31.975-61.934,78.98-61.401,129.127c0.064,91.506,74.522,165.932,166.037,165.932
		s165.962-74.426,166.026-165.932c0.542-50.615-21.621-97.423-60.913-128.65c-0.152-0.152-0.305-0.305-0.435-0.434
		c-0.325-0.326-0.63-0.618-0.738-0.739l-0.444-0.476l-0.4-0.39l-0.349-0.349c-0.435-0.421-0.933-0.933-1.669-1.648l-0.735-0.695
		l-0.804-0.627c-2.258-1.78-3.502-4.12-3.502-6.604c0-1.865,0.935-4.303,2.525-6.615c1.767-2.015,4.554-3.208,7.537-3.208
		c2.272,0,4.432,0.715,6.104,1.994c2.275,1.898,5.521,4.652,8.103,7.232l0.542,0.555l0.597,0.509
		c41.31,35.326,65.025,86.548,65.025,140.524C405.565,381.338,321.913,464.98,219.099,464.98z"/>
	
		<linearGradient id="SVGID_23_" gradientUnits="userSpaceOnUse" x1="180.6752" y1="-188.1627" x2="593.5292" y2="-188.1627" gradientTransform="matrix(1 0 0 -1 -168 108.1014)">
		<stop  offset="0.2" style="stop-color:#33DAFF"/>
		<stop  offset="0.2005" style="stop-color:#33DAFE"/>
		<stop  offset="0.232" style="stop-color:#23DED5"/>
		<stop  offset="0.264" style="stop-color:#17E1B3"/>
		<stop  offset="0.2966" style="stop-color:#0DE398"/>
		<stop  offset="0.3297" style="stop-color:#06E585"/>
		<stop  offset="0.3638" style="stop-color:#01E67A"/>
		<stop  offset="0.4" style="stop-color:#00E676"/>
		<stop  offset="0.6" style="stop-color:#EFFF48"/>
		<stop  offset="0.8" style="stop-color:#FF23C0"/>
	</linearGradient>
	<path display="inline" fill="url(#SVGID_23_)" d="M353.509,122.798c-3.038-3.045-6.571-6.072-9.629-8.629
		c-0.613-0.489-1.246-0.941-1.887-1.374c-0.112-0.076-0.227-0.154-0.337-0.228c-0.616-0.403-1.245-0.779-1.884-1.13
		c-0.133-0.072-0.264-0.141-0.395-0.211c-0.655-0.348-1.316-0.675-1.992-0.97c-0.075-0.033-0.15-0.062-0.229-0.095
		c-0.668-0.286-1.347-0.546-2.029-0.781c-0.072-0.025-0.144-0.053-0.216-0.077c-0.706-0.236-1.42-0.441-2.141-0.624
		c-0.121-0.031-0.243-0.063-0.366-0.092c-0.713-0.172-1.435-0.32-2.153-0.439c-0.104-0.017-0.208-0.031-0.313-0.047
		c-1.5-0.233-3.016-0.354-4.524-0.364c-0.135-0.001-0.271-0.004-0.405-0.004c-0.354,0.002-0.708,0.014-1.062,0.028
		c-0.17,0.007-0.341,0.009-0.513,0.021c-0.451,0.026-0.904,0.063-1.355,0.108c-0.068,0.007-0.136,0.01-0.204,0.018
		c-0.509,0.054-1.016,0.124-1.521,0.203c-0.195,0.031-0.393,0.07-0.586,0.104c-0.313,0.056-0.628,0.112-0.938,0.177
		c-0.226,0.047-0.45,0.102-0.675,0.154c-0.279,0.065-0.561,0.131-0.835,0.204c-0.233,0.061-0.466,0.127-0.698,0.194
		c-0.268,0.077-0.534,0.157-0.8,0.242c-0.232,0.074-0.463,0.149-0.693,0.228c-0.266,0.092-0.527,0.189-0.794,0.288
		c-0.223,0.083-0.446,0.166-0.667,0.255c-0.28,0.113-0.558,0.234-0.834,0.356c-0.198,0.086-0.396,0.169-0.593,0.26
		c-0.379,0.176-0.753,0.363-1.125,0.555c-0.121,0.063-0.243,0.123-0.363,0.187c-0.423,0.226-0.841,0.462-1.254,0.709
		c-0.152,0.091-0.3,0.189-0.45,0.283c-0.298,0.186-0.595,0.374-0.887,0.57c-0.163,0.11-0.322,0.225-0.483,0.338
		c-0.272,0.194-0.548,0.39-0.813,0.594c-0.16,0.122-0.317,0.246-0.478,0.37c-0.266,0.21-0.528,0.426-0.787,0.646
		c-0.15,0.127-0.299,0.255-0.447,0.386c-0.264,0.234-0.523,0.476-0.779,0.721c-0.133,0.127-0.268,0.253-0.399,0.383
		c-0.276,0.274-0.544,0.558-0.811,0.844c-0.104,0.112-0.21,0.22-0.313,0.333c-0.364,0.406-0.721,0.822-1.065,1.252
		c-4.055,5.584-6.614,12.178-6.614,18.77c0,8.622,4.031,16.731,11.145,22.305c1.055,1.018,1.526,1.54,2.051,2.038
		c0.479,0.509,1.529,1.529,2.526,2.549c35.003,27.378,54.789,68.972,54.271,113.599c0,80.647-65.418,146.088-146.066,146.088
		c-80.628,0-146.077-65.438-146.077-146.088c-0.519-44.627,19.779-86.221,54.779-114.131c1.02-0.997,2.038-2.017,2.536-2.516
		c0.521-0.522,1.021-1.021,1.519-1.54l0.509-0.499c7.113-5.075,11.158-13.684,11.158-22.305
		c-0.499-16.243-14.203-29.439-30.426-29.439c-6.591,0-13.705,2.539-18.78,6.594c-3.045,2.557-6.571,5.584-9.628,8.629
		c-46.168,39.058-72.017,95.875-72.017,155.706c0,113.633,92.294,206.449,206.427,206.449c113.613,0,206.427-92.295,206.427-206.449
		C425.525,218.672,399.178,161.855,353.509,122.798z M219.099,464.98c-102.825,0-186.478-83.646-186.478-186.479
		c0-54.356,23.682-105.545,64.971-140.459l0.628-0.542l0.599-0.586c2.493-2.492,5.605-5.161,8.077-7.242
		c1.604-1.214,4.228-2.115,6.201-2.115c5.4,0,10.106,4.435,10.453,9.748c-0.085,2.298-1.204,4.641-2.774,5.77l-1.237,0.868
		l-1.085,1.062l-0.519,0.499l-0.217,0.217l-0.217,0.217c-0.369,0.379-0.715,0.739-1.095,1.118l-0.184,0.173l-0.565,0.563
		l-1.193,1.204c-39.587,31.975-61.934,78.98-61.401,129.127c0.064,91.506,74.522,165.932,166.037,165.932
		s165.962-74.426,166.026-165.932c0.542-50.615-21.621-97.423-60.913-128.65c-0.152-0.152-0.305-0.305-0.435-0.434
		c-0.325-0.326-0.63-0.618-0.738-0.739l-0.444-0.476l-0.4-0.39l-0.349-0.349c-0.435-0.421-0.933-0.933-1.669-1.648l-0.735-0.695
		l-0.804-0.627c-2.258-1.78-3.502-4.12-3.502-6.604c0-1.865,0.935-4.303,2.525-6.615c1.767-2.015,4.554-3.208,7.537-3.208
		c2.272,0,4.432,0.715,6.104,1.994c2.275,1.898,5.521,4.652,8.103,7.232l0.542,0.555l0.597,0.509
		c41.31,35.326,65.025,86.548,65.025,140.524C405.565,381.338,321.913,464.98,219.099,464.98z"/>
	<path display="inline" fill="#FFFFFF" d="M218.599,237.951c16.742,0,29.948-13.705,29.948-29.938V67.001
		c0-16.742-13.206-29.904-29.948-29.904c-16.742,0-29.938,13.684-29.938,29.904v141.012
		C188.662,224.745,202.367,237.951,218.599,237.951z M208.635,67.001c0-5.486,4.468-9.954,9.964-9.954
		c5.683,0,9.976,4.282,9.976,9.954v141.012c0,5.499-4.469,9.964-9.976,9.964c-5.496,0-9.964-4.466-9.964-9.964V67.001z"/>
	
		<linearGradient id="SVGID_24_" gradientUnits="userSpaceOnUse" x1="180.6713" y1="-29.4229" x2="593.5253" y2="-29.4229" gradientTransform="matrix(1 0 0 -1 -168 108.1014)">
		<stop  offset="0.2" style="stop-color:#33DAFF"/>
		<stop  offset="0.2005" style="stop-color:#33DAFE"/>
		<stop  offset="0.232" style="stop-color:#23DED5"/>
		<stop  offset="0.264" style="stop-color:#17E1B3"/>
		<stop  offset="0.2966" style="stop-color:#0DE398"/>
		<stop  offset="0.3297" style="stop-color:#06E585"/>
		<stop  offset="0.3638" style="stop-color:#01E67A"/>
		<stop  offset="0.4" style="stop-color:#00E676"/>
		<stop  offset="0.6" style="stop-color:#EFFF48"/>
		<stop  offset="0.8" style="stop-color:#FF23C0"/>
	</linearGradient>
	<path display="inline" fill="url(#SVGID_24_)" d="M218.599,237.951c16.742,0,29.948-13.705,29.948-29.938V67.001
		c0-16.742-13.206-29.904-29.948-29.904c-16.742,0-29.938,13.684-29.938,29.904v141.012
		C188.662,224.745,202.367,237.951,218.599,237.951z M208.635,67.001c0-5.486,4.468-9.954,9.964-9.954
		c5.683,0,9.976,4.282,9.976,9.954v141.012c0,5.499-4.469,9.964-9.976,9.964c-5.496,0-9.964-4.466-9.964-9.964V67.001z"/>
</g>
<g>
	<path fill="#FFFFFF" d="M114.722,112.907c-6.378,0-13.258,2.446-18.172,6.377c-2.948,2.464-6.361,5.396-9.308,8.343
		c-44.689,37.791-69.705,92.772-69.705,150.682c0,109.963,89.323,199.783,199.765,199.783c109.943,0,199.767-89.322,199.767-199.783
		c0-57.91-25.498-112.891-69.687-150.682c-2.949-2.946-6.362-5.878-9.327-8.343c-12.275-9.812-30.93-7.844-40.722,4.412
		c-3.93,5.415-6.413,11.792-6.413,18.175c0,8.341,3.912,16.187,10.791,21.583c1.02,0.98,1.482,1.481,1.984,1.963
		c0.462,0.5,1.481,1.483,2.448,2.468c33.859,26.496,53.015,66.753,52.514,109.939c0,78.049-63.306,141.373-141.354,141.373
		c-78.029,0-141.354-63.324-141.354-141.373c-0.5-43.188,19.137-83.444,53.014-110.44c0.985-0.983,1.965-1.968,2.449-2.45
		c0.5-0.501,0.982-0.983,1.465-1.481l0.501-0.484c6.879-4.912,10.792-13.241,10.792-21.585
		C143.686,125.661,130.429,112.907,114.722,112.907z M216.82,44.683c-16.206,0-28.964,13.259-28.964,28.947v136.458
		c0,16.189,13.259,28.961,28.964,28.961c16.206,0,28.982-13.257,28.982-28.961V73.63C245.802,57.441,233.025,44.683,216.82,44.683z"
		/>
	
		<linearGradient id="SVGID_25_" gradientUnits="userSpaceOnUse" x1="2357.3599" y1="0.3246" x2="2358.3599" y2="0.3246" gradientTransform="matrix(414.0225 0 0 414.0225 -975989.75 126.791)">
		<stop  offset="0" style="stop-color:#33DAFF"/>
		<stop  offset="0.2" style="stop-color:#33DAFF"/>
		<stop  offset="0.2005" style="stop-color:#33DAFE"/>
		<stop  offset="0.232" style="stop-color:#23DED5"/>
		<stop  offset="0.264" style="stop-color:#17E1B3"/>
		<stop  offset="0.2966" style="stop-color:#0DE398"/>
		<stop  offset="0.3297" style="stop-color:#06E585"/>
		<stop  offset="0.3638" style="stop-color:#01E67A"/>
		<stop  offset="0.4" style="stop-color:#00E676"/>
		<stop  offset="0.6" style="stop-color:#EFFF48"/>
		<stop  offset="0.8" style="stop-color:#FF23C0"/>
		<stop  offset="1" style="stop-color:#FF23C0"/>
	</linearGradient>
	<path fill="url(#SVGID_25_)" d="M217.302,485.339c-114.146,0-207.011-92.875-207.011-207.03
		c0-60.336,26.256-117.188,72.045-156.022c3.183-3.159,6.774-6.227,9.564-8.561c6.356-5.085,14.841-8.064,22.822-8.064
		c19.629,0,36.088,15.925,36.688,35.501c0.003,10.881-5.104,21.231-13.362,27.367l-0.051,0.051c-0.401,0.415-0.804,0.816-1.214,1.23
		l-3.305,3.241c-32.428,25.842-50.756,64-50.285,104.69c0,74.043,60.16,134.21,134.108,134.21
		c73.948,0,134.108-60.167,134.108-134.126c0.477-41.165-17.649-79.127-49.732-104.234l-0.705-0.63l-1.176-1.179
		c-0.503-0.5-0.948-0.946-1.259-1.273c-0.206-0.2-0.41-0.406-0.647-0.643c-0.255-0.256-0.555-0.561-0.962-0.958
		c-8.429-6.756-13.255-16.591-13.255-27.037c0-7.542,2.769-15.505,7.797-22.43l0.202-0.264c6.792-8.504,17.109-13.379,28.307-13.379
		c8.259,0,16.285,2.778,22.6,7.826c2.658,2.207,6.408,5.386,9.724,8.677c45.769,39.248,72.013,96.094,72.013,156.008
		C424.314,392.464,331.449,485.339,217.302,485.339z M114.722,120.151c-4.654,0-10.01,1.881-13.646,4.791
		c-2.502,2.093-5.879,4.978-8.713,7.809l-0.444,0.408c-42.666,36.083-67.136,88.985-67.136,145.149
		c0,106.166,86.364,192.539,192.52,192.539c106.157,0,192.52-86.373,192.52-192.539c0-55.765-24.476-108.68-67.149-145.174
		l-0.413-0.383c-2.94-2.938-6.451-5.912-8.836-7.894c-3.648-2.916-8.461-4.57-13.443-4.57c-6.712,0-12.854,2.843-16.882,7.805
		c-3.182,4.432-4.932,9.319-4.932,13.778c0,6.097,2.923,11.882,8.018,15.882l0.555,0.482c0.645,0.622,1.086,1.067,1.451,1.432
		l0.82,0.827c0.218,0.232,0.585,0.597,1.006,1.014l0.946,0.948c35.449,27.915,55.468,69.969,54.94,115.458
		c0,81.861-66.661,148.532-148.6,148.532s-148.6-66.671-148.6-148.619c-0.521-44.973,19.673-87.204,55.421-115.849l2.395-2.395
		c0.386-0.389,0.765-0.769,1.143-1.16l1.504-1.35c4.786-3.417,7.759-9.429,7.759-15.688
		C136.563,129.775,126.602,120.151,114.722,120.151z M216.82,246.296c-19.965,0-36.208-16.244-36.208-36.208V73.63
		c0-19.956,16.244-36.192,36.208-36.192c20.315,0,36.229,15.896,36.229,36.192v136.458
		C253.049,230.052,236.796,246.296,216.82,246.296z M216.82,51.929c-11.976,0-21.717,9.736-21.717,21.701v136.458
		c0,11.973,9.742,21.717,21.717,21.717c11.986,0,21.738-9.744,21.738-21.717V73.63C238.557,61.463,229.01,51.929,216.82,51.929z"/>
</g>
</svg>
