<?xml version="1.0" encoding="utf-8"?>
<!-- Generator: Adobe Illustrator 16.0.0, SVG Export Plug-In . SVG Version: 6.00 Build 0)  -->
<!DOCTYPE svg PUBLIC "-//W3C//DTD SVG 1.1//EN" "http://www.w3.org/Graphics/SVG/1.1/DTD/svg11.dtd">
<svg version="1.1" id="Layer_1" xmlns="http://www.w3.org/2000/svg" xmlns:xlink="http://www.w3.org/1999/xlink" x="0px" y="0px"
	 width="24px" height="24px" viewBox="0 0 24 24" enable-background="new 0 0 24 24" xml:space="preserve">
<g>
	<path fill="#FFFFFF" d="M11.974,9.973c0.441,0,0.798-0.358,0.798-0.797V1.661c0-0.454-0.343-0.795-0.798-0.795
		c-0.439,0-0.797,0.356-0.797,0.795v7.515C11.176,9.615,11.534,9.973,11.974,9.973z"/>
	<path fill="#FFFFFF" d="M17.384,3.86c0.063-0.01,0.126-0.017,0.189-0.02C17.51,3.843,17.447,3.85,17.384,3.86z"/>
	<path fill="#FFFFFF" d="M17.696,3.838c0.151,0.004,0.303,0.027,0.448,0.074C17.998,3.865,17.849,3.842,17.696,3.838z"/>
	<path fill="#FFFFFF" d="M18.219,3.94c0.152,0.057,0.3,0.13,0.431,0.235C18.518,4.07,18.371,3.997,18.219,3.94z"/>
	<path fill="#FFFFFF" d="M18.646,5.241l-0.023-0.02l-0.023-0.022c-0.146-0.146-0.327-0.3-0.452-0.404
		c-0.136-0.107-0.31-0.166-0.492-0.166c-0.241,0-0.468,0.102-0.613,0.273c-0.119,0.171-0.189,0.359-0.189,0.517
		c0,0.215,0.103,0.414,0.29,0.56l0.031,0.025l0.029,0.027c0.036,0.037,0.063,0.063,0.085,0.084c0.008,0.009,0.016,0.015,0.021,0.023
		l0.02,0.017l0.015,0.018c0.01,0.01,0.029,0.027,0.049,0.047c0.01,0.011,0.021,0.022,0.033,0.033
		c2.037,1.614,3.186,4.037,3.157,6.655c-0.002,4.73-3.853,8.578-8.582,8.578c-4.73,0-8.579-3.848-8.582-8.578
		c-0.03-2.595,1.131-5.027,3.183-6.681l0.075-0.075l0.029-0.029l0.009-0.01c0.021-0.021,0.041-0.041,0.062-0.062l0.009-0.009
		l0.009-0.008l0.028-0.027l0.043-0.042l0.049-0.036c0.155-0.11,0.256-0.315,0.259-0.526C7.155,4.979,6.78,4.622,6.352,4.622
		c-0.167,0-0.364,0.069-0.497,0.171C5.718,4.909,5.544,5.058,5.402,5.199L5.379,5.222L5.354,5.244
		c-2.26,1.911-3.556,4.712-3.556,7.688c0,5.625,4.576,10.202,10.202,10.202c5.625,0,10.203-4.577,10.203-10.202
		C22.203,9.978,20.904,7.175,18.646,5.241z"/>
	<path fill="#FFFFFF" d="M17.059,3.951c0.061-0.024,0.123-0.046,0.187-0.063C17.181,3.904,17.119,3.926,17.059,3.951z"/>
	<path fill="#FFFFFF" d="M16.742,4.118c0.063-0.043,0.126-0.083,0.192-0.117C16.867,4.034,16.805,4.075,16.742,4.118z"/>
	<path fill="#FFFFFF" d="M16.407,4.418c0.073-0.091,0.156-0.17,0.245-0.241C16.563,4.248,16.48,4.327,16.407,4.418z"/>
	<linearGradient id="SVGID_1_" gradientUnits="userSpaceOnUse" x1="1" y1="4.1475" x2="23" y2="4.1475">
		<stop  offset="0.2" style="stop-color:#33DAFF"/>
		<stop  offset="0.2005" style="stop-color:#33DAFE"/>
		<stop  offset="0.232" style="stop-color:#23DED5"/>
		<stop  offset="0.264" style="stop-color:#17E1B3"/>
		<stop  offset="0.2966" style="stop-color:#0DE398"/>
		<stop  offset="0.3297" style="stop-color:#06E585"/>
		<stop  offset="0.3638" style="stop-color:#01E67A"/>
		<stop  offset="0.4" style="stop-color:#00E676"/>
		<stop  offset="0.6" style="stop-color:#EFFF48"/>
		<stop  offset="0.8" style="stop-color:#FF23C0"/>
	</linearGradient>
	<path fill="url(#SVGID_1_)" d="M16.652,4.177c0.028-0.022,0.061-0.04,0.09-0.06C16.713,4.138,16.681,4.155,16.652,4.177z"/>
	<linearGradient id="SVGID_2_" gradientUnits="userSpaceOnUse" x1="1" y1="3.874" x2="23" y2="3.874">
		<stop  offset="0.2" style="stop-color:#33DAFF"/>
		<stop  offset="0.2005" style="stop-color:#33DAFE"/>
		<stop  offset="0.232" style="stop-color:#23DED5"/>
		<stop  offset="0.264" style="stop-color:#17E1B3"/>
		<stop  offset="0.2966" style="stop-color:#0DE398"/>
		<stop  offset="0.3297" style="stop-color:#06E585"/>
		<stop  offset="0.3638" style="stop-color:#01E67A"/>
		<stop  offset="0.4" style="stop-color:#00E676"/>
		<stop  offset="0.6" style="stop-color:#EFFF48"/>
		<stop  offset="0.8" style="stop-color:#FF23C0"/>
	</linearGradient>
	<path fill="url(#SVGID_2_)" d="M17.245,3.888c0.046-0.012,0.092-0.021,0.139-0.028C17.337,3.868,17.291,3.876,17.245,3.888z"/>
	<linearGradient id="SVGID_3_" gradientUnits="userSpaceOnUse" x1="1" y1="3.8354" x2="23" y2="3.8354">
		<stop  offset="0.2" style="stop-color:#33DAFF"/>
		<stop  offset="0.2005" style="stop-color:#33DAFE"/>
		<stop  offset="0.232" style="stop-color:#23DED5"/>
		<stop  offset="0.264" style="stop-color:#17E1B3"/>
		<stop  offset="0.2966" style="stop-color:#0DE398"/>
		<stop  offset="0.3297" style="stop-color:#06E585"/>
		<stop  offset="0.3638" style="stop-color:#01E67A"/>
		<stop  offset="0.4" style="stop-color:#00E676"/>
		<stop  offset="0.6" style="stop-color:#EFFF48"/>
		<stop  offset="0.8" style="stop-color:#FF23C0"/>
	</linearGradient>
	<path fill="url(#SVGID_3_)" d="M17.654,3.831c-0.027,0-0.054,0.007-0.081,0.009c0.041-0.002,0.082-0.003,0.123-0.002
		C17.683,3.837,17.669,3.831,17.654,3.831z"/>
	<linearGradient id="SVGID_4_" gradientUnits="userSpaceOnUse" x1="1" y1="3.9258" x2="23" y2="3.9258">
		<stop  offset="0.2" style="stop-color:#33DAFF"/>
		<stop  offset="0.2005" style="stop-color:#33DAFE"/>
		<stop  offset="0.232" style="stop-color:#23DED5"/>
		<stop  offset="0.264" style="stop-color:#17E1B3"/>
		<stop  offset="0.2966" style="stop-color:#0DE398"/>
		<stop  offset="0.3297" style="stop-color:#06E585"/>
		<stop  offset="0.3638" style="stop-color:#01E67A"/>
		<stop  offset="0.4" style="stop-color:#00E676"/>
		<stop  offset="0.6" style="stop-color:#EFFF48"/>
		<stop  offset="0.8" style="stop-color:#FF23C0"/>
	</linearGradient>
	<path fill="url(#SVGID_4_)" d="M18.145,3.912c0.025,0.008,0.05,0.02,0.074,0.029C18.193,3.931,18.17,3.919,18.145,3.912z"/>
	<linearGradient id="SVGID_5_" gradientUnits="userSpaceOnUse" x1="1" y1="3.9756" x2="23" y2="3.9756">
		<stop  offset="0.2" style="stop-color:#33DAFF"/>
		<stop  offset="0.2005" style="stop-color:#33DAFE"/>
		<stop  offset="0.232" style="stop-color:#23DED5"/>
		<stop  offset="0.264" style="stop-color:#17E1B3"/>
		<stop  offset="0.2966" style="stop-color:#0DE398"/>
		<stop  offset="0.3297" style="stop-color:#06E585"/>
		<stop  offset="0.3638" style="stop-color:#01E67A"/>
		<stop  offset="0.4" style="stop-color:#00E676"/>
		<stop  offset="0.6" style="stop-color:#EFFF48"/>
		<stop  offset="0.8" style="stop-color:#FF23C0"/>
	</linearGradient>
	<path fill="url(#SVGID_5_)" d="M16.935,4.001c0.04-0.02,0.082-0.034,0.124-0.05C17.017,3.967,16.975,3.981,16.935,4.001z"/>
	<path fill="#FFFFFF" d="M19.164,4.635c-0.163-0.162-0.351-0.324-0.515-0.459c-0.131-0.105-0.278-0.178-0.431-0.235
		c-0.024-0.009-0.049-0.021-0.074-0.029c-0.146-0.046-0.297-0.07-0.448-0.074c-0.041-0.001-0.082,0-0.123,0.002
		c-0.063,0.003-0.127,0.01-0.189,0.02c-0.047,0.008-0.093,0.017-0.139,0.028c-0.063,0.016-0.126,0.039-0.187,0.063
		c-0.042,0.016-0.084,0.031-0.124,0.05c-0.066,0.033-0.13,0.074-0.192,0.117c-0.029,0.02-0.062,0.037-0.09,0.06
		c-0.089,0.07-0.172,0.149-0.245,0.241c-0.217,0.298-0.353,0.649-0.353,1.001c0,0.458,0.215,0.891,0.594,1.188
		c0.055,0.054,0.081,0.082,0.108,0.108c0.025,0.027,0.081,0.081,0.136,0.135c1.865,1.459,2.919,3.676,2.892,6.054
		c0,4.299-3.485,7.784-7.784,7.784c-4.296,0-7.784-3.485-7.784-7.784C4.188,10.527,5.271,8.31,7.136,6.824
		C7.19,6.77,7.244,6.716,7.271,6.689c0.028-0.028,0.054-0.055,0.081-0.082l0.028-0.027c0.378-0.27,0.594-0.729,0.594-1.188
		C7.947,4.526,7.216,3.824,6.352,3.824C6,3.824,5.622,3.958,5.351,4.175C5.189,4.311,5.001,4.473,4.838,4.635
		C2.377,6.716,1,9.743,1,12.933c0,6.055,4.918,11,11,11c6.054,0,11-4.918,11-11C23,9.743,21.596,6.716,19.164,4.635z M12,23.135
		c-5.626,0-10.202-4.577-10.202-10.202c0-2.976,1.296-5.777,3.556-7.688l0.025-0.022l0.023-0.023
		c0.142-0.141,0.315-0.291,0.453-0.406c0.132-0.103,0.33-0.171,0.497-0.171c0.429,0,0.803,0.356,0.823,0.783
		C7.171,5.615,7.07,5.821,6.916,5.931L6.866,5.966L6.823,6.008L6.795,6.035L6.786,6.043L6.777,6.053
		c-0.021,0.021-0.04,0.041-0.062,0.062l-0.009,0.01L6.677,6.154L6.602,6.229c-2.052,1.653-3.213,4.085-3.183,6.681
		c0.002,4.73,3.852,8.578,8.582,8.578c4.729,0,8.58-3.848,8.582-8.578c0.028-2.618-1.12-5.042-3.157-6.655
		c-0.012-0.011-0.023-0.022-0.033-0.033c-0.02-0.02-0.039-0.037-0.049-0.047l-0.015-0.018l-0.02-0.017
		c-0.006-0.008-0.014-0.014-0.021-0.023c-0.021-0.021-0.049-0.047-0.085-0.084l-0.029-0.027l-0.031-0.025
		c-0.188-0.146-0.29-0.345-0.29-0.56c0-0.157,0.07-0.346,0.189-0.517c0.146-0.171,0.372-0.273,0.613-0.273
		c0.183,0,0.356,0.059,0.492,0.166c0.125,0.104,0.307,0.259,0.452,0.404l0.023,0.022l0.023,0.02
		c2.259,1.934,3.558,4.737,3.558,7.691C22.203,18.558,17.626,23.135,12,23.135z"/>
	<linearGradient id="SVGID_6_" gradientUnits="userSpaceOnUse" x1="1" y1="13.8779" x2="23" y2="13.8779">
		<stop  offset="0.2" style="stop-color:#33DAFF"/>
		<stop  offset="0.2005" style="stop-color:#33DAFE"/>
		<stop  offset="0.232" style="stop-color:#23DED5"/>
		<stop  offset="0.264" style="stop-color:#17E1B3"/>
		<stop  offset="0.2966" style="stop-color:#0DE398"/>
		<stop  offset="0.3297" style="stop-color:#06E585"/>
		<stop  offset="0.3638" style="stop-color:#01E67A"/>
		<stop  offset="0.4" style="stop-color:#00E676"/>
		<stop  offset="0.6" style="stop-color:#EFFF48"/>
		<stop  offset="0.8" style="stop-color:#FF23C0"/>
	</linearGradient>
	<path fill="url(#SVGID_6_)" d="M19.164,4.635c-0.163-0.162-0.351-0.324-0.515-0.459c-0.131-0.105-0.278-0.178-0.431-0.235
		c-0.024-0.009-0.049-0.021-0.074-0.029c-0.146-0.046-0.297-0.07-0.448-0.074c-0.041-0.001-0.082,0-0.123,0.002
		c-0.063,0.003-0.127,0.01-0.189,0.02c-0.047,0.008-0.093,0.017-0.139,0.028c-0.063,0.016-0.126,0.039-0.187,0.063
		c-0.042,0.016-0.084,0.031-0.124,0.05c-0.066,0.033-0.13,0.074-0.192,0.117c-0.029,0.02-0.062,0.037-0.09,0.06
		c-0.089,0.07-0.172,0.149-0.245,0.241c-0.217,0.298-0.353,0.649-0.353,1.001c0,0.458,0.215,0.891,0.594,1.188
		c0.055,0.054,0.081,0.082,0.108,0.108c0.025,0.027,0.081,0.081,0.136,0.135c1.865,1.459,2.919,3.676,2.892,6.054
		c0,4.299-3.485,7.784-7.784,7.784c-4.296,0-7.784-3.485-7.784-7.784C4.188,10.527,5.271,8.31,7.136,6.824
		C7.19,6.77,7.244,6.716,7.271,6.689c0.028-0.028,0.054-0.055,0.081-0.082l0.028-0.027c0.378-0.27,0.594-0.729,0.594-1.188
		C7.947,4.526,7.216,3.824,6.352,3.824C6,3.824,5.622,3.958,5.351,4.175C5.189,4.311,5.001,4.473,4.838,4.635
		C2.377,6.716,1,9.743,1,12.933c0,6.055,4.918,11,11,11c6.054,0,11-4.918,11-11C23,9.743,21.596,6.716,19.164,4.635z M12,23.135
		c-5.626,0-10.202-4.577-10.202-10.202c0-2.976,1.296-5.777,3.556-7.688l0.025-0.022l0.023-0.023
		c0.142-0.141,0.315-0.291,0.453-0.406c0.132-0.103,0.33-0.171,0.497-0.171c0.429,0,0.803,0.356,0.823,0.783
		C7.171,5.615,7.07,5.821,6.916,5.931L6.866,5.966L6.823,6.008L6.795,6.035L6.786,6.043L6.777,6.053
		c-0.021,0.021-0.04,0.041-0.062,0.062l-0.009,0.01L6.677,6.154L6.602,6.229c-2.052,1.653-3.213,4.085-3.183,6.681
		c0.002,4.73,3.852,8.578,8.582,8.578c4.729,0,8.58-3.848,8.582-8.578c0.028-2.618-1.12-5.042-3.157-6.655
		c-0.012-0.011-0.023-0.022-0.033-0.033c-0.02-0.02-0.039-0.037-0.049-0.047l-0.015-0.018l-0.02-0.017
		c-0.006-0.008-0.014-0.014-0.021-0.023c-0.021-0.021-0.049-0.047-0.085-0.084l-0.029-0.027l-0.031-0.025
		c-0.188-0.146-0.29-0.345-0.29-0.56c0-0.157,0.07-0.346,0.189-0.517c0.146-0.171,0.372-0.273,0.613-0.273
		c0.183,0,0.356,0.059,0.492,0.166c0.125,0.104,0.307,0.259,0.452,0.404l0.023,0.022l0.023,0.02
		c2.259,1.934,3.558,4.737,3.558,7.691C22.203,18.558,17.626,23.135,12,23.135z"/>
	<path fill="#FFFFFF" d="M11.974,10.771c0.891,0,1.596-0.73,1.596-1.595V1.661c0-0.892-0.705-1.594-1.596-1.594
		c-0.892,0-1.595,0.73-1.595,1.594v7.515C10.379,10.066,11.109,10.771,11.974,10.771z M11.176,1.661
		c0-0.439,0.358-0.795,0.797-0.795c0.455,0,0.798,0.342,0.798,0.795v7.515c0,0.439-0.357,0.797-0.798,0.797
		c-0.439,0-0.797-0.358-0.797-0.797V1.661z"/>
	<linearGradient id="SVGID_7_" gradientUnits="userSpaceOnUse" x1="1" y1="5.4189" x2="23" y2="5.4189">
		<stop  offset="0.2" style="stop-color:#33DAFF"/>
		<stop  offset="0.2005" style="stop-color:#33DAFE"/>
		<stop  offset="0.232" style="stop-color:#23DED5"/>
		<stop  offset="0.264" style="stop-color:#17E1B3"/>
		<stop  offset="0.2966" style="stop-color:#0DE398"/>
		<stop  offset="0.3297" style="stop-color:#06E585"/>
		<stop  offset="0.3638" style="stop-color:#01E67A"/>
		<stop  offset="0.4" style="stop-color:#00E676"/>
		<stop  offset="0.6" style="stop-color:#EFFF48"/>
		<stop  offset="0.8" style="stop-color:#FF23C0"/>
	</linearGradient>
	<path fill="url(#SVGID_7_)" d="M11.974,10.771c0.891,0,1.596-0.73,1.596-1.595V1.661c0-0.892-0.705-1.594-1.596-1.594
		c-0.892,0-1.595,0.73-1.595,1.594v7.515C10.379,10.066,11.109,10.771,11.974,10.771z M11.176,1.661
		c0-0.439,0.358-0.795,0.797-0.795c0.455,0,0.798,0.342,0.798,0.795v7.515c0,0.439-0.357,0.797-0.798,0.797
		c-0.439,0-0.797-0.358-0.797-0.797V1.661z"/>
</g>
</svg>
