<?xml version="1.0" encoding="utf-8"?>
<!-- Generator: Adobe Illustrator 16.0.0, SVG Export Plug-In . SVG Version: 6.00 Build 0)  -->
<!DOCTYPE svg PUBLIC "-//W3C//DTD SVG 1.1//EN" "http://www.w3.org/Graphics/SVG/1.1/DTD/svg11.dtd">
<svg version="1.1" id="Layer_1" xmlns="http://www.w3.org/2000/svg" xmlns:xlink="http://www.w3.org/1999/xlink" x="0px" y="0px"
	 width="2859.075px" height="522.051px" viewBox="0 0 2859.075 522.051" enable-background="new 0 0 2859.075 522.051"
	 xml:space="preserve">
<g id="SvgjsG6126_10_" transform="matrix(2.0473127365112305,0,0,2.0473127365112305,54.75527082849162,52.92085051039325)">
	<g transform="translate(-333 -77)">
	</g>
</g>
<g>
	<path fill="none" d="M1800.999,248.696c-15.227,0-26.345,6.083-33.286,18.249c-6.965,12.176-10.427,27.886-10.427,47.143v4.204
		c0,19.8,3.462,35.679,10.427,47.635c6.941,11.977,18.186,17.954,33.706,17.954c15.103,0,26.177-6.02,33.183-18.05
		c7.025-12.028,10.529-27.875,10.529-47.539v-4.204c0-19.257-3.545-34.967-10.634-47.143
		C1827.407,254.778,1816.249,248.696,1800.999,248.696z"/>
	<path fill="none" d="M1600.185,245.288c8.431-6.419,12.647-15.774,12.647-28.077c0-13.508-4.258-23.471-12.731-29.889
		c-8.516-6.417-21.164-9.627-38.028-9.627h-40.104v77.22h42.117C1579.735,254.914,1591.774,251.705,1600.185,245.288z"/>
	<path fill="none" d="M1580.342,295.429h-58.373v84.235h53.948c15.521,0,27.353-3.366,35.512-10.12
		c8.158-6.755,12.227-16.749,12.227-29.984c0-14.305-3.481-25.243-10.423-32.794
		C1606.268,299.204,1595.298,295.429,1580.342,295.429z"/>
	<path fill="none" d="M932.333,248.696c-15.228,0-26.334,6.083-33.287,18.249c-6.964,12.176-10.424,27.886-10.424,47.143v4.204
		c0,19.8,3.46,35.679,10.424,47.635c6.953,11.977,18.185,17.954,33.697,17.954c15.112,0,26.177-6.02,33.193-18.05
		c7.026-12.028,10.529-27.875,10.529-47.539v-4.204c0-19.257-3.544-34.967-10.634-47.143
		C958.741,254.778,947.581,248.696,932.333,248.696z"/>
	<path fill="none" d="M2494.542,177.695h-49.355v95.877h49.355c16.297,0,28.63-4.447,37-13.34c8.349-8.893,12.522-20.22,12.522-34
		c0-14.032-4.174-25.632-12.522-34.798C2523.171,182.277,2510.838,177.695,2494.542,177.695z"/>
	<path fill="#FFFFFF" d="M763.21,140.694c-18.185-8.221-38.573-12.332-61.174-12.332c-39.443,0-71.608,13.633-96.474,40.911
		c-24.876,27.278-37.304,62.108-37.304,104.498v9.827c0,42.518,12.49,77.356,37.514,104.498
		c24.992,27.142,57.083,40.713,96.265,40.713c22.601,0,43.02-4.048,61.28-12.123c18.248-8.097,33.256-18.961,45.022-32.607v-57.753
		h-43.533l-5.999,38.909c-5.223,5.746-12.606,10.298-22.17,13.633c-9.565,3.346-20.094,5.013-31.589,5.013
		c-24.877,0-44.132-9.292-57.765-27.876c-13.634-18.583-20.462-42.726-20.462-72.406v-10.235c0-29.681,6.849-53.749,20.557-72.195
		c13.708-18.459,33.266-27.688,58.677-27.688c11.893,0,22.223,1.678,30.98,5.013c8.768,3.356,16.015,7.886,21.772,13.645
		l5.999,38.919h43.533V173.28C796.436,159.782,781.397,148.917,763.21,140.694z"/>
	<path fill="#FFFFFF" d="M932.333,203.568c-31.945,0-56.989,10.331-75.101,30.991c-18.133,20.661-27.184,47.163-27.184,79.528v4.204
		c0,32.638,9.051,59.213,27.184,79.726c18.112,20.536,43.282,30.792,75.511,30.792c31.818,0,56.789-10.256,74.912-30.792
		c18.122-20.513,27.183-47.088,27.183-79.726v-4.204c0-32.503-9.061-59.035-27.183-79.634
		C989.532,213.868,964.425,203.568,932.333,203.568z M976.464,318.291c0,19.664-3.502,35.511-10.529,47.539
		c-7.016,12.03-18.081,18.05-33.193,18.05c-15.512,0-26.744-5.978-33.697-17.954c-6.964-11.956-10.424-27.835-10.424-47.635v-4.204
		c0-19.257,3.46-34.967,10.424-47.143c6.953-12.166,18.059-18.249,33.287-18.249c15.249,0,26.408,6.083,33.498,18.249
		c7.09,12.176,10.634,27.886,10.634,47.143V318.291z"/>
	<polygon fill="#FFFFFF" points="1138.77,207.584 1048.912,207.584 1048.912,242.885 1080.207,248.906 1080.207,383.482 
		1051.933,389.502 1051.933,424.593 1166.855,424.593 1166.855,389.502 1138.77,383.482 	"/>
	<rect x="1080.207" y="111.708" fill="#FFFFFF" width="58.563" height="43.921"/>
	<path fill="#FFFFFF" d="M1393.559,289.01c0-29.407-6.167-51.011-18.458-64.781c-12.312-13.771-29.428-20.661-51.347-20.661
		c-13.109,0-24.94,3.072-35.512,9.229c-10.55,6.157-19.443,14.776-26.659,25.873l-2.622-31.086h-85.646v35.301l31.095,6.021v134.577
		l-28.075,6.02v35.091h110.313v-35.091l-23.66-6.02V267.153c4.132-5.747,9.292-10.193,15.439-13.34
		c6.145-3.146,13.088-4.719,20.848-4.719c11.915,0,20.808,3.042,26.681,9.124c5.894,6.094,8.831,16.423,8.831,30.991v94.273
		l-25.065,6.02v35.091h111.901v-35.091l-28.065-6.02V289.01z"/>
	<path fill="#FFFFFF" d="M1629.467,272.764c13.652-5.337,24.037-13.339,31.188-23.964c7.153-10.633,10.74-22.694,10.74-36.203
		c0-26.606-9.628-46.606-28.884-59.968c-19.254-13.382-46.062-20.073-80.439-20.073h-98.666h-31.085v35.313l31.085,6.009v209.605
		l-31.085,6.02v35.091h143.596c33.832,0,59.967-7.184,78.425-21.552c18.458-14.379,27.688-35.543,27.688-63.481
		c0-16.183-4.383-30.413-13.151-42.727C1660.131,284.532,1646.979,276.509,1629.467,272.764z M1521.969,177.695h40.104
		c16.864,0,29.513,3.21,38.028,9.627c8.474,6.418,12.731,16.381,12.731,29.889c0,12.302-4.217,21.657-12.647,28.077
		c-8.411,6.417-20.45,9.626-36.099,9.626h-42.117V177.695z M1611.429,369.544c-8.159,6.754-19.99,10.12-35.512,10.12h-53.948
		v-84.235h58.373c14.956,0,25.926,3.775,32.891,11.337c6.941,7.551,10.423,18.489,10.423,32.794
		C1623.656,352.795,1619.587,362.789,1611.429,369.544z"/>
	<path fill="#FFFFFF" d="M1800.999,203.568c-31.944,0-56.987,10.331-75.11,30.991c-18.123,20.661-27.164,47.163-27.164,79.528v4.204
		c0,32.638,9.041,59.213,27.164,79.726c18.123,20.536,43.292,30.792,75.53,30.792c31.818,0,56.78-10.256,74.903-30.792
		c18.122-20.513,27.182-47.088,27.182-79.726v-4.204c0-32.503-9.06-59.035-27.182-79.634
		C1858.2,213.868,1833.092,203.568,1800.999,203.568z M1845.131,318.291c0,19.664-3.504,35.511-10.529,47.539
		c-7.006,12.03-18.08,18.05-33.183,18.05c-15.521,0-26.765-5.978-33.706-17.954c-6.965-11.956-10.427-27.835-10.427-47.635v-4.204
		c0-19.257,3.462-34.967,10.427-47.143c6.941-12.166,18.06-18.249,33.286-18.249c15.25,0,26.407,6.083,33.498,18.249
		c7.089,12.176,10.634,27.886,10.634,47.143V318.291z"/>
	<path fill="#FFFFFF" d="M2038.627,382.181c-3,0.337-6.502,0.504-10.508,0.504c-5.895,0-10.572-1.804-14.054-5.411
		c-3.482-3.618-5.224-9.628-5.224-18.059V248.696h38.112v-41.112h-38.112v-53.151h-58.352v53.151h-31.904v41.112h31.904v110.717
		c0,24.069,5.433,41.656,16.339,52.752c10.906,11.105,26.448,16.644,46.627,16.644c7.488,0,14.451-0.503,20.871-1.511
		c6.419-0.985,12.898-2.495,19.443-4.509l-5.013-42.307C2045.024,381.28,2041.647,381.846,2038.627,382.181z"/>
	<polygon fill="#FFFFFF" points="2237.554,167.869 2259.621,171.875 2207.666,347.384 2204.246,363.031 2203.051,363.031 
		2199.443,346.974 2147.697,171.875 2169.952,167.869 2169.952,132.556 2063.251,132.556 2063.251,167.869 2087.332,171.067 
		2173.56,424.593 2233.737,424.593 2319.777,171.067 2344.254,167.869 2344.254,132.556 2237.554,132.556 	"/>
	<path fill="#FFFFFF" d="M2573.661,158.335c-19.34-17.178-45.705-25.779-79.119-25.779h-107.918h-31.084v35.313l31.084,6.009
		v209.605l-31.084,6.02v35.091h120.941v-35.091l-31.295-6.02V318.69h49.355c33.414,0,59.779-8.485,79.119-25.464
		c19.316-16.99,28.965-39.445,28.965-67.393C2602.625,198.02,2592.977,175.523,2573.661,158.335z M2531.542,260.232
		c-8.37,8.893-20.703,13.34-37,13.34h-49.355v-95.877h49.355c16.297,0,28.63,4.583,37,13.739
		c8.349,9.166,12.522,20.766,12.522,34.798C2544.064,240.012,2539.89,251.339,2531.542,260.232z"/>
	<path fill="#FFFFFF" d="M2815.794,290.018c-16.653-14.705-41.089-26.545-73.307-35.512c-22.464-7.079-38.278-13.802-47.446-20.157
		c-9.144-6.334-13.739-14.473-13.739-24.363c0-10.697,4.384-19.413,13.152-26.167c8.747-6.754,21.142-10.132,37.188-10.132
		c10.971,0,21.332,1.196,31.106,3.608c9.754,2.401,17.178,5.213,22.255,8.421l7.613,40.116h43.943v-59.769
		c-12.587-11.37-28.085-20.461-46.543-27.278c-18.46-6.817-38.91-10.237-61.373-10.237c-30.352,0.399-55.564,8.128-75.616,23.178
		c-20.053,15.038-30.078,34.389-30.078,58.059c0,23.933,8.894,42.79,26.659,56.56c17.786,13.771,44.005,25.673,78.637,35.71
		c19.926,6.01,33.854,12.438,41.824,19.255c7.95,6.817,11.914,15.835,11.914,27.069c0,10.958-4.176,19.726-12.524,26.281
		c-8.368,6.554-20.554,9.827-36.601,9.827c-12.438,0-23.702-1.574-33.791-4.721c-10.109-3.135-18.101-7.11-23.975-11.935
		l-6.208-41.509h-45.35V387.3c12.44,12.962,27.981,23.135,46.65,30.477c18.646,7.361,39.536,11.032,62.673,11.032
		c32.365,0,58.437-7.215,78.216-21.668c19.802-14.431,29.681-34.146,29.681-59.16
		C2840.756,324.049,2832.429,304.72,2815.794,290.018z"/>
	<path fill="#FFFFFF" d="M298.235,118.305c0.222-0.083,0.444-0.165,0.667-0.243C298.679,118.14,298.457,118.222,298.235,118.305z"/>
	<path fill="#FFFFFF" d="M301.052,117.411c0.231-0.061,0.464-0.116,0.697-0.17C301.516,117.295,301.283,117.351,301.052,117.411z"/>
	<path fill="#FFFFFF" d="M302.486,117.073c0.242-0.05,0.485-0.093,0.729-0.137C302.972,116.979,302.728,117.022,302.486,117.073z"/>
	<path fill="#FFFFFF" d="M326.195,141.618l-0.43-0.357l-0.388-0.397c-2.601-2.601-5.831-5.35-8.076-7.215
		c-2.433-1.909-5.537-2.949-8.788-2.949c-4.301,0-8.37,1.816-10.938,4.878c-2.15,3.061-3.389,6.408-3.389,9.219
		c0,3.847,1.826,7.393,5.16,10.005l0.567,0.451l0.514,0.493c0.681,0.649,1.143,1.123,1.52,1.5c0.157,0.146,0.272,0.272,0.399,0.408
		l0.314,0.305l0.293,0.315c0.189,0.188,0.504,0.492,0.85,0.839c0.199,0.188,0.388,0.397,0.598,0.587
		c36.371,28.819,56.895,72.069,56.381,118.824c-0.063,84.445-68.767,153.139-153.202,153.139
		c-84.445,0-153.16-68.693-153.202-153.139c-0.524-46.334,20.188-89.763,56.832-119.285l1.332-1.322l0.525-0.524l0.168-0.178
		c0.377-0.368,0.733-0.735,1.101-1.102l0.157-0.168l0.157-0.146l0.493-0.482l0.776-0.756l0.881-0.628
		c2.768-1.972,4.572-5.643,4.635-9.398c-0.356-7.603-7.047-13.969-14.703-13.969c-2.968,0-6.502,1.229-8.862,3.063
		c-2.454,2.055-5.548,4.719-8.086,7.236l-0.409,0.419l-0.452,0.388c-40.345,34.116-63.481,84.13-63.481,137.25
		c0,100.43,81.698,182.147,182.137,182.147c100.429,0,182.127-81.718,182.127-182.147
		C389.708,226.179,366.552,176.133,326.195,141.618z"/>
	<path fill="#FFFFFF" d="M299.635,117.821c0.225-0.071,0.451-0.14,0.678-0.205C300.086,117.682,299.86,117.75,299.635,117.821z"/>
	<path fill="#FFFFFF" d="M295.398,119.543c0.255-0.128,0.508-0.258,0.766-0.378C295.906,119.285,295.653,119.415,295.398,119.543z"
		/>
	<path fill="#FFFFFF" d="M296.847,118.865c0.224-0.097,0.447-0.195,0.673-0.287C297.293,118.67,297.07,118.768,296.847,118.865z"/>
	<path fill="#FFFFFF" d="M293.604,120.52c0.272-0.163,0.55-0.314,0.827-0.467C294.154,120.206,293.876,120.357,293.604,120.52z"/>
	<path fill="#FFFFFF" d="M308.795,116.458c0.666,0.006,1.332,0.028,1.996,0.08C310.127,116.487,309.461,116.465,308.795,116.458z"/>
	<path fill="#FFFFFF" d="M313.356,116.855c0.667,0.112,1.331,0.249,1.991,0.408C314.687,117.105,314.023,116.967,313.356,116.855z"
		/>
	<path fill="#FFFFFF" d="M315.743,117.363c0.675,0.173,1.346,0.365,2.009,0.588C317.088,117.728,316.418,117.536,315.743,117.363z"
		/>
	<path fill="#FFFFFF" d="M324.468,121.271c0.616,0.416,1.223,0.851,1.811,1.321C325.691,122.122,325.084,121.687,324.468,121.271z"
		/>
	<path fill="#FFFFFF" d="M317.965,118.028c0.656,0.226,1.306,0.477,1.947,0.752C319.27,118.505,318.621,118.254,317.965,118.028z"/>
	<path fill="#FFFFFF" d="M310.984,116.556c0.661,0.056,1.321,0.139,1.978,0.24C312.305,116.695,311.645,116.611,310.984,116.556z"/>
	<path fill="#FFFFFF" d="M303.936,116.807c0.292-0.046,0.584-0.081,0.877-0.118C304.52,116.726,304.227,116.761,303.936,116.807z"/>
	<path fill="#FFFFFF" d="M307.511,116.474c0.253-0.009,0.507-0.018,0.761-0.021C308.018,116.456,307.765,116.465,307.511,116.474z"
		/>
	<path fill="#FFFFFF" d="M305.949,116.568c0.282-0.024,0.563-0.051,0.845-0.067C306.512,116.517,306.231,116.544,305.949,116.568z"
		/>
	<path fill="#FFFFFF" d="M320.098,118.858c0.652,0.286,1.292,0.603,1.925,0.94C321.391,119.46,320.75,119.143,320.098,118.858z"/>
	<path fill="#FFFFFF" d="M322.357,119.978c0.618,0.34,1.226,0.705,1.821,1.095C323.582,120.683,322.974,120.319,322.357,119.978z"/>
	<path fill="#FFFFFF" d="M289.916,123.162c0.217-0.184,0.436-0.363,0.657-0.54C290.351,122.799,290.133,122.978,289.916,123.162z"/>
	<path fill="#FFFFFF" d="M288.756,124.205c0.217-0.207,0.436-0.411,0.659-0.61C289.192,123.794,288.974,123.998,288.756,124.205z"/>
	<path fill="#FFFFFF" d="M291.109,122.205c0.221-0.167,0.445-0.328,0.671-0.488C291.554,121.877,291.33,122.038,291.109,122.205z"/>
	<path fill="#FFFFFF" d="M287.607,125.366c0.23-0.247,0.462-0.493,0.7-0.73C288.069,124.873,287.838,125.119,287.607,125.366z"/>
	<path fill="#FFFFFF" d="M286.248,126.926c0.324-0.405,0.659-0.797,1.002-1.18C286.908,126.129,286.572,126.52,286.248,126.926z"/>
	<path fill="#FFFFFF" d="M207.098,226.085c7.866,0,14.243-6.387,14.243-14.231V77.707c0-8.097-6.125-14.199-14.243-14.199
		c-7.844,0-14.221,6.364-14.221,14.199v134.147C192.877,219.698,199.254,226.085,207.098,226.085z"/>
	<path fill="#FFFFFF" d="M292.338,121.326c0.231-0.156,0.467-0.303,0.702-0.452C292.805,121.022,292.569,121.17,292.338,121.326z"/>
	<linearGradient id="SVGID_1_" gradientUnits="userSpaceOnUse" x1="11.1913" y1="116.6288" x2="403.9501" y2="116.6288">
		<stop  offset="0.2" style="stop-color:#33DAFF"/>
		<stop  offset="0.2005" style="stop-color:#33DAFE"/>
		<stop  offset="0.232" style="stop-color:#23DED5"/>
		<stop  offset="0.264" style="stop-color:#17E1B3"/>
		<stop  offset="0.2966" style="stop-color:#0DE398"/>
		<stop  offset="0.3297" style="stop-color:#06E585"/>
		<stop  offset="0.3638" style="stop-color:#01E67A"/>
		<stop  offset="0.4" style="stop-color:#00E676"/>
		<stop  offset="0.6" style="stop-color:#EFFF48"/>
		<stop  offset="0.8" style="stop-color:#FF23C0"/>
	</linearGradient>
	<path fill="url(#SVGID_1_)" d="M304.813,116.689c0.378-0.047,0.756-0.087,1.136-0.121
		C305.57,116.602,305.191,116.642,304.813,116.689z"/>
	<linearGradient id="SVGID_2_" gradientUnits="userSpaceOnUse" x1="11.1913" y1="116.4872" x2="403.9501" y2="116.4872">
		<stop  offset="0.2" style="stop-color:#33DAFF"/>
		<stop  offset="0.2005" style="stop-color:#33DAFE"/>
		<stop  offset="0.232" style="stop-color:#23DED5"/>
		<stop  offset="0.264" style="stop-color:#17E1B3"/>
		<stop  offset="0.2966" style="stop-color:#0DE398"/>
		<stop  offset="0.3297" style="stop-color:#06E585"/>
		<stop  offset="0.3638" style="stop-color:#01E67A"/>
		<stop  offset="0.4" style="stop-color:#00E676"/>
		<stop  offset="0.6" style="stop-color:#EFFF48"/>
		<stop  offset="0.8" style="stop-color:#FF23C0"/>
	</linearGradient>
	<path fill="url(#SVGID_2_)" d="M306.794,116.501c0.239-0.014,0.478-0.019,0.717-0.027
		C307.272,116.482,307.033,116.487,306.794,116.501z"/>
	<linearGradient id="SVGID_3_" gradientUnits="userSpaceOnUse" x1="11.1913" y1="116.4531" x2="403.9501" y2="116.4531">
		<stop  offset="0.2" style="stop-color:#33DAFF"/>
		<stop  offset="0.2005" style="stop-color:#33DAFE"/>
		<stop  offset="0.232" style="stop-color:#23DED5"/>
		<stop  offset="0.264" style="stop-color:#17E1B3"/>
		<stop  offset="0.2966" style="stop-color:#0DE398"/>
		<stop  offset="0.3297" style="stop-color:#06E585"/>
		<stop  offset="0.3638" style="stop-color:#01E67A"/>
		<stop  offset="0.4" style="stop-color:#00E676"/>
		<stop  offset="0.6" style="stop-color:#EFFF48"/>
		<stop  offset="0.8" style="stop-color:#FF23C0"/>
	</linearGradient>
	<path fill="url(#SVGID_3_)" d="M308.514,116.447c-0.081,0-0.161,0.006-0.242,0.006c0.174-0.001,0.349,0.003,0.523,0.005
		C308.701,116.457,308.607,116.447,308.514,116.447z"/>
	<linearGradient id="SVGID_4_" gradientUnits="userSpaceOnUse" x1="11.1913" y1="116.5468" x2="403.9501" y2="116.5468">
		<stop  offset="0.2" style="stop-color:#33DAFF"/>
		<stop  offset="0.2005" style="stop-color:#33DAFE"/>
		<stop  offset="0.232" style="stop-color:#23DED5"/>
		<stop  offset="0.264" style="stop-color:#17E1B3"/>
		<stop  offset="0.2966" style="stop-color:#0DE398"/>
		<stop  offset="0.3297" style="stop-color:#06E585"/>
		<stop  offset="0.3638" style="stop-color:#01E67A"/>
		<stop  offset="0.4" style="stop-color:#00E676"/>
		<stop  offset="0.6" style="stop-color:#EFFF48"/>
		<stop  offset="0.8" style="stop-color:#FF23C0"/>
	</linearGradient>
	<path fill="url(#SVGID_4_)" d="M310.791,116.539c0.064,0.005,0.128,0.012,0.192,0.017
		C310.919,116.55,310.856,116.544,310.791,116.539z"/>
	<linearGradient id="SVGID_5_" gradientUnits="userSpaceOnUse" x1="11.1913" y1="117.1567" x2="403.9501" y2="117.1567">
		<stop  offset="0.2" style="stop-color:#33DAFF"/>
		<stop  offset="0.2005" style="stop-color:#33DAFE"/>
		<stop  offset="0.232" style="stop-color:#23DED5"/>
		<stop  offset="0.264" style="stop-color:#17E1B3"/>
		<stop  offset="0.2966" style="stop-color:#0DE398"/>
		<stop  offset="0.3297" style="stop-color:#06E585"/>
		<stop  offset="0.3638" style="stop-color:#01E67A"/>
		<stop  offset="0.4" style="stop-color:#00E676"/>
		<stop  offset="0.6" style="stop-color:#EFFF48"/>
		<stop  offset="0.8" style="stop-color:#FF23C0"/>
	</linearGradient>
	<path fill="url(#SVGID_5_)" d="M301.748,117.241c0.246-0.058,0.491-0.117,0.738-0.168
		C302.239,117.124,301.994,117.183,301.748,117.241z"/>
	<linearGradient id="SVGID_6_" gradientUnits="userSpaceOnUse" x1="11.1913" y1="116.871" x2="403.9501" y2="116.871">
		<stop  offset="0.2" style="stop-color:#33DAFF"/>
		<stop  offset="0.2005" style="stop-color:#33DAFE"/>
		<stop  offset="0.232" style="stop-color:#23DED5"/>
		<stop  offset="0.264" style="stop-color:#17E1B3"/>
		<stop  offset="0.2966" style="stop-color:#0DE398"/>
		<stop  offset="0.3297" style="stop-color:#06E585"/>
		<stop  offset="0.3638" style="stop-color:#01E67A"/>
		<stop  offset="0.4" style="stop-color:#00E676"/>
		<stop  offset="0.6" style="stop-color:#EFFF48"/>
		<stop  offset="0.8" style="stop-color:#FF23C0"/>
	</linearGradient>
	<path fill="url(#SVGID_6_)" d="M303.215,116.935c0.24-0.044,0.48-0.091,0.721-0.129
		C303.695,116.844,303.455,116.892,303.215,116.935z"/>
	<linearGradient id="SVGID_7_" gradientUnits="userSpaceOnUse" x1="11.1913" y1="119.8886" x2="403.9501" y2="119.8886">
		<stop  offset="0.2" style="stop-color:#33DAFF"/>
		<stop  offset="0.2005" style="stop-color:#33DAFE"/>
		<stop  offset="0.232" style="stop-color:#23DED5"/>
		<stop  offset="0.264" style="stop-color:#17E1B3"/>
		<stop  offset="0.2966" style="stop-color:#0DE398"/>
		<stop  offset="0.3297" style="stop-color:#06E585"/>
		<stop  offset="0.3638" style="stop-color:#01E67A"/>
		<stop  offset="0.4" style="stop-color:#00E676"/>
		<stop  offset="0.6" style="stop-color:#EFFF48"/>
		<stop  offset="0.8" style="stop-color:#FF23C0"/>
	</linearGradient>
	<path fill="url(#SVGID_7_)" d="M322.023,119.798c0.111,0.06,0.223,0.119,0.334,0.18
		C322.246,119.917,322.134,119.858,322.023,119.798z"/>
	<linearGradient id="SVGID_8_" gradientUnits="userSpaceOnUse" x1="11.1913" y1="118.8193" x2="403.9501" y2="118.8193">
		<stop  offset="0.2" style="stop-color:#33DAFF"/>
		<stop  offset="0.2005" style="stop-color:#33DAFE"/>
		<stop  offset="0.232" style="stop-color:#23DED5"/>
		<stop  offset="0.264" style="stop-color:#17E1B3"/>
		<stop  offset="0.2966" style="stop-color:#0DE398"/>
		<stop  offset="0.3297" style="stop-color:#06E585"/>
		<stop  offset="0.3638" style="stop-color:#01E67A"/>
		<stop  offset="0.4" style="stop-color:#00E676"/>
		<stop  offset="0.6" style="stop-color:#EFFF48"/>
		<stop  offset="0.8" style="stop-color:#FF23C0"/>
	</linearGradient>
	<path fill="url(#SVGID_8_)" d="M319.911,118.78c0.062,0.027,0.125,0.05,0.187,0.078
		C320.036,118.831,319.974,118.807,319.911,118.78z"/>
	<linearGradient id="SVGID_9_" gradientUnits="userSpaceOnUse" x1="11.1913" y1="121.1728" x2="403.9501" y2="121.1728">
		<stop  offset="0.2" style="stop-color:#33DAFF"/>
		<stop  offset="0.2005" style="stop-color:#33DAFE"/>
		<stop  offset="0.232" style="stop-color:#23DED5"/>
		<stop  offset="0.264" style="stop-color:#17E1B3"/>
		<stop  offset="0.2966" style="stop-color:#0DE398"/>
		<stop  offset="0.3297" style="stop-color:#06E585"/>
		<stop  offset="0.3638" style="stop-color:#01E67A"/>
		<stop  offset="0.4" style="stop-color:#00E676"/>
		<stop  offset="0.6" style="stop-color:#EFFF48"/>
		<stop  offset="0.8" style="stop-color:#FF23C0"/>
	</linearGradient>
	<path fill="url(#SVGID_9_)" d="M324.178,121.074c0.098,0.064,0.193,0.132,0.291,0.198
		C324.371,121.206,324.275,121.138,324.178,121.074z"/>
	<linearGradient id="SVGID_10_" gradientUnits="userSpaceOnUse" x1="11.1913" y1="117.3134" x2="403.9501" y2="117.3134">
		<stop  offset="0.2" style="stop-color:#33DAFF"/>
		<stop  offset="0.2005" style="stop-color:#33DAFE"/>
		<stop  offset="0.232" style="stop-color:#23DED5"/>
		<stop  offset="0.264" style="stop-color:#17E1B3"/>
		<stop  offset="0.2966" style="stop-color:#0DE398"/>
		<stop  offset="0.3297" style="stop-color:#06E585"/>
		<stop  offset="0.3638" style="stop-color:#01E67A"/>
		<stop  offset="0.4" style="stop-color:#00E676"/>
		<stop  offset="0.6" style="stop-color:#EFFF48"/>
		<stop  offset="0.8" style="stop-color:#FF23C0"/>
	</linearGradient>
	<path fill="url(#SVGID_10_)" d="M315.347,117.264c0.132,0.032,0.264,0.066,0.396,0.1
		C315.611,117.33,315.479,117.296,315.347,117.264z"/>
	<linearGradient id="SVGID_11_" gradientUnits="userSpaceOnUse" x1="11.1913" y1="117.9892" x2="403.9501" y2="117.9892">
		<stop  offset="0.2" style="stop-color:#33DAFF"/>
		<stop  offset="0.2005" style="stop-color:#33DAFE"/>
		<stop  offset="0.232" style="stop-color:#23DED5"/>
		<stop  offset="0.264" style="stop-color:#17E1B3"/>
		<stop  offset="0.2966" style="stop-color:#0DE398"/>
		<stop  offset="0.3297" style="stop-color:#06E585"/>
		<stop  offset="0.3638" style="stop-color:#01E67A"/>
		<stop  offset="0.4" style="stop-color:#00E676"/>
		<stop  offset="0.6" style="stop-color:#EFFF48"/>
		<stop  offset="0.8" style="stop-color:#FF23C0"/>
	</linearGradient>
	<path fill="url(#SVGID_11_)" d="M317.751,117.951c0.071,0.024,0.142,0.052,0.213,0.077
		C317.893,118.003,317.823,117.976,317.751,117.951z"/>
	<linearGradient id="SVGID_12_" gradientUnits="userSpaceOnUse" x1="11.1913" y1="116.8256" x2="403.9501" y2="116.8256">
		<stop  offset="0.2" style="stop-color:#33DAFF"/>
		<stop  offset="0.2005" style="stop-color:#33DAFE"/>
		<stop  offset="0.232" style="stop-color:#23DED5"/>
		<stop  offset="0.264" style="stop-color:#17E1B3"/>
		<stop  offset="0.2966" style="stop-color:#0DE398"/>
		<stop  offset="0.3297" style="stop-color:#06E585"/>
		<stop  offset="0.3638" style="stop-color:#01E67A"/>
		<stop  offset="0.4" style="stop-color:#00E676"/>
		<stop  offset="0.6" style="stop-color:#EFFF48"/>
		<stop  offset="0.8" style="stop-color:#FF23C0"/>
	</linearGradient>
	<path fill="url(#SVGID_12_)" d="M312.962,116.796c0.131,0.02,0.263,0.038,0.394,0.06
		C313.224,116.833,313.093,116.816,312.962,116.796z"/>
	<linearGradient id="SVGID_13_" gradientUnits="userSpaceOnUse" x1="11.1913" y1="117.5136" x2="403.9501" y2="117.5136">
		<stop  offset="0.2" style="stop-color:#33DAFF"/>
		<stop  offset="0.2005" style="stop-color:#33DAFE"/>
		<stop  offset="0.232" style="stop-color:#23DED5"/>
		<stop  offset="0.264" style="stop-color:#17E1B3"/>
		<stop  offset="0.2966" style="stop-color:#0DE398"/>
		<stop  offset="0.3297" style="stop-color:#06E585"/>
		<stop  offset="0.3638" style="stop-color:#01E67A"/>
		<stop  offset="0.4" style="stop-color:#00E676"/>
		<stop  offset="0.6" style="stop-color:#EFFF48"/>
		<stop  offset="0.8" style="stop-color:#FF23C0"/>
	</linearGradient>
	<path fill="url(#SVGID_13_)" d="M300.312,117.616c0.246-0.071,0.492-0.141,0.739-0.205
		C300.804,117.476,300.558,117.545,300.312,117.616z"/>
	<linearGradient id="SVGID_14_" gradientUnits="userSpaceOnUse" x1="11.1913" y1="122.414" x2="403.9501" y2="122.414">
		<stop  offset="0.2" style="stop-color:#33DAFF"/>
		<stop  offset="0.2005" style="stop-color:#33DAFE"/>
		<stop  offset="0.232" style="stop-color:#23DED5"/>
		<stop  offset="0.264" style="stop-color:#17E1B3"/>
		<stop  offset="0.2966" style="stop-color:#0DE398"/>
		<stop  offset="0.3297" style="stop-color:#06E585"/>
		<stop  offset="0.3638" style="stop-color:#01E67A"/>
		<stop  offset="0.4" style="stop-color:#00E676"/>
		<stop  offset="0.6" style="stop-color:#EFFF48"/>
		<stop  offset="0.8" style="stop-color:#FF23C0"/>
	</linearGradient>
	<path fill="url(#SVGID_14_)" d="M290.573,122.622c0.177-0.141,0.355-0.281,0.536-0.417
		C290.929,122.341,290.75,122.481,290.573,122.622z"/>
	<linearGradient id="SVGID_15_" gradientUnits="userSpaceOnUse" x1="11.1913" y1="123.3788" x2="403.9501" y2="123.3788">
		<stop  offset="0.2" style="stop-color:#33DAFF"/>
		<stop  offset="0.2005" style="stop-color:#33DAFE"/>
		<stop  offset="0.232" style="stop-color:#23DED5"/>
		<stop  offset="0.264" style="stop-color:#17E1B3"/>
		<stop  offset="0.2966" style="stop-color:#0DE398"/>
		<stop  offset="0.3297" style="stop-color:#06E585"/>
		<stop  offset="0.3638" style="stop-color:#01E67A"/>
		<stop  offset="0.4" style="stop-color:#00E676"/>
		<stop  offset="0.6" style="stop-color:#EFFF48"/>
		<stop  offset="0.8" style="stop-color:#FF23C0"/>
	</linearGradient>
	<path fill="url(#SVGID_15_)" d="M289.415,123.595c0.165-0.147,0.333-0.291,0.5-0.433
		C289.748,123.305,289.58,123.448,289.415,123.595z"/>
	<linearGradient id="SVGID_16_" gradientUnits="userSpaceOnUse" x1="11.1913" y1="124.4203" x2="403.9501" y2="124.4203">
		<stop  offset="0.2" style="stop-color:#33DAFF"/>
		<stop  offset="0.2005" style="stop-color:#33DAFE"/>
		<stop  offset="0.232" style="stop-color:#23DED5"/>
		<stop  offset="0.264" style="stop-color:#17E1B3"/>
		<stop  offset="0.2966" style="stop-color:#0DE398"/>
		<stop  offset="0.3297" style="stop-color:#06E585"/>
		<stop  offset="0.3638" style="stop-color:#01E67A"/>
		<stop  offset="0.4" style="stop-color:#00E676"/>
		<stop  offset="0.6" style="stop-color:#EFFF48"/>
		<stop  offset="0.8" style="stop-color:#FF23C0"/>
	</linearGradient>
	<path fill="url(#SVGID_16_)" d="M288.307,124.636c0.147-0.146,0.298-0.288,0.449-0.431
		C288.606,124.348,288.455,124.489,288.307,124.636z"/>
	<linearGradient id="SVGID_17_" gradientUnits="userSpaceOnUse" x1="11.1913" y1="121.5214" x2="403.9501" y2="121.5214">
		<stop  offset="0.2" style="stop-color:#33DAFF"/>
		<stop  offset="0.2005" style="stop-color:#33DAFE"/>
		<stop  offset="0.232" style="stop-color:#23DED5"/>
		<stop  offset="0.264" style="stop-color:#17E1B3"/>
		<stop  offset="0.2966" style="stop-color:#0DE398"/>
		<stop  offset="0.3297" style="stop-color:#06E585"/>
		<stop  offset="0.3638" style="stop-color:#01E67A"/>
		<stop  offset="0.4" style="stop-color:#00E676"/>
		<stop  offset="0.6" style="stop-color:#EFFF48"/>
		<stop  offset="0.8" style="stop-color:#FF23C0"/>
	</linearGradient>
	<path fill="url(#SVGID_17_)" d="M291.78,121.717c0.186-0.131,0.37-0.264,0.558-0.391
		C292.15,121.453,291.965,121.585,291.78,121.717z"/>
	<linearGradient id="SVGID_18_" gradientUnits="userSpaceOnUse" x1="11.1913" y1="117.9413" x2="403.9501" y2="117.9413">
		<stop  offset="0.2" style="stop-color:#33DAFF"/>
		<stop  offset="0.2005" style="stop-color:#33DAFE"/>
		<stop  offset="0.232" style="stop-color:#23DED5"/>
		<stop  offset="0.264" style="stop-color:#17E1B3"/>
		<stop  offset="0.2966" style="stop-color:#0DE398"/>
		<stop  offset="0.3297" style="stop-color:#06E585"/>
		<stop  offset="0.3638" style="stop-color:#01E67A"/>
		<stop  offset="0.4" style="stop-color:#00E676"/>
		<stop  offset="0.6" style="stop-color:#EFFF48"/>
		<stop  offset="0.8" style="stop-color:#FF23C0"/>
	</linearGradient>
	<path fill="url(#SVGID_18_)" d="M298.903,118.062c0.243-0.083,0.487-0.164,0.732-0.241
		C299.39,117.899,299.146,117.978,298.903,118.062z"/>
	<linearGradient id="SVGID_19_" gradientUnits="userSpaceOnUse" x1="11.1913" y1="125.5556" x2="403.9501" y2="125.5556">
		<stop  offset="0.2" style="stop-color:#33DAFF"/>
		<stop  offset="0.2005" style="stop-color:#33DAFE"/>
		<stop  offset="0.232" style="stop-color:#23DED5"/>
		<stop  offset="0.264" style="stop-color:#17E1B3"/>
		<stop  offset="0.2966" style="stop-color:#0DE398"/>
		<stop  offset="0.3297" style="stop-color:#06E585"/>
		<stop  offset="0.3638" style="stop-color:#01E67A"/>
		<stop  offset="0.4" style="stop-color:#00E676"/>
		<stop  offset="0.6" style="stop-color:#EFFF48"/>
		<stop  offset="0.8" style="stop-color:#FF23C0"/>
	</linearGradient>
	<path fill="url(#SVGID_19_)" d="M287.25,125.746c0.117-0.13,0.238-0.253,0.357-0.38
		C287.489,125.493,287.367,125.616,287.25,125.746z"/>
	<linearGradient id="SVGID_20_" gradientUnits="userSpaceOnUse" x1="11.1913" y1="119.0151" x2="403.9501" y2="119.0151">
		<stop  offset="0.2" style="stop-color:#33DAFF"/>
		<stop  offset="0.2005" style="stop-color:#33DAFE"/>
		<stop  offset="0.232" style="stop-color:#23DED5"/>
		<stop  offset="0.264" style="stop-color:#17E1B3"/>
		<stop  offset="0.2966" style="stop-color:#0DE398"/>
		<stop  offset="0.3297" style="stop-color:#06E585"/>
		<stop  offset="0.3638" style="stop-color:#01E67A"/>
		<stop  offset="0.4" style="stop-color:#00E676"/>
		<stop  offset="0.6" style="stop-color:#EFFF48"/>
		<stop  offset="0.8" style="stop-color:#FF23C0"/>
	</linearGradient>
	<path fill="url(#SVGID_20_)" d="M296.164,119.165c0.226-0.105,0.455-0.201,0.683-0.3
		C296.619,118.964,296.39,119.06,296.164,119.165z"/>
	<linearGradient id="SVGID_21_" gradientUnits="userSpaceOnUse" x1="11.1913" y1="118.4413" x2="403.9501" y2="118.4413">
		<stop  offset="0.2" style="stop-color:#33DAFF"/>
		<stop  offset="0.2005" style="stop-color:#33DAFE"/>
		<stop  offset="0.232" style="stop-color:#23DED5"/>
		<stop  offset="0.264" style="stop-color:#17E1B3"/>
		<stop  offset="0.2966" style="stop-color:#0DE398"/>
		<stop  offset="0.3297" style="stop-color:#06E585"/>
		<stop  offset="0.3638" style="stop-color:#01E67A"/>
		<stop  offset="0.4" style="stop-color:#00E676"/>
		<stop  offset="0.6" style="stop-color:#EFFF48"/>
		<stop  offset="0.8" style="stop-color:#FF23C0"/>
	</linearGradient>
	<path fill="url(#SVGID_21_)" d="M297.519,118.579c0.237-0.096,0.477-0.185,0.716-0.274
		C297.996,118.393,297.756,118.482,297.519,118.579z"/>
	<linearGradient id="SVGID_22_" gradientUnits="userSpaceOnUse" x1="11.1913" y1="120.6972" x2="403.9501" y2="120.6972">
		<stop  offset="0.2" style="stop-color:#33DAFF"/>
		<stop  offset="0.2005" style="stop-color:#33DAFE"/>
		<stop  offset="0.232" style="stop-color:#23DED5"/>
		<stop  offset="0.264" style="stop-color:#17E1B3"/>
		<stop  offset="0.2966" style="stop-color:#0DE398"/>
		<stop  offset="0.3297" style="stop-color:#06E585"/>
		<stop  offset="0.3638" style="stop-color:#01E67A"/>
		<stop  offset="0.4" style="stop-color:#00E676"/>
		<stop  offset="0.6" style="stop-color:#EFFF48"/>
		<stop  offset="0.8" style="stop-color:#FF23C0"/>
	</linearGradient>
	<path fill="url(#SVGID_22_)" d="M293.04,120.874c0.188-0.118,0.374-0.24,0.564-0.354
		C293.413,120.634,293.228,120.756,293.04,120.874z"/>
	<linearGradient id="SVGID_23_" gradientUnits="userSpaceOnUse" x1="11.1913" y1="119.7978" x2="403.9501" y2="119.7978">
		<stop  offset="0.2" style="stop-color:#33DAFF"/>
		<stop  offset="0.2005" style="stop-color:#33DAFE"/>
		<stop  offset="0.232" style="stop-color:#23DED5"/>
		<stop  offset="0.264" style="stop-color:#17E1B3"/>
		<stop  offset="0.2966" style="stop-color:#0DE398"/>
		<stop  offset="0.3297" style="stop-color:#06E585"/>
		<stop  offset="0.3638" style="stop-color:#01E67A"/>
		<stop  offset="0.4" style="stop-color:#00E676"/>
		<stop  offset="0.6" style="stop-color:#EFFF48"/>
		<stop  offset="0.8" style="stop-color:#FF23C0"/>
	</linearGradient>
	<path fill="url(#SVGID_23_)" d="M294.431,120.053c0.319-0.177,0.642-0.346,0.967-0.51
		C295.073,119.706,294.75,119.876,294.431,120.053z"/>
	<path fill="#FFFFFF" d="M335.446,130.795c-2.895-2.895-6.251-5.779-9.167-8.203c-0.588-0.471-1.194-0.906-1.811-1.321
		c-0.097-0.065-0.193-0.133-0.291-0.198c-0.595-0.391-1.203-0.755-1.821-1.095c-0.111-0.062-0.223-0.121-0.334-0.18
		c-0.632-0.337-1.273-0.655-1.925-0.94c-0.062-0.027-0.125-0.051-0.187-0.078c-0.641-0.275-1.291-0.526-1.947-0.752
		c-0.071-0.025-0.142-0.052-0.213-0.077c-0.663-0.223-1.334-0.415-2.009-0.588c-0.132-0.034-0.264-0.067-0.396-0.1
		c-0.66-0.159-1.324-0.296-1.991-0.408c-0.131-0.022-0.263-0.04-0.394-0.06c-0.657-0.101-1.317-0.184-1.978-0.24
		c-0.064-0.005-0.128-0.012-0.192-0.017c-0.665-0.052-1.331-0.074-1.996-0.08c-0.175-0.001-0.349-0.006-0.523-0.005
		c-0.254,0.002-0.507,0.012-0.761,0.021c-0.239,0.008-0.478,0.013-0.717,0.027c-0.282,0.016-0.563,0.043-0.845,0.067
		c-0.379,0.033-0.758,0.073-1.136,0.121c-0.293,0.037-0.586,0.072-0.877,0.118c-0.241,0.038-0.481,0.085-0.721,0.129
		c-0.243,0.044-0.486,0.087-0.729,0.137c-0.247,0.051-0.492,0.11-0.738,0.168c-0.233,0.055-0.465,0.11-0.697,0.17
		c-0.248,0.064-0.494,0.134-0.739,0.205c-0.227,0.065-0.453,0.134-0.678,0.205c-0.245,0.077-0.489,0.157-0.732,0.241
		c-0.224,0.078-0.446,0.16-0.667,0.243c-0.239,0.089-0.479,0.178-0.716,0.274c-0.226,0.091-0.449,0.189-0.673,0.287
		c-0.228,0.099-0.457,0.195-0.683,0.3c-0.258,0.12-0.511,0.25-0.766,0.378c-0.325,0.164-0.648,0.333-0.967,0.51
		c-0.277,0.153-0.554,0.305-0.827,0.467c-0.19,0.114-0.376,0.236-0.564,0.354c-0.235,0.148-0.471,0.296-0.702,0.452
		c-0.188,0.127-0.373,0.26-0.558,0.391c-0.226,0.16-0.45,0.321-0.671,0.488c-0.18,0.136-0.358,0.276-0.536,0.417
		c-0.222,0.176-0.44,0.356-0.657,0.54c-0.168,0.143-0.335,0.286-0.5,0.433c-0.223,0.199-0.442,0.403-0.659,0.61
		c-0.15,0.143-0.301,0.284-0.449,0.431c-0.238,0.237-0.47,0.483-0.7,0.73c-0.119,0.127-0.24,0.25-0.357,0.38
		c-0.343,0.383-0.678,0.774-1.002,1.18c-3.87,5.315-6.304,11.588-6.304,17.871c0,8.19,3.839,15.909,10.614,21.215
		c0.986,0.966,1.447,1.458,1.951,1.931c0.45,0.481,1.447,1.456,2.401,2.421c33.277,26.041,52.113,65.622,51.62,108.075
		c0,76.727-62.233,138.981-138.95,138.981c-76.706,0-138.959-62.255-138.959-138.981c-0.503-42.453,18.814-82.034,52.112-108.566
		c0.965-0.965,1.93-1.93,2.402-2.403c0.503-0.491,0.965-0.975,1.447-1.458l0.493-0.482c6.754-4.824,10.603-13.015,10.603-21.216
		c-0.461-15.458-13.507-28.001-28.945-28.001c-6.272,0-13.026,2.412-17.871,6.281c-2.884,2.423-6.241,5.308-9.145,8.203
		c-43.933,37.147-68.526,91.188-68.526,148.125c0,108.084,87.812,196.39,196.39,196.39c108.074,0,196.369-87.801,196.369-196.39
		C403.95,221.984,378.885,167.943,335.446,130.795z M207.581,461.068c-100.439,0-182.137-81.718-182.137-182.147
		c0-53.12,23.136-103.134,63.481-137.25l0.452-0.388l0.409-0.419c2.538-2.517,5.632-5.181,8.086-7.236
		c2.36-1.835,5.894-3.063,8.862-3.063c7.655,0,14.346,6.366,14.703,13.969c-0.063,3.755-1.867,7.426-4.635,9.398l-0.881,0.628
		l-0.776,0.756l-0.493,0.482l-0.157,0.146l-0.157,0.168c-0.367,0.367-0.724,0.734-1.101,1.102l-0.168,0.178l-0.525,0.524
		l-1.332,1.322c-36.644,29.522-57.356,72.951-56.832,119.285c0.042,84.445,68.756,153.139,153.202,153.139
		c84.435,0,153.139-68.693,153.202-153.139c0.514-46.754-20.01-90.004-56.381-118.824c-0.21-0.19-0.399-0.399-0.598-0.587
		c-0.346-0.347-0.661-0.651-0.85-0.839l-0.293-0.315l-0.314-0.305c-0.127-0.136-0.242-0.262-0.399-0.408
		c-0.377-0.376-0.839-0.85-1.52-1.5l-0.514-0.493l-0.567-0.451c-3.334-2.612-5.16-6.158-5.16-10.005
		c0-2.811,1.239-6.158,3.389-9.219c2.568-3.063,6.638-4.878,10.938-4.878c3.251,0,6.355,1.04,8.788,2.949
		c2.245,1.866,5.475,4.614,8.076,7.215l0.388,0.397l0.43,0.357c40.357,34.515,63.513,84.561,63.513,137.303
		C389.708,379.351,308.01,461.068,207.581,461.068z"/>
	<linearGradient id="SVGID_24_" gradientUnits="userSpaceOnUse" x1="11.1913" y1="295.8105" x2="403.9501" y2="295.8105">
		<stop  offset="0.2" style="stop-color:#33DAFF"/>
		<stop  offset="0.2005" style="stop-color:#33DAFE"/>
		<stop  offset="0.232" style="stop-color:#23DED5"/>
		<stop  offset="0.264" style="stop-color:#17E1B3"/>
		<stop  offset="0.2966" style="stop-color:#0DE398"/>
		<stop  offset="0.3297" style="stop-color:#06E585"/>
		<stop  offset="0.3638" style="stop-color:#01E67A"/>
		<stop  offset="0.4" style="stop-color:#00E676"/>
		<stop  offset="0.6" style="stop-color:#EFFF48"/>
		<stop  offset="0.8" style="stop-color:#FF23C0"/>
	</linearGradient>
	<path fill="url(#SVGID_24_)" d="M335.446,130.795c-2.895-2.895-6.251-5.779-9.167-8.203c-0.588-0.471-1.194-0.906-1.811-1.321
		c-0.097-0.065-0.193-0.133-0.291-0.198c-0.595-0.391-1.203-0.755-1.821-1.095c-0.111-0.062-0.223-0.121-0.334-0.18
		c-0.632-0.337-1.273-0.655-1.925-0.94c-0.062-0.027-0.125-0.051-0.187-0.078c-0.641-0.275-1.291-0.526-1.947-0.752
		c-0.071-0.025-0.142-0.052-0.213-0.077c-0.663-0.223-1.334-0.415-2.009-0.588c-0.132-0.034-0.264-0.067-0.396-0.1
		c-0.66-0.159-1.324-0.296-1.991-0.408c-0.131-0.022-0.263-0.04-0.394-0.06c-0.657-0.101-1.317-0.184-1.978-0.24
		c-0.064-0.005-0.128-0.012-0.192-0.017c-0.665-0.052-1.331-0.074-1.996-0.08c-0.175-0.001-0.349-0.006-0.523-0.005
		c-0.254,0.002-0.507,0.012-0.761,0.021c-0.239,0.008-0.478,0.013-0.717,0.027c-0.282,0.016-0.563,0.043-0.845,0.067
		c-0.379,0.033-0.758,0.073-1.136,0.121c-0.293,0.037-0.586,0.072-0.877,0.118c-0.241,0.038-0.481,0.085-0.721,0.129
		c-0.243,0.044-0.486,0.087-0.729,0.137c-0.247,0.051-0.492,0.11-0.738,0.168c-0.233,0.055-0.465,0.11-0.697,0.17
		c-0.248,0.064-0.494,0.134-0.739,0.205c-0.227,0.065-0.453,0.134-0.678,0.205c-0.245,0.077-0.489,0.157-0.732,0.241
		c-0.224,0.078-0.446,0.16-0.667,0.243c-0.239,0.089-0.479,0.178-0.716,0.274c-0.226,0.091-0.449,0.189-0.673,0.287
		c-0.228,0.099-0.457,0.195-0.683,0.3c-0.258,0.12-0.511,0.25-0.766,0.378c-0.325,0.164-0.648,0.333-0.967,0.51
		c-0.277,0.153-0.554,0.305-0.827,0.467c-0.19,0.114-0.376,0.236-0.564,0.354c-0.235,0.148-0.471,0.296-0.702,0.452
		c-0.188,0.127-0.373,0.26-0.558,0.391c-0.226,0.16-0.45,0.321-0.671,0.488c-0.18,0.136-0.358,0.276-0.536,0.417
		c-0.222,0.176-0.44,0.356-0.657,0.54c-0.168,0.143-0.335,0.286-0.5,0.433c-0.223,0.199-0.442,0.403-0.659,0.61
		c-0.15,0.143-0.301,0.284-0.449,0.431c-0.238,0.237-0.47,0.483-0.7,0.73c-0.119,0.127-0.24,0.25-0.357,0.38
		c-0.343,0.383-0.678,0.774-1.002,1.18c-3.87,5.315-6.304,11.588-6.304,17.871c0,8.19,3.839,15.909,10.614,21.215
		c0.986,0.966,1.447,1.458,1.951,1.931c0.45,0.481,1.447,1.456,2.401,2.421c33.277,26.041,52.113,65.622,51.62,108.075
		c0,76.727-62.233,138.981-138.95,138.981c-76.706,0-138.959-62.255-138.959-138.981c-0.503-42.453,18.814-82.034,52.112-108.566
		c0.965-0.965,1.93-1.93,2.402-2.403c0.503-0.491,0.965-0.975,1.447-1.458l0.493-0.482c6.754-4.824,10.603-13.015,10.603-21.216
		c-0.461-15.458-13.507-28.001-28.945-28.001c-6.272,0-13.026,2.412-17.871,6.281c-2.884,2.423-6.241,5.308-9.145,8.203
		c-43.933,37.147-68.526,91.188-68.526,148.125c0,108.084,87.812,196.39,196.39,196.39c108.074,0,196.369-87.801,196.369-196.39
		C403.95,221.984,378.885,167.943,335.446,130.795z M207.581,461.068c-100.439,0-182.137-81.718-182.137-182.147
		c0-53.12,23.136-103.134,63.481-137.25l0.452-0.388l0.409-0.419c2.538-2.517,5.632-5.181,8.086-7.236
		c2.36-1.835,5.894-3.063,8.862-3.063c7.655,0,14.346,6.366,14.703,13.969c-0.063,3.755-1.867,7.426-4.635,9.398l-0.881,0.628
		l-0.776,0.756l-0.493,0.482l-0.157,0.146l-0.157,0.168c-0.367,0.367-0.724,0.734-1.101,1.102l-0.168,0.178l-0.525,0.524
		l-1.332,1.322c-36.644,29.522-57.356,72.951-56.832,119.285c0.042,84.445,68.756,153.139,153.202,153.139
		c84.435,0,153.139-68.693,153.202-153.139c0.514-46.754-20.01-90.004-56.381-118.824c-0.21-0.19-0.399-0.399-0.598-0.587
		c-0.346-0.347-0.661-0.651-0.85-0.839l-0.293-0.315l-0.314-0.305c-0.127-0.136-0.242-0.262-0.399-0.408
		c-0.377-0.376-0.839-0.85-1.52-1.5l-0.514-0.493l-0.567-0.451c-3.334-2.612-5.16-6.158-5.16-10.005
		c0-2.811,1.239-6.158,3.389-9.219c2.568-3.063,6.638-4.878,10.938-4.878c3.251,0,6.355,1.04,8.788,2.949
		c2.245,1.866,5.475,4.614,8.076,7.215l0.388,0.397l0.43,0.357c40.357,34.515,63.513,84.561,63.513,137.303
		C389.708,379.351,308.01,461.068,207.581,461.068z"/>
	<path fill="#FFFFFF" d="M207.098,240.327c15.931,0,28.485-13.037,28.485-28.473V77.707c0-15.92-12.554-28.453-28.485-28.453
		c-15.93,0-28.463,13.035-28.463,28.453v134.147C178.635,227.763,191.661,240.327,207.098,240.327z M192.877,77.707
		c0-7.835,6.377-14.199,14.221-14.199c8.118,0,14.243,6.103,14.243,14.199v134.147c0,7.844-6.376,14.231-14.243,14.231
		c-7.844,0-14.221-6.387-14.221-14.231V77.707z"/>
	<linearGradient id="SVGID_25_" gradientUnits="userSpaceOnUse" x1="11.1913" y1="144.7905" x2="403.9501" y2="144.7905">
		<stop  offset="0.2" style="stop-color:#33DAFF"/>
		<stop  offset="0.2005" style="stop-color:#33DAFE"/>
		<stop  offset="0.232" style="stop-color:#23DED5"/>
		<stop  offset="0.264" style="stop-color:#17E1B3"/>
		<stop  offset="0.2966" style="stop-color:#0DE398"/>
		<stop  offset="0.3297" style="stop-color:#06E585"/>
		<stop  offset="0.3638" style="stop-color:#01E67A"/>
		<stop  offset="0.4" style="stop-color:#00E676"/>
		<stop  offset="0.6" style="stop-color:#EFFF48"/>
		<stop  offset="0.8" style="stop-color:#FF23C0"/>
	</linearGradient>
	<path fill="url(#SVGID_25_)" d="M207.098,240.327c15.931,0,28.485-13.037,28.485-28.473V77.707
		c0-15.92-12.554-28.453-28.485-28.453c-15.93,0-28.463,13.035-28.463,28.453v134.147
		C178.635,227.763,191.661,240.327,207.098,240.327z M192.877,77.707c0-7.835,6.377-14.199,14.221-14.199
		c8.118,0,14.243,6.103,14.243,14.199v134.147c0,7.844-6.376,14.231-14.243,14.231c-7.844,0-14.221-6.387-14.221-14.231V77.707z"/>
</g>
</svg>
