<?xml version="1.0" encoding="utf-8"?>
<!-- Generator: Adobe Illustrator 16.0.0, SVG Export Plug-In . SVG Version: 6.00 Build 0)  -->
<!DOCTYPE svg PUBLIC "-//W3C//DTD SVG 1.1//EN" "http://www.w3.org/Graphics/SVG/1.1/DTD/svg11.dtd">
<svg version="1.1" id="Layer_1" xmlns="http://www.w3.org/2000/svg" xmlns:xlink="http://www.w3.org/1999/xlink" x="0px" y="0px"
	 width="23.918px" height="23.834px" viewBox="0.082 0.083 23.918 23.834" enable-background="new 0.082 0.083 23.918 23.834"
	 xml:space="preserve">
<linearGradient id="SVGID_1_" gradientUnits="userSpaceOnUse" x1="0.041" y1="12" x2="23.959" y2="12">
	<stop  offset="0.2" style="stop-color:#33DAFF"/>
	<stop  offset="0.2005" style="stop-color:#33DAFE"/>
	<stop  offset="0.232" style="stop-color:#23DED5"/>
	<stop  offset="0.264" style="stop-color:#17E1B3"/>
	<stop  offset="0.2966" style="stop-color:#0DE398"/>
	<stop  offset="0.3297" style="stop-color:#06E585"/>
	<stop  offset="0.3638" style="stop-color:#01E67A"/>
	<stop  offset="0.4" style="stop-color:#00E676"/>
	<stop  offset="0.6" style="stop-color:#EFFF48"/>
	<stop  offset="0.8" style="stop-color:#FF23C0"/>
</linearGradient>
<rect x="0.041" y="0.083" display="none" fill="url(#SVGID_1_)" width="23.918" height="23.834"/>
<g opacity="0.96">
	<path fill="#FFFFFF" d="M10.5,3.174c0-0.8,0.649-1.477,1.477-1.477c0.826,0,1.477,0.652,1.478,1.477v6.959
		c0,0.801-0.649,1.477-1.478,1.477c-0.801,0-1.477-0.651-1.477-1.477V3.174z"/>
	<path fill="#FFFFFF" d="M12,23.803c-5.632,0-10.188-4.582-10.188-10.188c0-2.954,1.276-5.758,3.555-7.686
		c0.151-0.151,0.325-0.3,0.476-0.426c0.25-0.201,0.602-0.325,0.927-0.325c0.8,0,1.477,0.649,1.5,1.452
		c0,0.426-0.199,0.85-0.551,1.101L7.693,7.755C7.669,7.783,7.644,7.807,7.619,7.832S7.545,7.907,7.495,7.956
		c-1.728,1.375-2.728,3.429-2.704,5.632c0,3.98,3.229,7.211,7.208,7.211c3.98,0,7.211-3.23,7.211-7.211
		c0.022-2.203-0.953-4.256-2.68-5.606c-0.048-0.05-0.101-0.101-0.124-0.126c-0.025-0.023-0.05-0.049-0.102-0.1
		c-0.351-0.275-0.55-0.674-0.55-1.1c0-0.325,0.125-0.649,0.326-0.926c0.498-0.625,1.45-0.727,2.076-0.226
		c0.151,0.126,0.325,0.275,0.476,0.426c2.254,1.928,3.555,4.732,3.555,7.686C22.188,19.248,17.606,23.803,12,23.803z"/>
</g>
<path fill="#FFFFFF" d="M0.082,0.083v23.834H24V0.083H0.082z M10.5,2.924c0-0.8,0.649-1.477,1.477-1.477
	c0.826,0,1.477,0.652,1.478,1.477v6.959c0,0.801-0.649,1.477-1.478,1.477c-0.801,0-1.477-0.651-1.477-1.477V2.924z M12,23.553
	c-5.632,0-10.188-4.582-10.188-10.188c0-2.954,1.276-5.758,3.555-7.686c0.151-0.151,0.325-0.3,0.476-0.426
	c0.25-0.201,0.602-0.325,0.927-0.325c0.8,0,1.477,0.649,1.5,1.452c0,0.426-0.199,0.85-0.551,1.101L7.693,7.505
	C7.669,7.533,7.644,7.557,7.619,7.582S7.545,7.657,7.495,7.706c-1.728,1.375-2.728,3.429-2.704,5.632
	c0,3.98,3.229,7.211,7.208,7.211c3.98,0,7.211-3.23,7.211-7.211c0.022-2.203-0.953-4.256-2.68-5.606
	c-0.048-0.05-0.101-0.101-0.124-0.126c-0.025-0.023-0.05-0.049-0.102-0.1c-0.351-0.275-0.55-0.674-0.55-1.1
	c0-0.325,0.125-0.649,0.326-0.926c0.498-0.625,1.45-0.727,2.076-0.226c0.151,0.126,0.325,0.275,0.476,0.426
	c2.254,1.928,3.555,4.732,3.555,7.686C22.188,18.998,17.606,23.553,12,23.553z"/>
</svg>
