<?xml version="1.0" encoding="utf-8"?>
<!-- Generator: Adobe Illustrator 16.0.0, SVG Export Plug-In . SVG Version: 6.00 Build 0)  -->
<!DOCTYPE svg PUBLIC "-//W3C//DTD SVG 1.1//EN" "http://www.w3.org/Graphics/SVG/1.1/DTD/svg11.dtd">
<svg version="1.1" id="Layer_1" xmlns="http://www.w3.org/2000/svg" xmlns:xlink="http://www.w3.org/1999/xlink" x="0px" y="0px"
	 width="24px" height="24px" viewBox="0 0 24 24" enable-background="new 0 0 24 24" xml:space="preserve">
<g id="Logo_Icon">
	<rect x="8.744" y="3.97" width="1.738" height="0.869"/>
	<rect x="11.131" y="3.97" width="1.738" height="0.869"/>
	<rect x="13.519" y="3.97" width="1.737" height="0.869"/>
	<rect x="15.906" y="3.97" width="1.737" height="0.869"/>
	<rect x="18.294" y="3.97" width="1.737" height="0.869"/>
	<rect x="6.356" y="5.489" width="1.737" height="0.869"/>
	<rect x="8.744" y="5.489" width="1.738" height="0.869"/>
	<rect x="11.131" y="5.489" width="1.738" height="0.869"/>
	<rect x="13.519" y="5.489" width="1.737" height="0.869"/>
	<rect x="15.906" y="5.489" width="1.737" height="0.869"/>
	<rect x="18.294" y="5.489" width="1.737" height="0.869"/>
	<rect x="3.969" y="7.008" width="1.737" height="0.869"/>
	<rect x="6.356" y="7.008" width="1.737" height="0.869"/>
	<rect x="8.744" y="7.008" width="1.738" height="0.869"/>
	<rect x="11.131" y="7.008" width="1.738" height="0.869"/>
	<rect x="13.519" y="7.008" width="1.737" height="0.869"/>
	<rect x="15.906" y="7.008" width="1.737" height="0.869"/>
	<rect x="18.294" y="7.008" width="1.737" height="0.869"/>
	<rect x="3.969" y="8.527" width="1.737" height="0.869"/>
	<rect x="6.356" y="8.527" width="1.737" height="0.869"/>
	<rect x="8.744" y="8.527" width="1.738" height="0.869"/>
	<rect x="13.519" y="8.527" width="1.737" height="0.869"/>
	<rect x="15.906" y="8.527" width="1.737" height="0.869"/>
	<rect x="18.294" y="8.527" width="1.737" height="0.869"/>
	<rect x="3.969" y="10.046" width="1.737" height="0.869"/>
	<rect x="6.356" y="10.046" width="1.737" height="0.869"/>
	<rect x="8.744" y="10.046" width="1.738" height="0.869"/>
	<rect x="11.131" y="10.046" width="1.738" height="0.869"/>
	<rect x="13.519" y="10.046" width="1.737" height="0.869"/>
	<rect x="15.906" y="10.046" width="1.737" height="0.869"/>
	<rect x="18.294" y="10.046" width="1.737" height="0.869"/>
	<rect x="3.969" y="11.565" width="1.737" height="0.869"/>
	<rect x="6.356" y="11.565" width="1.737" height="0.869"/>
	<rect x="8.744" y="11.565" width="1.738" height="0.869"/>
	<rect x="11.131" y="11.565" width="1.738" height="0.869"/>
	<rect x="13.519" y="11.565" width="1.737" height="0.869"/>
	<rect x="15.906" y="11.565" width="1.737" height="0.869"/>
	<rect x="18.294" y="11.565" width="1.737" height="0.869"/>
	<rect x="3.969" y="13.084" width="1.737" height="0.869"/>
	<rect x="6.356" y="13.084" width="1.737" height="0.869"/>
	<rect x="8.744" y="13.084" width="1.738" height="0.869"/>
	<rect x="11.131" y="13.084" width="1.738" height="0.869"/>
	<rect x="13.519" y="13.084" width="1.737" height="0.869"/>
	<rect x="15.906" y="13.084" width="1.737" height="0.869"/>
	<rect x="3.969" y="14.604" width="1.737" height="0.869"/>
	<rect x="6.356" y="14.604" width="1.737" height="0.869"/>
	<rect x="8.744" y="14.604" width="1.738" height="0.869"/>
	<rect x="3.969" y="16.122" width="1.737" height="0.869"/>
	<rect x="6.356" y="16.122" width="1.737" height="0.869"/>
	<rect x="8.744" y="16.122" width="1.738" height="0.869"/>
	<rect x="3.969" y="17.642" width="1.737" height="0.869"/>
	<rect x="6.356" y="17.642" width="1.737" height="0.869"/>
	<rect x="3.969" y="19.161" width="1.737" height="0.869"/>
</g>
<path fill="none" d="M0,0h24v24H0V0z"/>
</svg>
