<?xml version="1.0" encoding="utf-8"?>
<!-- Generator: Adobe Illustrator 16.0.0, SVG Export Plug-In . SVG Version: 6.00 Build 0)  -->
<!DOCTYPE svg PUBLIC "-//W3C//DTD SVG 1.1//EN" "http://www.w3.org/Graphics/SVG/1.1/DTD/svg11.dtd">
<svg version="1.1" id="Layer_1" xmlns="http://www.w3.org/2000/svg" xmlns:xlink="http://www.w3.org/1999/xlink" x="0px" y="0px"
	 width="196.68px" height="53.439px" viewBox="0 0 196.68 53.439" enable-background="new 0 0 196.68 53.439" xml:space="preserve">
<g id="Cryptohopper">
	<path fill-rule="evenodd" clip-rule="evenodd" d="M160.797,0c0.218,2.368-0.679,4.269-2.362,5.893
		c-0.451,0.436-1.545,0.497-1.113,1.585c0.404,1.021,1.019,1.838,2.164,2.021c0.908,0.145,1.811,0.028,2.717-0.203
		c2.775-0.709,5.436-1.836,8.276-2.303c5.784-0.951,10.72,1.145,15.155,4.529c6.809,5.197,9.373,12.086,7.671,20.528
		c-0.802,3.978-1.063,7.982-0.293,11.999c0.445,2.323,1.362,4.424,3.097,6.104c0.291,0.283,0.795,0.576,0.461,1.039
		c-0.291,0.398-0.787,0.201-1.182,0.016c-2.377-1.114-4.076-2.864-4.949-5.365c-1.417-4.061-1.434-8.258-1.201-12.481
		c0.247-4.467-0.303-8.771-2.654-12.693c-0.313-0.522-0.699-1-1.041-1.506c-0.172-0.256-0.318-0.528-0.652-1.09
		c-0.73,2.521-2.094,4.022-3.639,5.423c-1.938,1.756-2.449,3.988-1.957,6.514c0.631,3.243,2.063,6.123,4.031,8.73
		c0.66,0.875,0.694,1.535,0.114,2.452c-2.039,3.218-3.853,6.524-3.628,10.545c0.042,0.746-0.431,1.564-1.151,1.688
		c-0.831,0.142-0.94-0.822-1.153-1.405c-0.605-1.662-0.479-3.363-0.049-5.042c0.24-0.945,0.512-1.887,0.857-2.797
		c1.268-3.322,0.676-6.195-1.902-8.686c-3.254-3.143-4.859-7.046-5.463-11.502c-0.382-2.814,0.398-5.249,1.939-7.958
		c-1.956,0.799-2.758,2.148-3.369,3.545c-0.537,1.226-1.233,1.732-2.299,0.846c-2.647-2.202-4.793-0.89-6.934,0.813
		c-0.287,0.229-0.603,0.43-0.854,0.691c-0.341,0.356-1.07,0.7-0.482,1.286c0.494,0.494,1.158,0.311,1.621-0.199
		c0.238-0.263,0.348-0.641,0.55-0.943c0.444-0.664,1.099-0.47,1.646-0.265c0.755,0.279,0.447,0.889,0.248,1.389
		c-0.619,1.557-1.809,2.188-3.453,2.18c-1.787-0.011-3.035-0.801-3.766-2.402c-0.506-1.109,0.506-1.539,1.092-2.049
		c0.854-0.741,1.015-1.231,0.125-2.159c-1.976-2.055-3.186-4.613-4.114-7.278c-0.363-1.042-0.798-1.475-1.966-1.272
		c-1.191,0.205-2.463,0.273-3.557-0.453c-0.841-0.557-1.374-1.219-0.004-1.803c1.266-0.541,2.281-1.222,2.777-2.661
		c0.313-0.911,1.492-0.597,2.274-0.844c0.563-0.178,1.415,0.063,1.651-0.567c0.752-2.015,2.584-2.794,4.152-3.89
		C159.085,0,159.942,0,160.797,0z M173.036,16.075c0.044-0.029,0.088-0.061,0.132-0.09c-0.035-0.041-0.067-0.107-0.107-0.113
		c-0.039-0.004-0.086,0.053-0.129,0.084C172.965,15.995,173,16.036,173.036,16.075z"/>
	<g>
		<path fill-rule="evenodd" clip-rule="evenodd" d="M38.882,27.514c-1.256-0.026-1.37,0.694-1.568,1.527
			c-0.742,3.118-1.443,6.248-2.752,9.596c-1.632-3.426-2.638-6.66-3.505-9.934c-0.238-0.897-0.608-1.122-1.479-1.182
			c-1.064-0.072-2.095,0.594-3.059,0.295c-2.681-0.828-5.289-0.527-7.935,0.079c-1.027,0.235-1.313,0.745-1.296,1.782
			c0.065,4.031,0.082,8.064-0.004,12.094c-0.029,1.347,0.464,1.666,1.692,1.611c1.113-0.049,2.013,0.05,1.958-1.569
			c-0.108-3.173,0.045-6.355-0.066-9.528c-0.05-1.436,0.585-1.84,1.806-1.821c0.548,0.009,1.149-0.064,1.633,0.13
			c1.604,0.648,2.085-0.161,2.228-1.548c0.028-0.276,0.121-0.546,0.184-0.817c1.712,4.881,3.572,9.561,5.833,14.086
			c0.581,1.163-0.365,2.698-1.85,3.143c-0.719,0.215-1.459,0.199-2.174,0.014c-0.898-0.233-1.313,0.066-1.581,0.968
			c-0.396,1.325-0.144,1.978,1.342,2.224c3.087,0.51,5.655-0.688,7.216-3.755c2.417-4.748,3.867-9.854,5.283-14.962
			C41.439,27.587,41.313,27.567,38.882,27.514z"/>
		<path fill-rule="evenodd" clip-rule="evenodd" d="M122.392,27.475c-2.012-0.358-3.989-0.046-5.993,0.18
			c-1.745,0.197-2.151,0.988-2.062,2.621c0.143,2.615,0.039,5.242,0.039,7.863c0,2.986,0.028,5.975-0.016,8.961
			c-0.016,1.063,0.303,1.509,1.446,1.557c1.533,0.065,2.492-0.181,2.176-2.035c-0.122-0.711,0.019-1.463-0.029-2.19
			c-0.062-0.96,0.174-1.339,1.241-1.021c1.419,0.423,2.886,0.404,4.319-0.039c4.544-1.404,6.5-8.061,3.708-12.629
			C126.111,28.924,124.488,27.846,122.392,27.475z M124.463,37.787c-0.592,2.054-2.263,2.996-4.585,2.551
			c-1.228-0.235-2.181-0.684-1.953-2.271c0.136-0.956,0.024-1.949,0.024-2.924c0-0.49,0-0.978,0-1.466
			c0-3.163,1.188-3.972,4.178-2.849C124.369,31.671,125.368,34.648,124.463,37.787z"/>
		<path fill-rule="evenodd" clip-rule="evenodd" d="M137.586,27.377c-2.208-0.291-4.373,0.078-6.53,0.521
			c-0.643,0.132-0.917,0.474-0.916,1.137c0.012,6.161,0.01,12.322,0.007,18.484c0,1.58,1.196,1.018,1.992,1.09
			c0.811,0.072,1.611,0.09,1.542-1.164c-0.077-1.393-0.017-2.791-0.017-4.306c0.612,0.155,1.076,0.286,1.546,0.389
			c4.439,0.962,8.041-1.534,8.75-6.039c0.201-1.278,0.217-2.54,0.011-3.819C143.41,30.17,141.079,27.836,137.586,27.377z
			 M138.822,39.814c-1.113,0.807-3.623,0.746-4.704-0.026c-0.508-0.363-0.448-0.812-0.453-1.284
			c-0.007-1.098-0.002-2.195-0.002-3.293c0-0.793,0-1.586,0-2.379c0.001-2.299,0.121-2.412,2.469-2.32
			c2.015,0.078,3.489,1.116,4.041,2.844C140.91,35.658,140.257,38.775,138.822,39.814z"/>
		<path fill-rule="evenodd" clip-rule="evenodd" d="M96.23,33.592c-0.136-4.309-2.476-6.426-6.804-6.287
			c-0.486,0.016-0.976,0.063-1.451,0.161c-0.82,0.171-1.086-0.151-1.066-0.953c0.038-1.525,0.037-3.054-0.002-4.579
			c-0.017-0.656,0.269-1.794-0.892-1.528c-0.947,0.217-2.649-0.572-2.632,1.571c0.053,6.655,0.054,13.312-0.009,19.967
			c-0.013,1.371,0.648,1.45,1.688,1.43c1.03-0.02,1.974,0.096,1.879-1.443c-0.097-1.582-0.021-3.174-0.021-4.763
			c0.001-1.71-0.008-3.419,0.006-5.128c0.004-0.518-0.103-1.012,0.645-1.299c2.684-1.028,4.906,0.232,5.036,3.063
			c0.126,2.741,0.149,5.491,0.107,8.236c-0.022,1.451,0.86,1.323,1.806,1.325c0.955,0.002,1.809,0.113,1.76-1.348
			C96.186,39.211,96.319,36.397,96.23,33.592z"/>
		<path fill-rule="evenodd" clip-rule="evenodd" d="M154.314,27.487c-2.764-0.729-5.301-0.194-7.176,1.959
			c-2.516,2.888-2.67,6.307-1.444,9.794c0.976,2.776,3.177,4.09,5.985,4.373c1.57,0.159,3.146,0.037,4.721-0.313
			c1.486-0.331,1.523-1.077,1.258-2.36c-0.326-1.576-1.168-0.948-2.02-0.739c-1.26,0.308-2.551,0.288-3.818,0.114
			c-1.299-0.178-2.2-0.965-2.703-2.189c-0.397-0.967-0.439-1.629,0.965-1.521c1.213,0.094,2.438,0.021,3.658,0.02
			c1.342-0.001,2.684,0.009,4.025-0.005c0.461-0.006,0.932,0.101,1.144-0.584C159.888,32.877,157.471,28.319,154.314,27.487z
			 M155.117,33.145c-0.172,1.07-1.402,0.353-2.142,0.535c-0.286,0.068-0.604,0.01-0.907,0.01c-0.545,0-1.094,0.035-1.636-0.01
			c-0.454-0.037-1.052,0.258-1.333-0.234c-0.301-0.526,0.063-1.054,0.352-1.514c0.852-1.363,2.588-1.959,3.955-1.338
			C154.495,31.088,155.291,32.065,155.117,33.145z"/>
		<path fill-rule="evenodd" clip-rule="evenodd" d="M107.398,27.499c-3.31-0.905-6.557,0.317-8.265,3.109
			c-2.001,3.273-1.58,8.321,0.912,10.926c2.03,2.122,5.365,2.84,8.097,1.661c3.342-1.443,4.448-4.277,4.609-7.296
			C112.773,31.535,110.683,28.397,107.398,27.499z M108.703,37.834c-0.563,1.68-1.68,2.688-3.512,2.64
			c-1.849-0.049-2.874-1.204-3.374-2.853c-0.209-0.689-0.204-1.443-0.299-2.195c0.103-0.713,0.113-1.466,0.33-2.152
			c0.519-1.641,1.543-2.79,3.398-2.817c1.847-0.025,2.919,1.041,3.476,2.701C109.242,34.713,109.224,36.279,108.703,37.834z"/>
		<path fill-rule="evenodd" clip-rule="evenodd" d="M76.284,27.494c-3.999-1.069-7.745,0.932-8.999,4.807
			c-1.503,4.645,0.417,9.554,4.29,10.966c5.287,1.927,10.069-1.767,10.066-7.772C81.639,31.412,79.61,28.384,76.284,27.494z
			 M77.736,37.572c-0.555,1.916-1.802,2.928-3.512,2.922c-1.701-0.005-2.962-1.039-3.485-2.942c-0.175-0.64-0.198-1.321-0.261-1.777
			c0.05-0.765,0.039-1.321,0.13-1.858c0.357-2.105,1.811-3.473,3.639-3.469c1.759,0.004,3.211,1.285,3.588,3.307
			C78.071,35.018,78.099,36.317,77.736,37.572z"/>
		<path fill-rule="evenodd" clip-rule="evenodd" d="M65.105,40.211c-2.682,0.754-3.772-0.044-3.986-2.802
			c-0.057-0.728-0.058-1.466-0.007-2.193c0.1-1.441-0.643-3.296,0.329-4.2c0.736-0.686,2.546-0.218,3.879-0.262
			c0.183-0.006,0.365-0.004,0.548-0.008c0.685-0.015,0.911-0.404,0.992-1.049c0.226-1.785-0.089-2.127-2.111-2.135
			c-3.572-0.013-3.562-0.013-3.655-3.018c-0.02-0.658,0.274-1.718-0.978-1.41c-0.937,0.229-2.505-0.411-2.458,1.542
			c0.055,2.315,0.013,4.634,0.013,6.951c0.02,0,0.04,0,0.06,0.001c0,2.438-0.107,4.883,0.027,7.313
			c0.161,2.911,1.832,4.523,4.602,4.695c1.221,0.076,2.413-0.068,3.619-0.342c1.436-0.323,1.381-1.07,1.116-2.259
			C66.774,39.605,66.083,39.937,65.105,40.211z"/>
		<path fill-rule="evenodd" clip-rule="evenodd" d="M169.034,27.496c-2.396-0.359-4.73-0.181-7.052,0.445
			c-0.787,0.213-1.2,0.568-1.162,1.509c0.085,2.069,0.026,4.144,0.026,6.216c-0.001,1.949,0.085,3.904-0.028,5.848
			c-0.084,1.451,0.401,1.863,1.854,1.893c1.592,0.029,1.813-0.649,1.768-1.975c-0.08-2.375-0.022-4.753-0.022-7.13
			c0-4.076,0.005-4.117,4.079-3.536c1.326,0.188,1.32-0.61,1.502-1.479C170.19,28.365,170.297,27.686,169.034,27.496z"/>
		<path fill-rule="evenodd" clip-rule="evenodd" d="M13.943,39.826c-4.858,1.787-8.552,0.122-9.575-4.199
			c-0.453-1.91-0.44-3.882,0.177-5.792c0.962-2.978,3.305-4.544,6.425-4.304c1.103,0.086,2.176,0.324,3.171,0.817
			c0.819,0.407,1.46,0.317,1.64-0.653c0.151-0.814,1.188-1.667-0.279-2.459c-5.411-2.927-12.47-0.332-14.609,5.43
			c-0.222,0.597-0.292,0.807-0.74,1.775c-0.255,1.609-0.146,3.141,0,4.769c0.198,0.856,0.434,1.35,0.657,2.021
			c1.06,3.195,3.065,5.414,6.394,6.183c2.728,0.629,5.448,0.41,8.12-0.483c1.036-0.348,1.235-0.862,0.915-1.901
			C15.842,39.744,15.467,39.266,13.943,39.826z"/>
		<path fill-rule="evenodd" clip-rule="evenodd" d="M49.143,27.34c-1.958-0.176-3.885,0.121-5.817,0.48
			c-1.1,0.205-1.34,0.704-1.329,1.725c0.047,4.336,0.02,8.672,0.02,13.007c0,1.588,0.04,3.177-0.01,4.763
			c-0.051,1.635,1.116,1.252,2.031,1.302c0.907,0.05,1.715,0.05,1.621-1.286c-0.095-1.33-0.021-2.674-0.021-4.301
			c1.857,0.771,3.51,0.824,5.127,0.453c3.267-0.748,5.047-3.376,5.31-7.629C56.359,31.225,53.542,27.734,49.143,27.34z
			 M50.924,39.668c-1.093,0.912-3.697,0.957-4.831,0.155c-0.504-0.357-0.453-0.808-0.455-1.282
			c-0.004-1.098-0.001-2.195-0.001-3.291c0-0.915,0.118-1.848-0.025-2.738c-0.284-1.765,0.64-2.049,2.081-2.018
			c2.23,0.045,3.652,0.876,4.335,2.681C52.841,35.322,52.297,38.522,50.924,39.668z"/>
	</g>
	<path fill-rule="evenodd" clip-rule="evenodd" d="M173.036,16.075c-0.035-0.039-0.07-0.08-0.104-0.119
		c0.043-0.031,0.09-0.088,0.129-0.084c0.04,0.006,0.072,0.072,0.107,0.113C173.124,16.015,173.08,16.046,173.036,16.075z"/>
</g>
</svg>
