<?xml version="1.0" encoding="utf-8"?>
<!-- Generator: Adobe Illustrator 16.0.0, SVG Export Plug-In . SVG Version: 6.00 Build 0)  -->
<!DOCTYPE svg PUBLIC "-//W3C//DTD SVG 1.1//EN" "http://www.w3.org/Graphics/SVG/1.1/DTD/svg11.dtd">
<svg version="1.1" id="Layer_1" xmlns="http://www.w3.org/2000/svg" xmlns:xlink="http://www.w3.org/1999/xlink" x="0px" y="0px"
	 width="97.85px" height="62.182px" viewBox="0 0 97.85 62.182" enable-background="new 0 0 97.85 62.182" xml:space="preserve">
<g id="EonBot">
	<path fill-rule="evenodd" clip-rule="evenodd" d="M34.059,25.094c2.394-2.133,4.578-4.079,6.738-6.004
		c-1.973-2.023-3.722-3.815-5.597-5.736c-2.695,2.717-5.31,5.386-7.973,8.004c-0.483,0.475-1.16,1.049-1.759,1.063
		c-4.215,0.091-8.433,0.048-13.022,0.048c0.77-0.896,1.264-1.47,1.739-2.024c-1.556-1.604-3.041-3.135-4.211-4.341
		C6.591,19.383,3.246,22.625,0,25.77c3.217,3.211,6.477,6.463,9.741,9.721c1.468-1.381,3.02-2.841,4.564-4.294
		c-0.588-0.768-1.031-1.345-1.614-2.106c4.623,0,8.947-0.043,13.27,0.045c0.679,0.014,1.48,0.471,1.996,0.965
		c2.445,2.34,4.811,4.764,7.065,7.019c1.896-1.788,3.762-3.548,5.918-5.581C38.711,29.449,36.577,27.452,34.059,25.094z"/>
	<path fill-rule="evenodd" clip-rule="evenodd" d="M26.014,32.13c-1.629,1.947-3.227,3.854-5.187,6.198
		c-1.856-2.1-3.456-3.908-5.04-5.699c-1.6,1.581-3.077,3.041-4.456,4.404c3.335,3.329,6.635,6.623,9.876,9.859
		c3.273-3.21,6.551-6.423,9.879-9.686C29.558,35.678,28.05,34.168,26.014,32.13z"/>
	<path fill-rule="evenodd" clip-rule="evenodd" d="M88.013,15.15c-1.543,1.48-3.084,2.959-4.613,4.427
		c0.674,0.761,1.168,1.319,1.924,2.173c-4.73,0-9.04,0.039-13.347-0.045c-0.603-0.012-1.302-0.519-1.77-0.984
		c-2.441-2.429-4.821-4.918-7.013-7.17c-2.099,1.865-3.973,3.531-6.088,5.411c2.282,2.133,4.426,4.135,6.829,6.382
		c-2.356,2.181-4.504,4.167-6.729,6.226c2.065,2.003,3.909,3.792,5.867,5.69c2.475-2.514,4.946-5.143,7.567-7.612
		c0.695-0.655,1.844-1.146,2.794-1.163c5.842-0.104,11.696-0.246,17.527,0.025c3.184,0.147,5.413-0.844,6.887-3.283
		C94.603,21.901,91.351,18.57,88.013,15.15z"/>
	<path fill-rule="evenodd" clip-rule="evenodd" d="M76.433,37.609c-1.892-2.156-3.448-3.931-5.154-5.875
		c-1.71,1.76-3.195,3.289-4.635,4.77c3.344,3.35,6.589,6.602,9.772,9.79c3.367-3.349,6.655-6.62,9.549-9.498
		c-1.25-1.54-2.586-3.188-4.446-5.481C79.771,33.478,78.252,35.357,76.433,37.609z"/>
	<path fill-rule="evenodd" clip-rule="evenodd" d="M49.091,10.367c2.234,2.45,4.211,4.619,6.254,6.861
		c2-2.044,3.759-3.841,5.498-5.617C56.894,7.672,52.933,3.721,49.201,0c-3.917,3.869-7.893,7.795-11.694,11.549
		c1.622,1.767,3.317,3.613,5.267,5.734C44.871,14.986,46.847,12.823,49.091,10.367z"/>
	<path fill-rule="evenodd" clip-rule="evenodd" d="M48.887,40.611c-2.256-2.571-4.228-4.817-6.096-6.946
		c-2.028,1.983-3.818,3.733-5.547,5.423c3.962,3.988,7.906,7.96,11.845,11.926c3.927-3.921,7.853-7.84,11.828-11.811
		c-1.876-1.927-3.622-3.722-5.492-5.643C53.361,35.785,51.361,37.942,48.887,40.611z"/>
	<path fill-rule="evenodd" clip-rule="evenodd" d="M21.327,13.355c1.797,2.038,3.365,3.816,5.029,5.704
		c1.746-1.771,3.243-3.289,4.657-4.724c-3.336-3.348-6.584-6.607-9.873-9.907c-3.35,3.319-6.615,6.556-9.755,9.667
		c1.491,1.507,2.992,3.025,4.938,4.992C17.887,17.297,19.48,15.471,21.327,13.355z"/>
	<path fill-rule="evenodd" clip-rule="evenodd" d="M76.829,12.518c1.882,2.098,3.493,3.893,4.78,5.326
		c1.711-1.547,3.285-2.971,4.692-4.243c-3.245-3.303-6.459-6.573-9.457-9.624c-3.339,3.264-6.691,6.54-9.944,9.72
		c1.379,1.458,2.805,2.966,4.48,4.737C73.104,16.562,74.75,14.774,76.829,12.518z"/>
	<path fill-rule="evenodd" clip-rule="evenodd" d="M54.749,57.17c-2.06-0.314-2.236,0.844-1.995,2.256
		c-0.029,1.453-0.443,2.895,1.868,2.709c2.415-0.193,2.423-0.033,2.403-3.47C57.016,56.997,55.781,57.327,54.749,57.17z
		 M55.039,58.281c0.126,0.107,0.328,0.283,0.531,0.457c-0.228,0.152-0.439,0.357-0.689,0.43c-0.108,0.031-0.392-0.19-0.427-0.338
		C54.379,58.523,54.528,58.283,55.039,58.281z M55.015,61.05c-0.286,0.012-0.573-0.063-0.572-0.44
		c0.001-0.377,0.297-0.448,0.577-0.439c0.267,0.008,0.563,0.054,0.6,0.357C55.575,60.959,55.297,61.039,55.015,61.05z"/>
	<path fill-rule="evenodd" clip-rule="evenodd" d="M18.167,60.817c-0.083-0.079-0.069-0.259-0.066-0.244
		c0.389-1.026,2.017,0.261,1.95-1.108c-0.043-0.901-1.285-0.139-2.047-0.897c0.684-0.081,1.25-0.097,1.784-0.239
		c0.193-0.051,0.364-0.389,0.43-0.628c0.029-0.108-0.192-0.351-0.352-0.437c-1.673-0.9-3.561,0.172-3.569,2.016
		c-0.002,0.43,0.038,0.862-0.007,1.287c-0.11,1.039,0.172,1.732,1.371,1.51c0.909-0.169,2.412,0.615,2.599-0.539
		C20.417,60.565,18.787,61.41,18.167,60.817z"/>
	<path fill-rule="evenodd" clip-rule="evenodd" d="M45.011,59.092c0.06-0.274,0.007-0.573,0.006-0.861
		c-0.003-0.534-0.045-1.024-0.778-1.009c-0.613,0.013-0.649,0.422-0.657,0.878c-0.006,0.346-0.034,0.692-0.062,1.191
		c-1.133-0.688-1.237-2.523-2.578-1.957c-1.049,0.443-0.256,1.808-0.443,2.74c-0.07,0.346-0.01,0.718-0.006,1.078
		c0.006,0.457,0.067,0.871,0.668,0.879c0.596,0.008,0.656-0.385,0.698-0.853c0.034-0.366-0.175-0.812,0.227-1.122
		c0.911,0.563,1.021,2.369,2.319,1.904C45.654,61.514,44.801,60.07,45.011,59.092z"/>
	<path fill-rule="evenodd" clip-rule="evenodd" d="M30.381,57.158c-1.684,0.055-2.51,0.906-2.502,2.559
		c0.01,1.691,0.93,2.475,2.56,2.44c1.546-0.032,2.335-0.839,2.354-2.42C32.813,58.063,31.999,57.236,30.381,57.158z M30.223,61.023
		c-0.771-0.109-0.959-0.774-0.92-1.464c0.036-0.64,0.359-1.136,1.044-1.114c0.817,0.027,1.014,0.648,1.041,1.368
		C31.245,60.446,31.065,61.143,30.223,61.023z"/>
	<path fill-rule="evenodd" clip-rule="evenodd" d="M67.272,57.182c-1.646-0.02-2.513,0.791-2.531,2.47
		c-0.019,1.688,0.845,2.481,2.086,2.509c2.101-0.014,2.855-0.941,2.826-2.572C69.626,58.045,68.838,57.199,67.272,57.182z
		 M67.19,61.042c-0.671,0.046-0.958-0.56-1.025-1.158c-0.079-0.7,0.178-1.247,0.804-1.442c0.824-0.008,1.187,0.383,1.246,1.029
		C68.286,60.244,68.095,60.98,67.19,61.042z"/>
	<path fill-rule="evenodd" clip-rule="evenodd" d="M80.873,57.221c-0.573-0.024-1.148-0.008-1.724-0.004
		c-0.575,0.003-1.168-0.089-1.72,0.025c-0.734,0.153-0.594,1.045-0.261,1.072c1.865,0.156,1.288,1.492,1.37,2.52
		c0.044,0.553-0.106,1.266,0.799,1.191c0.896-0.072,0.569-0.821,0.642-1.33c0.134-0.934-0.538-2.286,1.287-2.314
		c0.263-0.004,0.313-0.42,0.251-0.725C81.444,57.293,81.152,57.232,80.873,57.221z"/>
</g>
</svg>
