<?xml version="1.0" encoding="utf-8"?>
<!-- Generator: Adobe Illustrator 16.0.0, SVG Export Plug-In . SVG Version: 6.00 Build 0)  -->
<!DOCTYPE svg PUBLIC "-//W3C//DTD SVG 1.1//EN" "http://www.w3.org/Graphics/SVG/1.1/DTD/svg11.dtd">
<svg version="1.1" id="Layer_1" xmlns="http://www.w3.org/2000/svg" xmlns:xlink="http://www.w3.org/1999/xlink" x="0px" y="0px"
	 width="169.608px" height="27.729px" viewBox="0 0 169.608 27.729" enable-background="new 0 0 169.608 27.729"
	 xml:space="preserve">
<g id="Gimmer">
	<path fill-rule="evenodd" clip-rule="evenodd" d="M68.784,0.026c-8.636-0.006-17.271-0.007-25.907,0
		c-2.504,0.002-4.316,1.695-4.58,4.189c-0.687,6.515-1.392,13.027-2.088,19.541c-0.127,1.196-0.241,2.395-0.362,3.602
		c3.432,0,6.743,0,10.108,0c0.703-6.678,1.4-13.313,2.102-19.976c0.636,0,1.206,0,1.858,0c-0.72,6.667-1.432,13.274-2.155,19.97
		c3.438,0,6.799,0,10.189,0c0.705-6.689,1.402-13.324,2.102-19.967c0.656,0,1.227,0,1.861,0c-0.699,6.686-1.393,13.313-2.089,19.962
		c3.423,0,6.757,0,10.125,0c0.247-2.328,0.486-4.599,0.727-6.868c0.585-5.479,1.188-10.955,1.744-16.438
		C72.665,1.587,71.223,0.028,68.784,0.026z"/>
	<path fill-rule="evenodd" clip-rule="evenodd" d="M108.771,2.937c-0.299-1.802-1.706-2.91-3.705-2.912
		c-8.483-0.003-16.967-0.001-25.449-0.001c-3.066,0.001-4.726,1.548-5.041,4.612c-0.629,6.086-1.293,12.169-1.938,18.254
		c-0.157,1.479-0.302,2.96-0.456,4.483c3.397,0,6.713,0,10.112,0c0.273-2.604,0.54-5.128,0.805-7.651
		c0.412-3.939,0.816-7.879,1.251-11.816c0.021-0.203,0.253-0.515,0.427-0.544c0.459-0.077,0.94-0.026,1.485-0.026
		c-0.704,6.742-1.398,13.367-2.096,20.038c3.415,0,6.731,0,10.122,0c0.702-6.677,1.401-13.327,2.102-19.974c0.656,0,1.221,0,1.859,0
		c-0.699,6.696-1.391,13.318-2.085,19.963c3.446,0,6.761,0,10.096,0c0.044-0.295,0.092-0.544,0.117-0.795
		c0.81-7.6,1.618-15.199,2.419-22.799C108.825,3.495,108.817,3.208,108.771,2.937z"/>
	<path fill-rule="evenodd" clip-rule="evenodd" d="M18.003,11.144c-3.351,2.096-5.124,5.18-5.462,9.105c-0.646,0-1.217,0-1.845,0
		c0.019-0.327,0.022-0.601,0.052-0.871c0.388-3.661,0.798-7.319,1.155-10.983c0.063-0.665,0.242-0.897,0.943-0.89
		c3.429,0.037,6.859,0.017,10.288,0.017c0.3,0,0.6,0,0.957,0c0.131-1.282,0.263-2.489,0.377-3.698
		c0.197-2.104-1.231-3.773-3.328-3.786c-4.902-0.03-9.805-0.036-14.707,0.001c-2.21,0.018-4.047,1.714-4.287,3.9
		c-0.724,6.588-1.435,13.176-2.119,19.768c-0.252,2.421,1.227,4.016,3.643,4.018c5.817,0.004,11.633,0.002,17.45,0
		c0.268,0,0.537-0.023,0.825-0.037c0.645-6.08,1.282-12.078,1.929-18.168C21.683,9.507,19.755,10.049,18.003,11.144z"/>
	<path fill-rule="evenodd" clip-rule="evenodd" d="M129.503,0.026c-4.698-0.01-9.396-0.01-14.093,0
		c-2.492,0.006-4.334,1.719-4.584,4.188c-0.265,2.626-0.563,5.249-0.844,7.873c-0.427,3.988-0.878,7.975-1.271,11.965
		c-0.209,2.129,1.146,3.656,3.215,3.664c5.053,0.018,10.105,0.018,15.159,0c1.864-0.008,3.539-1.24,3.848-3.08
		c0.385-2.287,0.528-4.617,0.775-6.919c-0.164-0.055-0.234-0.099-0.305-0.099c-2.488-0.001-4.979-0.052-7.465,0.042
		c-0.619,0.024-1.324,0.398-1.803,0.823c-0.482,0.428-0.729,1.119-1.117,1.755c-0.458,0-1.027,0-1.683,0
		c0.165-1.559,0.323-3.054,0.491-4.63c4.052,0,8.008,0,12.057,0c0.055-0.399,0.1-0.673,0.128-0.948
		c0.376-3.509,0.738-7.019,1.127-10.526C133.408,1.729,131.936,0.033,129.503,0.026z M122.225,11.096
		c-0.014,0.114-0.271,0.272-0.425,0.286c-0.448,0.038-0.901,0.013-1.473,0.013c0.128-1.331,0.25-2.594,0.374-3.876
		c0.652,0,1.222,0,1.872,0C122.46,8.746,122.363,9.924,122.225,11.096z"/>
	<path fill-rule="evenodd" clip-rule="evenodd" d="M153.767,0.034c-4.875-0.029-9.75-0.033-14.626,0.002
		c-2.312,0.016-4.135,1.792-4.379,4.072c-0.686,6.436-1.391,12.87-2.087,19.305c-0.141,1.303-0.267,2.607-0.405,3.957
		c3.465,0,6.829,0,10.271,0c0.71-6.658,1.419-13.288,2.135-19.986c0.66,0,1.229,0,1.874,0c-0.267,2.67-0.527,5.281-0.796,7.961
		c0.337,0,0.586,0.02,0.832-0.002c3.068-0.268,5.655-1.521,7.729-3.809c1.934-2.131,2.689-4.703,2.913-7.517
		C157.406,1.77,156.019,0.047,153.767,0.034z"/>
	<path fill-rule="evenodd" clip-rule="evenodd" d="M168.217,0.683c-0.224,0.496-0.537,0.952-0.868,1.524
		c-0.387-0.681-0.653-1.292-1.055-1.796c-0.185-0.232-0.628-0.297-0.966-0.342c-0.069-0.008-0.271,0.419-0.279,0.65
		c-0.031,1.012-0.016,2.026-0.015,3.041c0.003,1.039,0.02,1.052,1.177,0.84c0-0.35,0-0.723,0-1.095c0-0.349,0-0.698,0-1.056
		c0.44,0.436,0.782,1.043,1.155,1.063c0.33,0.019,0.695-0.618,1.116-1.037c0,0.466,0,0.887,0,1.306
		c0.002,1.02,0.028,1.04,1.125,0.83c0-1.498,0-3,0-4.494C168.933-0.112,168.503,0.054,168.217,0.683z"/>
	<path fill-rule="evenodd" clip-rule="evenodd" d="M164.045,0.055c-1.157-0.046-2.318-0.026-3.439-0.026
		c-0.57,1.418,0.609,0.988,1.223,1.212c0,1.145,0,2.272,0,3.384c1.268,0.193,1.269,0.193,1.269-0.915c0-0.831,0-1.661,0-2.58
		c0.373,0,0.688,0.062,0.958-0.022c0.167-0.052,0.381-0.332,0.369-0.494C164.408,0.409,164.188,0.061,164.045,0.055z"/>
	<path fill-rule="evenodd" clip-rule="evenodd" d="M36.591,3.659c0.167-1.984-1.149-3.514-3.148-3.613
		c-1.289-0.064-2.586-0.059-3.876,0c-1.635,0.072-2.886,1.156-3.113,2.715c-0.218,1.477-0.334,2.967-0.504,4.545
		c3.46,0,6.817,0,10.243,0C36.331,6.067,36.49,4.865,36.591,3.659z"/>
	<path fill-rule="evenodd" clip-rule="evenodd" d="M23.562,27.673c3.505,0,6.895,0,10.323,0c0.646-6.038,1.285-12.029,1.931-18.061
		c-3.485,0-6.854,0-10.327,0C24.841,15.676,24.203,21.667,23.562,27.673z"/>
</g>
</svg>
