<?xml version="1.0" encoding="utf-8"?>
<!-- Generator: Adobe Illustrator 16.0.0, SVG Export Plug-In . SVG Version: 6.00 Build 0)  -->
<!DOCTYPE svg PUBLIC "-//W3C//DTD SVG 1.1//EN" "http://www.w3.org/Graphics/SVG/1.1/DTD/svg11.dtd">
<svg version="1.1" id="Layer_1" xmlns="http://www.w3.org/2000/svg" xmlns:xlink="http://www.w3.org/1999/xlink" x="0px" y="0px"
	 width="77.553px" height="97.271px" viewBox="0 0 77.553 97.271" enable-background="new 0 0 77.553 97.271" xml:space="preserve">
<g id="Gunbot">
	<path fill="none" d="M35.809,3.119c-0.044,0-0.087,0.006-0.132,0.007c0.146-0.001,0.292,0.003,0.438,0.005
		C36.014,3.129,35.91,3.119,35.809,3.119z"/>
	<path d="M74.068,26.824c-4.611-6.876-11.139-11.66-17.453-16.287l-0.638-0.468l-2.363-1.731l-1.876,2.248
		C43.575,20.363,35.53,30,27.413,39.725l-2.064,2.471l2.536,1.984l2.897,2.268l4.35,3.403l2.404,1.881l1.933-2.362l14.862-18.16
		c1.302,1.305,2.526,2.555,3.548,3.876c0.912,1.181,1.094,1.709-0.252,3.446l-0.949,1.224c-1.515,1.958-3.081,3.983-4.66,5.919
		l-1.282,1.574c-2.914,3.578-5.927,7.277-8.979,10.809c-1.173,1.357-2.38,2.046-3.585,2.046c-1.045,0-2.193-0.49-3.411-1.458
		c-1.089-0.864-2.182-1.725-3.275-2.585c-2.627-2.068-5.343-4.206-7.944-6.364c-1.877-1.558-3.389-3.025-4.624-4.485
		c-1.384-1.639-1.683-3.438-0.913-5.501c0.575-1.544,1.303-2.894,2.104-3.903c4.12-5.192,8.46-10.489,12.9-15.739
		c1.975-2.337,2.558-2.347,2.94-2.347c0.001,0,0.003,0,0.004,0c0.838,0,2.237,0.528,3.217,0.925l2.121,0.859l1.457-1.765
		l4.182-5.063l3.197-3.873l2.61-3.162l-3.743-1.672c-0.739-0.331-1.462-0.686-2.161-1.028c-1.567-0.769-3.188-1.563-4.957-2.055
		C39.76,0.299,37.719,0,35.809,0c-5.234,0-9.659,2.166-13.151,6.438c-3.778,4.623-7.645,9.309-11.385,13.839
		c-2.682,3.25-5.456,6.609-8.176,9.923c-0.627,0.763-1.166,1.677-1.557,2.642c-1.611,3.975-1.973,8.586-1.018,12.984
		c0.985,4.543,3.317,8.533,6.567,11.235c7.751,6.444,14.731,11.817,21.343,16.428c2.742,1.911,3.791,3.654,3.885,6.468l2.048,17.314
		l4.498-5.298c0.258-0.304,0.477-0.558,0.669-0.782c0.368-0.428,0.658-0.764,0.95-1.131l6.529-8.191
		c8.527-10.7,17.346-21.765,26.008-32.656c2.796-3.515,4.313-7.213,4.51-10.991C77.73,34.384,76.564,30.549,74.068,26.824z"/>
</g>
</svg>
