<?xml version="1.0" encoding="utf-8"?>
<!-- Generator: Adobe Illustrator 16.0.0, SVG Export Plug-In . SVG Version: 6.00 Build 0)  -->
<!DOCTYPE svg PUBLIC "-//W3C//DTD SVG 1.1//EN" "http://www.w3.org/Graphics/SVG/1.1/DTD/svg11.dtd">
<svg version="1.1" id="Layer_1" xmlns="http://www.w3.org/2000/svg" xmlns:xlink="http://www.w3.org/1999/xlink" x="0px" y="0px"
	 width="158.917px" height="54.023px" viewBox="0 0 158.917 54.023" enable-background="new 0 0 158.917 54.023"
	 xml:space="preserve">
<g id="Haasbot">
	<path fill-rule="evenodd" clip-rule="evenodd" d="M147.058,19.519c0,4.136,0,8.218,0,12.383c-0.802,0-1.573,0.034-2.34-0.022
		c-0.191-0.015-0.416-0.287-0.535-0.494c-1.433-2.453-2.846-4.916-4.268-7.377c-0.118-0.203-0.249-0.398-0.485-0.775
		c0,2.998,0,5.801,0,8.637c-0.822,0-1.572,0-2.377,0c0-4.091,0-8.188,0-12.391c0.801,0,1.635-0.027,2.466,0.022
		c0.17,0.01,0.363,0.282,0.478,0.476c1.378,2.381,2.743,4.77,4.113,7.156c0.128,0.224,0.267,0.439,0.516,0.635
		c0-2.734,0-5.471,0-8.249C145.468,19.519,146.234,19.519,147.058,19.519z"/>
	<path fill-rule="evenodd" clip-rule="evenodd" d="M109.312,19.476c0.807,0,1.563-0.034,2.313,0.022
		c0.22,0.016,0.5,0.24,0.619,0.445c1.422,2.433,2.819,4.88,4.222,7.322c0.097,0.167,0.201,0.329,0.416,0.477c0-2.73,0-5.461,0-8.229
		c0.851,0,1.617,0,2.423,0c0,4.111,0,8.211,0,12.387c-0.796,0-1.568,0.028-2.335-0.021c-0.178-0.012-0.382-0.266-0.493-0.454
		c-1.45-2.492-2.887-4.992-4.329-7.489c-0.117-0.201-0.246-0.394-0.462-0.735c0,2.982,0,5.791,0,8.65c-0.808,0-1.569,0-2.373,0
		C109.312,27.754,109.312,23.656,109.312,19.476z"/>
	<path fill-rule="evenodd" clip-rule="evenodd" d="M107.339,25.686c0.009,1.731-0.329,3.355-1.479,4.725
		c-1.408,1.676-3.288,1.977-5.319,1.811c-2.959-0.242-4.684-2.455-4.977-5.057c-0.126-1.131-0.118-2.322,0.093-3.437
		c0.599-3.183,3.055-4.86,6.294-4.624c3.367,0.244,5.318,2.729,5.387,6.115C107.341,25.374,107.339,25.529,107.339,25.686z
		 M104.813,25.947c-0.094-0.773-0.119-1.331-0.234-1.869c-0.324-1.53-1.408-2.598-2.722-2.727c-1.532-0.152-2.787,0.502-3.349,1.86
		c-0.673,1.624-0.68,3.302-0.005,4.921c0.524,1.263,1.547,1.908,2.934,1.898c1.396-0.009,2.382-0.691,2.872-1.971
		C104.588,27.33,104.681,26.525,104.813,25.947z"/>
	<path fill-rule="evenodd" clip-rule="evenodd" d="M93.682,23.188c-0.487,0-0.887-0.019-1.282,0.004
		c-0.674,0.037-1.3,0.108-1.47-0.838c-0.051-0.292-0.468-0.597-0.787-0.747c-0.926-0.437-1.898-0.416-2.843-0.035
		c-0.534,0.215-0.842,0.644-0.835,1.246c0.008,0.604,0.378,0.941,0.907,1.089c1.154,0.319,2.317,0.601,3.477,0.899
		c0.278,0.072,0.557,0.148,0.83,0.234c1.26,0.389,2.177,1.123,2.377,2.499c0.218,1.522-0.201,2.823-1.492,3.75
		c-1.813,1.304-5.486,1.245-7.264-0.108c-1.005-0.766-1.468-1.796-1.466-3.102c0.818,0,1.608,0,2.447,0
		c0.186,0.734,0.422,1.483,1.273,1.761c1.025,0.333,2.058,0.327,3.07-0.037c0.596-0.214,0.938-0.665,0.954-1.313
		c0.013-0.635-0.388-0.988-0.935-1.146c-0.999-0.29-2.014-0.527-3.021-0.789c-0.387-0.102-0.775-0.197-1.153-0.323
		c-1.585-0.528-2.319-1.394-2.416-2.819c-0.115-1.695,0.579-3.129,2.008-3.738c2.05-0.875,4.115-0.864,6.048,0.379
		C93.197,20.752,93.685,21.809,93.682,23.188z"/>
	<path fill-rule="evenodd" clip-rule="evenodd" d="M152.133,29.64c2.271,0,4.508,0,6.784,0c0,0.757,0,1.459,0,2.212
		c-3.103,0-6.197,0-9.337,0c0-4.095,0-8.191,0-12.332c2.986,0,5.974,0,9.016,0c0,0.701,0,1.414,0,2.179c-2.15,0-4.275,0-6.454,0
		c0,0.877,0,1.703,0,2.585c1.96,0,3.906,0,5.912,0c0,0.746,0,1.441,0,2.211c-1.946,0-3.911,0-5.921,0
		C152.133,27.555,152.133,28.543,152.133,29.64z"/>
	<path fill-rule="evenodd" clip-rule="evenodd" d="M47.183,19.51c0.871,0,1.687,0,2.567,0c0,1.556,0,3.078,0,4.65
		c1.607,0,3.15,0,4.786,0c0-1.545,0-3.083,0-4.652c0.904,0,1.714,0,2.564,0c0,4.125,0,8.223,0,12.358c-0.837,0-1.648,0-2.53,0
		c0-1.81,0-3.597,0-5.43c-1.617,0-3.162,0-4.78,0c0,1.774,0,3.563,0,5.407c-0.901,0-1.729,0-2.607,0
		C47.183,27.756,47.183,23.656,47.183,19.51z"/>
	<path fill-rule="evenodd" clip-rule="evenodd" d="M70.367,31.902c-0.812,0-1.631,0.02-2.445-0.018
		c-0.148-0.006-0.356-0.217-0.418-0.379c-0.206-0.537-0.369-1.092-0.528-1.645c-0.096-0.334-0.232-0.514-0.638-0.502
		c-1.198,0.031-2.398-0.01-3.597,0.031c-0.205,0.006-0.423,0.252-0.594,0.43c-0.099,0.101-0.11,0.284-0.159,0.432
		c-0.556,1.652-0.556,1.652-2.319,1.652c-0.287,0-0.574,0-0.959,0c0.458-1.286,0.896-2.507,1.329-3.729
		c0.965-2.712,1.935-5.422,2.88-8.141c0.145-0.418,0.32-0.607,0.792-0.571c0.641,0.048,1.288-0.013,1.93,0.026
		c0.19,0.013,0.478,0.166,0.533,0.322c1.418,3.962,2.811,7.934,4.205,11.904C70.392,31.754,70.374,31.803,70.367,31.902z
		 M64.57,22.438c-0.559,1.703-1.055,3.211-1.56,4.75c1.064,0,2.037,0,3.086,0c-0.407-1.285-0.8-2.527-1.194-3.768
		C64.819,23.156,64.725,22.895,64.57,22.438z"/>
	<path fill-rule="evenodd" clip-rule="evenodd" d="M82.835,31.903c-0.859,0-1.659,0.024-2.455-0.021
		c-0.167-0.008-0.398-0.238-0.467-0.416c-0.257-0.68-0.462-1.381-0.692-2.096c-1.411,0-2.787-0.014-4.163,0.018
		c-0.165,0.005-0.402,0.229-0.474,0.405c-0.222,0.554-0.355,1.144-0.579,1.697c-0.069,0.174-0.31,0.384-0.481,0.394
		c-0.751,0.043-1.504,0.019-2.368,0.019c0.174-0.501,0.319-0.931,0.469-1.356c1.229-3.47,2.465-6.937,3.681-10.41
		c0.164-0.469,0.353-0.743,0.926-0.676c0.592,0.068,1.197,0.029,1.797,0.009c0.331-0.011,0.506,0.071,0.628,0.421
		c1.364,3.914,2.751,7.821,4.129,11.73C82.806,31.682,82.808,31.748,82.835,31.903z M78.515,27.182
		c-0.258-0.824-0.489-1.58-0.729-2.332c-0.234-0.739-0.478-1.476-0.779-2.408c-0.349,1.027-0.635,1.854-0.909,2.686
		c-0.22,0.667-0.426,1.34-0.65,2.055C76.474,27.182,77.438,27.182,78.515,27.182z"/>
	<path fill-rule="evenodd" clip-rule="evenodd" d="M130.469,29.617c0,0.813,0,1.514,0,2.251c-2.912,0-5.791,0-8.718,0
		c0-4.104,0-8.199,0-12.343c0.823,0,1.653,0,2.555,0c0,3.34,0,6.681,0,10.092C126.382,29.617,128.391,29.617,130.469,29.617z"/>
	<path fill-rule="evenodd" clip-rule="evenodd" d="M134.587,19.504c0,4.156,0,8.238,0,12.36c-0.839,0-1.649,0-2.518,0
		c0-4.118,0-8.232,0-12.36C132.913,19.504,133.729,19.504,134.587,19.504z"/>
	<path fill-rule="evenodd" clip-rule="evenodd" d="M132.69,34.357c0.493-0.207,0.582,0.061,0.662,0.401
		c0.32,1.339,0.657,2.673,0.994,4.007c0.04,0.166,0.105,0.327,0.196,0.607c0.439-1.616,0.871-3.103,1.238-4.604
		c0.12-0.48,0.333-0.564,0.775-0.432c0.434,1.631,0.864,3.269,1.298,4.905c0.037,0.002,0.071,0.005,0.108,0.007
		c0.261-1.025,0.519-2.053,0.782-3.078c0.127-0.494,0.23-0.996,0.401-1.475c0.069-0.193,0.291-0.333,0.441-0.496
		c0.065,0.047,0.128,0.094,0.194,0.141c-0.489,1.877-0.973,3.755-1.478,5.627c-0.032,0.121-0.28,0.299-0.363,0.269
		c-0.166-0.061-0.369-0.222-0.412-0.381c-0.373-1.325-0.71-2.659-1.061-3.988c-0.054-0.204-0.12-0.404-0.316-0.616
		c-0.288,1.078-0.576,2.156-0.864,3.234c-0.12,0.451-0.22,0.908-0.374,1.346c-0.058,0.167-0.248,0.399-0.379,0.398
		c-0.146-0.002-0.376-0.207-0.419-0.365C133.628,38.045,133.167,36.217,132.69,34.357z"/>
	<path fill-rule="evenodd" clip-rule="evenodd" d="M151.605,37.178c0.179,0.533,0.378,0.986,0.474,1.458
		c0.1,0.497,0.102,1.013,0.148,1.567c-0.307,0.129-0.549,0.087-0.596-0.34c-0.047-0.441-0.077-0.884-0.112-1.325
		c-0.051-0.635-0.389-0.974-1.029-0.982c-0.636-0.007-1.271-0.002-1.979-0.002c0,0.801,0.018,1.507-0.013,2.212
		c-0.008,0.166-0.17,0.326-0.261,0.49c-0.095-0.158-0.27-0.316-0.271-0.475c-0.02-1.799-0.013-3.597-0.013-5.42
		c1.056,0,2.087-0.045,3.114,0.016c0.648,0.039,1.106,0.433,1.222,1.123c0.112,0.666-0.03,1.234-0.624,1.631
		C151.599,37.178,151.534,37.232,151.605,37.178z M148.549,37.105c0.847-0.055,1.642-0.055,2.42-0.172
		c0.554-0.084,0.775-0.544,0.778-1.089c0.003-0.543-0.285-0.929-0.797-0.993c-0.78-0.097-1.574-0.087-2.401-0.124
		C148.549,35.547,148.549,36.248,148.549,37.105z"/>
	<path fill-rule="evenodd" clip-rule="evenodd" d="M114.585,37.04c0.06-0.94,0.33-1.983,1.411-2.571
		c0.944-0.515,1.927-0.488,2.85,0.077c1.3,0.795,1.712,2.96,0.886,4.487c-0.675,1.246-2.235,1.736-3.567,1.121
		C115.146,39.685,114.578,38.632,114.585,37.04z M119.647,37.264c-0.023-0.007-0.047-0.014-0.072-0.021
		c-0.018-0.242-0.016-0.488-0.057-0.729c-0.184-1.087-0.919-1.801-1.931-1.891c-1.053-0.094-1.879,0.416-2.229,1.403
		c-0.316,0.89-0.313,1.788,0.063,2.659c0.351,0.811,0.989,1.206,1.881,1.226c0.917,0.021,1.606-0.349,1.967-1.188
		C119.465,38.267,119.527,37.752,119.647,37.264z"/>
	<path fill-rule="evenodd" clip-rule="evenodd" d="M154.991,37.373c0,0.83,0,1.559,0,2.4c0.658,0,1.314,0,1.969,0
		c0.332,0,0.669-0.028,0.997,0.012c0.175,0.021,0.335,0.163,0.501,0.25c-0.157,0.076-0.313,0.215-0.469,0.217
		c-1.172,0.018-2.345,0.01-3.562,0.01c0-2,0-3.94,0-5.931c1.295,0,2.591,0,3.885,0c0.03,0.053,0.063,0.106,0.093,0.159
		c-0.149,0.086-0.299,0.241-0.452,0.246c-0.729,0.027-1.463,0.01-2.195,0.015c-0.238,0.002-0.477,0.021-0.752,0.033
		c0,0.722,0,1.394,0,2.143c0.837,0,1.632-0.016,2.423,0.011c0.196,0.007,0.385,0.15,0.579,0.232
		c-0.184,0.067-0.366,0.189-0.551,0.194C156.662,37.386,155.867,37.373,154.991,37.373z"/>
	<path fill-rule="evenodd" clip-rule="evenodd" d="M112.546,35.958c-0.146-0.137-0.358-0.247-0.427-0.415
		c-0.389-0.949-1.805-1.271-2.557-0.561c-0.527,0.498-0.445,1.306,0.219,1.6c0.52,0.23,1.098,0.336,1.649,0.499
		c1.078,0.319,1.49,0.805,1.44,1.697c-0.049,0.883-0.61,1.425-1.658,1.604c-1.462,0.25-2.524-0.462-2.663-2.009
		c0.273,0.198,0.508,0.276,0.577,0.431c0.452,1.002,1.37,1.398,2.402,1c0.482-0.188,0.76-0.539,0.78-1.055
		c0.023-0.57-0.316-0.917-0.816-1.086c-0.608-0.205-1.242-0.337-1.851-0.541c-0.638-0.215-0.97-0.699-0.956-1.368
		c0.006-0.275,0.089-0.579,0.229-0.817c0.388-0.658,1.452-0.973,2.396-0.755C112.146,34.375,112.568,34.891,112.546,35.958z"/>
	<path fill-rule="evenodd" clip-rule="evenodd" d="M140.973,40.188c0.592-1.506,1.171-2.982,1.75-4.46
		c0.153-0.391,0.281-0.795,0.474-1.167c0.067-0.134,0.287-0.249,0.444-0.259c0.125-0.008,0.337,0.129,0.385,0.25
		c0.73,1.869,1.44,3.746,2.155,5.622c-0.46,0.216-0.583-0.031-0.707-0.358c-0.542-1.424-0.548-1.422-2.047-1.422
		c-1.198,0-1.188,0.004-1.645,1.161C141.655,39.872,141.66,40.412,140.973,40.188z M143.59,34.771
		c-0.411,1.1-0.771,2.061-1.15,3.078c0.796,0,1.512,0,2.299,0C144.365,36.849,144.005,35.887,143.59,34.771z"/>
	<path fill-rule="evenodd" clip-rule="evenodd" d="M122.135,34.308c1.303,0,2.539,0,3.776,0c0.028,0.063,0.058,0.128,0.086,0.19
		c-0.169,0.084-0.337,0.234-0.507,0.239c-0.904,0.024-1.809,0.012-2.762,0.012c0,0.743,0,1.416,0,2.178
		c0.748,0,1.475-0.018,2.199,0.01c0.249,0.009,0.495,0.128,0.742,0.196c-0.237,0.08-0.469,0.215-0.709,0.229
		c-0.575,0.034-1.154,0.036-1.729,0.003c-0.454-0.026-0.576,0.162-0.561,0.58c0.025,0.62-0.001,1.242,0.009,1.863
		c0.005,0.377-0.117,0.552-0.546,0.379C122.135,38.254,122.135,36.313,122.135,34.308z"/>
	<path fill-rule="evenodd" clip-rule="evenodd" d="M127.163,34.314c1.438,0,2.85,0,4.287,0c0.026,0.671-0.47,0.385-0.736,0.424
		c-0.322,0.049-0.658,0.012-1.098,0.012c0,0.313,0,0.568,0,0.824c-0.001,1.398,0.008,2.798-0.015,4.196
		c-0.002,0.163-0.18,0.324-0.274,0.486c-0.097-0.159-0.276-0.317-0.277-0.478c-0.021-1.64-0.013-3.279-0.013-4.929
		c-0.656-0.091-1.266-0.172-1.872-0.267C127.152,34.582,127.163,34.424,127.163,34.314z"/>
	<path fill-rule="evenodd" clip-rule="evenodd" d="M37.652,48.09c-1.12-1.014-1.277-1.917-0.638-3.189
		c0.532-1.056,0.646-2.205,0.357-3.374c-0.461-1.875-0.925-3.748-1.376-5.625c-0.32-1.33-1.038-2.372-2.137-3.188
		c-1.052-0.783-2.098-1.578-3.078-2.445c-2.952-2.605-6.323-4.386-10.141-5.348c-0.788-0.198-1.549-0.505-2.357-0.773
		c0.306-2.021,0.582-3.998,0.92-5.963c0.087-0.502,0.294-1.021,0.578-1.441c1.549-2.277,3.135-4.528,4.717-6.782
		c0.36-0.514,0.586-1.042,0.384-1.679c-0.201-0.637-0.652-0.944-1.503-0.962c-0.898-0.019-1.796-0.004-2.68-0.004
		c0-1.496,0.038-2.827-0.021-4.153c-0.017-0.432-0.17-0.961-0.456-1.258C19.556,1.209,18.771,0.628,18.033,0
		c-0.356,0-0.713,0-1.068,0c-0.255,0.202-0.631,0.35-0.751,0.613c-0.89,1.95-1.937,3.864-2.537,5.905
		c-0.799,2.715-1.248,5.533-1.818,8.313c-0.101,0.486-0.283,0.766-0.777,0.923c-0.822,0.263-1.627,0.587-2.423,0.927
		c-1.522,0.648-3.192,1.038-4.41,2.257c-1.252,1.255-2.481,2.536-3.659,3.86c-0.888,0.998-0.758,2.051,0.295,2.889
		c1.04,0.83,2.151,1.574,3.16,2.438c0.468,0.4,0.93,0.944,1.117,1.513c1.231,3.75,2.38,7.525,3.575,11.286
		c0.146,0.453,0.083,0.783-0.193,1.165c-1.664,2.304-3.313,4.616-4.942,6.944c-0.538,0.769-0.924,1.654-0.382,2.544
		c0.641,1.057,1.372,2.082,2.676,2.445c0.443,0,0.89,0,1.334,0c0.165-0.102,0.331-0.202,0.494-0.305
		c1.221-0.756,1.689-1.945,1.221-3.195c2.603-2.096,5.508-3.871,7.634-6.642c1.28,1.922,2.491,3.737,3.664,5.496
		c-1.116,0-2.202-0.024-3.286,0.006c-1.04,0.031-2.054,0.217-2.769,1.073c-0.609,0.732-0.97,1.592-0.599,2.529
		c0.345,0.869,1.196,0.902,1.983,0.904c6.022,0.015,12.047-0.059,18.067,0.068c1.843,0.039,3.092-0.41,4.183-1.948
		C39.166,50.112,39.368,49.645,37.652,48.09z"/>
</g>
</svg>
