<?xml version="1.0" encoding="utf-8"?>
<!-- Generator: Adobe Illustrator 16.0.0, SVG Export Plug-In . SVG Version: 6.00 Build 0)  -->
<!DOCTYPE svg PUBLIC "-//W3C//DTD SVG 1.1//EN" "http://www.w3.org/Graphics/SVG/1.1/DTD/svg11.dtd">
<svg version="1.1" id="Layer_1" xmlns="http://www.w3.org/2000/svg" xmlns:xlink="http://www.w3.org/1999/xlink" x="0px" y="0px"
	 width="100.183px" height="82.853px" viewBox="0 0 100.183 82.853" enable-background="new 0 0 100.183 82.853"
	 xml:space="preserve">
<g id="ProfitTrailer">
	<path fill-rule="evenodd" clip-rule="evenodd" d="M24.561,77.563c14.45-7.406,27.1-16.803,39.113-27.123
		c6.477-5.563,12.528-11.576,18.673-17.49c0.755-0.728,1.233-2.33,2.216-2.077c1.142,0.294,0.902,1.971,1.059,3.014
		c2.089,13.983-1.48,26.215-11.383,36.503c-6.202,6.446-13.851,10.203-22.479,11.813C42.327,83.962,33.348,82.064,24.561,77.563z"/>
	<g>
		<path fill-rule="evenodd" clip-rule="evenodd" d="M76.548,14.788c-0.979-1.104-1.954-2.224-3.028-3.231
			C64.265,2.891,53.358-1.059,40.68,0.243C25.933,1.756,15.095,9.355,8.212,22.241C-0.28,38.141,3.038,58.144,15.724,70.66
			c2.759-0.8,4.936-2.634,7.308-4.12c-0.173-0.206-0.344-0.413-0.521-0.616c-9.343-10.762-11.841-23.003-7.509-36.504
			c2.115-6.593,6.107-12.031,11.526-16.449c8.172-6.66,17.528-9.288,27.867-8.066c8.342,0.984,15.456,4.79,21.42,10.717
			c0.283,0.281,0.454,1.008,1.056,0.49C77.531,15.541,76.86,15.14,76.548,14.788z"/>
		<path fill-rule="evenodd" clip-rule="evenodd" d="M62.358,10.652c-2.422,0.052-4.844,0.045-7.265,0.002
			c-0.943-0.017-1.296,0.291-1.292,1.272c0.028,9.071,0.017,18.143,0.017,27.718c3.232-2.945,6.093-5.567,8.977-8.164
			c0.539-0.486,0.799-1.001,0.796-1.742c-0.022-5.92-0.024-11.84,0-17.759C63.593,11.074,63.367,10.631,62.358,10.652z"/>
		<path fill-rule="evenodd" clip-rule="evenodd" d="M38.021,31.834c-2.421,0.063-4.846,0.049-7.267,0.006
			c-0.896-0.018-1.327,0.17-1.322,1.201c0.033,8.88,0.019,17.76,0.019,27.114c3.333-2.698,6.339-5.135,9.349-7.565
			c0.497-0.4,0.427-0.951,0.427-1.481c0.003-5.99-0.013-11.979,0.017-17.97C39.248,32.223,39.038,31.809,38.021,31.834z"/>
		<path fill-rule="evenodd" clip-rule="evenodd" d="M49.87,21.761c-2.22,0.06-4.446,0.089-6.663-0.009
			c-1.278-0.057-1.579,0.408-1.567,1.613c0.055,5.722,0.024,11.443,0.024,17.165c0,3.069,0,6.138,0,9.626
			c3.291-2.83,6.27-5.385,9.236-7.953c0.505-0.437,0.507-1.057,0.506-1.678c-0.007-5.789-0.038-11.578,0.022-17.367
			C51.441,21.911,50.917,21.732,49.87,21.761z"/>
	</g>
	<path fill-rule="evenodd" clip-rule="evenodd" d="M24.586,22.486c0.57-4.33,2.973-6.105,7.253-5.344
		c0.792,0.141,1.595,0.268,2.36,0.509c2.085,0.656,3.839,0.298,5.167-1.626c0.444,3.193-0.709,4.707-3.617,4.395
		c-1.468-0.157-1.715,0.608-2.051,1.563c-1.35,3.842-3.351,7.311-6.026,10.374c-0.64,0.732-1.212,1.606-2.486,2
		c2.299-4.264,4.428-8.375,5.36-12.974c0.409-2.018,0.316-2.111-1.686-1.727c-1.931,0.373-2.973,1.68-3.78,3.299
		C24.686,23.039,24.487,22.92,24.586,22.486z"/>
	<path fill-rule="evenodd" clip-rule="evenodd" d="M36.088,14.168c-0.082,1.414-0.681,2.453-1.98,2.553
		c-1.06,0.082-1.426-0.881-1.354-1.853c0.095-1.271,0.695-2.271,2.063-2.294C35.796,12.557,36.113,13.383,36.088,14.168z"/>
	<path fill-rule="evenodd" clip-rule="evenodd" d="M38.817,24.412c-1.25-1.027-2.801-0.776-4.235-0.647
		c-1.101,0.099-0.89,1.283-1.315,2.024c3.249-0.047,3.945,0.146,3.065,2.325c-0.304,0.511-0.607,1.021-0.912,1.53
		c0.763-0.105,0.989-0.644,1.366-1.043c0.667-0.74,1.364-1.456,1.994-2.227C39.284,25.758,39.521,24.99,38.817,24.412z"/>
	<path fill-rule="evenodd" clip-rule="evenodd" d="M82.659,6.699c0.973,0.87,1.781,1.605,2.602,2.315
		c0.696,0.604,1.036,1.114,0.167,1.942c-1.264,1.205-2.342,2.6-3.581,3.831c-4.958,4.925-9.86,9.91-14.95,14.695
		c-5.186,4.875-10.527,9.586-15.873,14.286c-4.646,4.087-9.324,8.143-14.114,12.059c-4.522,3.699-8.984,7.488-13.878,10.712
		c-2.762,0.795-4.92,2.661-7.308,4.12c-2.21,0.982-4.511,1.529-6.806,0.503c-2.906-1.301-2.317-4.339-2.948-6.807
		c-2.257,2.141-5.51,8.213-5.898,10.962c-0.075,0.531-0.075,1.076-0.067,1.613c0.026,1.813,0.867,3.063,2.586,3.698
		c2.689,0.994,5.439,0.654,8.184,0.37c8.158-0.843,15.017-4.975,21.812-9.009c11.471-6.812,21.992-14.943,31.999-23.785
		c10.351-9.146,20.091-18.869,29.165-29.269c0.602-0.689,0.96-0.814,1.539-0.114c0.683,0.823,1.381,1.64,2.307,2.736l2.589-18.863
		L82.659,6.699z"/>
</g>
</svg>
