<?xml version="1.0" encoding="utf-8"?>
<!-- Generator: Adobe Illustrator 16.0.0, SVG Export Plug-In . SVG Version: 6.00 Build 0)  -->
<!DOCTYPE svg PUBLIC "-//W3C//DTD SVG 1.1//EN" "http://www.w3.org/Graphics/SVG/1.1/DTD/svg11.dtd">
<svg version="1.1" id="Layer_1" xmlns="http://www.w3.org/2000/svg" xmlns:xlink="http://www.w3.org/1999/xlink" x="0px" y="0px"
	 width="24px" height="24px" viewBox="0 0 24 24" enable-background="new 0 0 24 24" xml:space="preserve">
<path fill="none" d="M0,0h24v24H0V0z"/>
<path d="M18.026,13.555c-0.052-0.501-0.233-0.944-0.576-1.318c-0.322-0.351-0.723-0.581-1.168-0.744
	c-0.128-0.047-0.261-0.081-0.396-0.124c0.011-0.012,0.015-0.016,0.019-0.019c0.017-0.011,0.034-0.019,0.053-0.029
	c0.65-0.372,1.05-0.922,1.172-1.668c0.051-0.311,0.044-0.622,0.012-0.935c-0.028-0.292-0.098-0.576-0.224-0.845
	c-0.27-0.584-0.735-0.955-1.305-1.214c-0.66-0.298-1.36-0.42-2.072-0.497c-0.129-0.014-0.129-0.009-0.129-0.138
	c0-0.75,0-1.501,0-2.251c0-0.045,0.011-0.092-0.024-0.131c-0.512,0-1.021,0-1.534,0c-0.035,0.041-0.025,0.091-0.025,0.139
	c-0.004,0.486-0.004,0.972-0.004,1.458c0,0.241,0.001,0.482,0,0.725c-0.001,0.096-0.012,0.101-0.101,0.108
	c-0.305,0.021-0.607,0.016-0.912,0.017c-0.16,0-0.161,0-0.161-0.157c0-0.716,0-1.433,0-2.148c0-0.049,0.009-0.099-0.026-0.14
	c-0.518,0-1.034,0-1.553,0C9.035,3.687,9.046,3.741,9.046,3.791c-0.001,0.729,0,1.455-0.001,2.183c0,0.032-0.001,0.063-0.001,0.094
	c0,0.048-0.023,0.073-0.069,0.082C8.945,6.153,8.919,6.158,8.889,6.157c-0.88-0.009-1.762,0.021-2.643-0.016
	c-0.067-0.005-0.137-0.003-0.203,0C5.985,6.143,5.958,6.166,5.958,6.229c0.003,0.509,0.003,1.019,0,1.526
	c0,0.07,0.028,0.092,0.09,0.092c0.03,0,0.062,0.001,0.093,0.001c0.324,0,0.648-0.001,0.972,0C7.288,7.85,7.46,7.882,7.61,7.976
	C7.85,8.124,7.951,8.354,7.951,8.625c0.002,2.234,0.002,4.468,0.002,6.702c0,0.021,0,0.045-0.002,0.068
	c-0.022,0.322-0.227,0.516-0.549,0.517c-0.338,0-0.677-0.001-1.014,0c-0.116,0-0.13,0.013-0.153,0.127
	c-0.038,0.193-0.068,0.386-0.098,0.58c-0.058,0.367-0.142,0.731-0.175,1.102c-0.005,0.061,0.017,0.078,0.065,0.086
	c0.022,0.002,0.046,0.002,0.068,0.002c0.933,0.005,1.863-0.013,2.797,0.018c0.151,0.005,0.151,0,0.151,0.148
	c0.001,0.745,0,1.489,0.001,2.234c0,0.052-0.011,0.104,0.025,0.148c0.519,0,1.035,0,1.553,0c0.037-0.045,0.026-0.097,0.026-0.148
	c0.001-0.739,0-1.478,0-2.216c0.001-0.131,0.004-0.134,0.135-0.134c0.29,0,0.58,0,0.87,0c0.151,0,0.151,0,0.151,0.151
	c0,0.733,0,1.466,0,2.198c0.001,0.052-0.009,0.104,0.027,0.148c0.519,0,1.035,0,1.552,0c0.034-0.042,0.024-0.092,0.024-0.141
	c0-0.76,0-1.521,0-2.282c0-0.108,0.016-0.123,0.121-0.128c0.331-0.011,0.656-0.045,0.984-0.088c0.668-0.09,1.316-0.254,1.921-0.564
	c0.338-0.177,0.642-0.4,0.881-0.7c0.476-0.593,0.702-1.274,0.716-2.032c-0.002,0-0.004,0-0.006,0
	c-0.002-0.058-0.013-0.116,0.015-0.171c0-0.166,0-0.331,0-0.495C18.023,13.689,18.033,13.621,18.026,13.555z M10.717,7.93
	c0.478,0.001,0.955-0.027,1.432,0.01c0.473,0.038,0.935,0.119,1.366,0.327c0.685,0.329,0.911,1.173,0.604,1.813
	c-0.06,0.125-0.148,0.228-0.252,0.318c-0.287,0.255-0.627,0.395-1,0.479c-0.651,0.146-1.313,0.146-1.974,0.145
	c-0.037,0-0.074-0.003-0.111-0.004c-0.139-0.004-0.139-0.004-0.139-0.138c0-0.47,0-0.938,0-1.407c0-0.486,0.001-0.972-0.001-1.458
	C10.642,7.954,10.648,7.929,10.717,7.93z M14.212,15.484c-0.378,0.192-0.774,0.304-1.187,0.369c-0.72,0.117-1.443,0.119-2.168,0.104
	c-0.067,0-0.158,0.021-0.197-0.015c-0.048-0.039-0.017-0.132-0.017-0.202c0-0.493,0-0.987,0-1.481c0-0.538,0.001-1.075-0.002-1.613
	c0-0.072,0.02-0.087,0.09-0.088c0.423-0.01,0.847-0.025,1.27-0.012c0.64,0.019,1.271,0.08,1.883,0.305
	c0.446,0.162,0.802,0.428,0.981,0.879C15.117,14.359,14.904,15.132,14.212,15.484z"/>
<g display="none">
	<path display="inline" d="M7.069,12.266c1.58,0.981,3.188,1.916,4.788,2.86c0.046,0.025,0.094,0.045,0.146,0.07
		c0.063-0.032,0.126-0.062,0.183-0.094c1.453-0.866,2.908-1.731,4.359-2.597c0.164-0.1,0.32-0.209,0.482-0.311
		c0.098-0.061,0.113-0.124,0.049-0.227c-0.129-0.198-0.24-0.41-0.361-0.613c-1.516-2.527-3.037-5.052-4.607-7.546
		c-0.15-0.24-0.156-0.236-0.301,0.005c-1.606,2.688-3.212,5.376-4.824,8.061C6.873,12.057,6.877,12.147,7.069,12.266z"/>
	<path display="inline" d="M11.849,16.104c-0.827-0.496-1.66-0.983-2.491-1.475c-0.814-0.483-1.629-0.964-2.445-1.446
		c-0.01,0.009-0.02,0.018-0.027,0.029c0.012,0.02,0.023,0.038,0.037,0.057c1.655,2.333,3.313,4.664,4.965,7
		c0.13,0.184,0.174,0.073,0.248-0.031c1.634-2.264,3.248-4.541,4.837-6.835c0.041-0.057,0.072-0.12,0.137-0.231
		c-1.703,0.975-3.336,1.939-4.958,2.929C12.034,16.173,11.959,16.17,11.849,16.104z"/>
</g>
<g display="none">
	<path display="inline" d="M-16.557,4.137c-0.175,0.841-0.349,1.683-0.525,2.523c-0.235,1.121-0.473,2.242-0.709,3.362
		c-0.002,0.014,0,0.029,0,0.062c1.46-1.005,2.912-2.002,4.391-3.021c-0.082,0.394-0.155,0.753-0.229,1.11
		c-0.088,0.415-0.18,0.825-0.262,1.24c-0.017,0.09-0.058,0.139-0.128,0.187c-1.395,0.954-2.787,1.911-4.182,2.863
		c-0.085,0.058-0.128,0.123-0.149,0.226c-0.267,1.295-0.538,2.586-0.816,3.878c-0.029,0.14,0.02,0.133,0.12,0.133
		c2.366-0.001,4.733-0.001,7.101-0.001c0.207,0,0.207,0,0.165,0.202c-0.185,0.893-0.37,1.782-0.555,2.673
		c-0.053,0.028-0.108,0.015-0.162,0.015c-3.497,0-6.993,0-10.489,0c-0.057,0-0.122,0.021-0.172-0.027
		c-0.043-0.076-0.021-0.155-0.004-0.236c0.274-1.303,0.546-2.609,0.82-3.913c0.003-0.015,0.01-0.029-0.013-0.051
		c-0.232,0.162-0.467,0.32-0.703,0.484c-0.26,0.181-0.524,0.354-0.785,0.535c-0.051,0.036-0.108,0.098-0.174,0.049
		c-0.061-0.044-0.035-0.12-0.023-0.185c0.125-0.672,0.241-1.345,0.364-2.02c0.021-0.119,0.081-0.2,0.177-0.267
		c0.503-0.342,1.002-0.692,1.508-1.031c0.139-0.093,0.216-0.205,0.251-0.371c0.495-2.39,0.999-4.779,1.497-7.166
		c0.075-0.359,0.146-0.72,0.228-1.08c0.015-0.063,0.023-0.128,0.075-0.176C-18.813,4.137-17.685,4.137-16.557,4.137z"/>
	<path display="inline" d="M-23.174,19.608c0.003-0.036-0.002-0.072,0.025-0.1c0.01,0.068,0.06,0.069,0.113,0.069
		c0.091-0.001,0.182,0,0.272,0c3.476-0.001,6.953-0.001,10.429-0.001c0.003,0.011,0.005,0.021,0.007,0.031
		C-15.943,19.608-19.559,19.608-23.174,19.608z"/>
</g>
</svg>
