<?xml version="1.0" encoding="utf-8"?>
<!-- Generator: Adobe Illustrator 16.0.0, SVG Export Plug-In . SVG Version: 6.00 Build 0)  -->
<!DOCTYPE svg PUBLIC "-//W3C//DTD SVG 1.1//EN" "http://www.w3.org/Graphics/SVG/1.1/DTD/svg11.dtd">
<svg version="1.1" id="Layer_1" xmlns="http://www.w3.org/2000/svg" xmlns:xlink="http://www.w3.org/1999/xlink" x="0px" y="0px"
	 width="24px" height="24px" viewBox="0 0 24 24" enable-background="new 0 0 24 24" xml:space="preserve">
<g>
	<path fill="none" d="M15.271,11.129c-1.046,0-1.87,0.898-1.87,2.016c0,1.117,0.843,2.015,1.87,2.015
		c1.044,0,1.868-0.897,1.868-2.015C17.14,12.028,16.297,11.129,15.271,11.129z"/>
	<path fill="none" d="M8.583,11.129c-1.044,0-1.869,0.898-1.869,2.016c0,1.117,0.843,2.015,1.869,2.015
		c1.044,0,1.869-0.897,1.869-2.015C10.47,12.028,9.627,11.129,8.583,11.129z"/>
	<path d="M20.054,6.275c-2.621-1.961-5.132-1.906-5.132-1.906l-0.256,0.292c3.115,0.935,4.563,2.31,4.563,2.31
		c-1.906-1.026-3.774-1.539-5.515-1.741c-1.32-0.146-2.584-0.109-3.702,0.037c-0.11,0-0.202,0.019-0.312,0.036
		C9.06,5.376,7.502,5.596,5.542,6.458C4.863,6.751,4.46,6.971,4.46,6.971s1.502-1.448,4.801-2.383L9.078,4.369c0,0-0.01,0-0.029,0
		C8.766,4.37,6.421,4.436,3.947,6.275c0,0-2.639,4.745-2.639,10.59c0,0,1.539,2.639,5.588,2.766c0,0,0.678-0.806,1.228-1.502
		c-2.327-0.696-3.207-2.144-3.207-2.144s0.184,0.128,0.513,0.312c0.018,0,0.037,0.019,0.074,0.037
		c0.055,0.036,0.109,0.055,0.165,0.091c0.458,0.256,0.916,0.459,1.337,0.623c0.751,0.312,1.649,0.587,2.693,0.788
		c1.375,0.256,2.986,0.348,4.746,0.019c0.861-0.165,1.74-0.403,2.657-0.788c0.642-0.238,1.355-0.586,2.106-1.081
		c0,0-0.916,1.483-3.316,2.162c0.55,0.678,1.21,1.466,1.21,1.466c4.049-0.128,5.588-2.767,5.588-2.748
		C22.691,11.02,20.054,6.275,20.054,6.275z M8.583,15.16c-1.026,0-1.869-0.897-1.869-2.015c0-1.118,0.825-2.016,1.869-2.016
		c1.044,0,1.888,0.898,1.869,2.016C10.452,14.263,9.627,15.16,8.583,15.16z M15.271,15.16c-1.027,0-1.87-0.897-1.87-2.015
		c0-1.118,0.824-2.016,1.87-2.016c1.025,0,1.868,0.898,1.868,2.016C17.14,14.263,16.315,15.16,15.271,15.16z"/>
</g>
</svg>
