<?xml version="1.0" encoding="utf-8"?>
<!-- Generator: Adobe Illustrator 16.0.0, SVG Export Plug-In . SVG Version: 6.00 Build 0)  -->
<!DOCTYPE svg PUBLIC "-//W3C//DTD SVG 1.1//EN" "http://www.w3.org/Graphics/SVG/1.1/DTD/svg11.dtd">
<svg version="1.1" id="Layer_1" xmlns="http://www.w3.org/2000/svg" xmlns:xlink="http://www.w3.org/1999/xlink" x="0px" y="0px"
	 width="24px" height="24px" viewBox="0 0 24 24" enable-background="new 0 0 24 24" xml:space="preserve">
<path id="path8_2_" d="M14.826,4.673c0.234,0,2.521,0.047,4.904,1.83c0,0,2.535,4.556,2.535,10.167l0,0
	c-0.012,0-1.492,2.518-5.367,2.641c0,0-0.633-0.758-1.16-1.41c2.303-0.648,3.184-2.074,3.184-2.074
	c-0.721,0.475-1.408,0.809-2.023,1.037c-0.879,0.371-1.723,0.6-2.551,0.758c-0.766,0.143-1.504,0.203-2.203,0.203
	c-0.843,0-1.632-0.088-2.353-0.221c-1.002-0.195-1.864-0.459-2.585-0.758c-0.405-0.158-0.845-0.352-1.285-0.598
	c-0.053-0.037-0.105-0.053-0.159-0.088c-0.034-0.018-0.052-0.035-0.069-0.035C5.376,15.949,5.2,15.826,5.2,15.826
	s0.845,1.389,3.079,2.059c-0.527,0.668-1.178,1.443-1.178,1.443c-3.888-0.125-5.366-2.658-5.366-2.658
	c0-5.611,2.533-10.167,2.533-10.167c2.375-1.765,4.626-1.829,4.898-1.83c0.018,0,0.026,0,0.026,0L9.37,4.884
	C6.203,5.782,4.761,7.172,4.761,7.172S5.148,6.96,5.799,6.679c1.883-0.827,3.378-1.038,3.993-1.108
	c0.106-0.018,0.193-0.036,0.299-0.036c0.603-0.079,1.25-0.124,1.926-0.124c0.528,0,1.073,0.027,1.627,0.089
	c1.672,0.193,3.465,0.686,5.297,1.671c0,0-1.391-1.32-4.381-2.218l0.246-0.281C14.807,4.673,14.814,4.673,14.826,4.673
	 M15.141,15.035c1.002,0,1.793-0.862,1.793-1.936c0-1.073-0.809-1.935-1.793-1.935c-1.004,0-1.795,0.862-1.795,1.935
	C13.346,14.173,14.154,15.035,15.141,15.035 M8.72,15.035c1.002,0,1.793-0.862,1.793-1.936c0.018-1.073-0.791-1.935-1.793-1.935
	c-1.004,0-1.795,0.862-1.795,1.935C6.925,14.173,7.734,15.035,8.72,15.035 M14.826,3.031L14.826,3.031c-0.012,0-0.045,0-0.057,0
	c-0.461,0.01-0.896,0.214-1.201,0.561l-0.201,0.232c-0.449-0.037-0.9-0.056-1.35-0.056c-0.464,0-0.93,0.02-1.392,0.058l-0.168-0.202
	c-0.312-0.375-0.775-0.593-1.264-0.593C8.66,3.033,6.03,3.147,3.29,5.185c-0.188,0.138-0.343,0.316-0.456,0.52
	c-0.112,0.201-2.74,4.997-2.74,10.965c0,0.291,0.077,0.578,0.223,0.828c0.08,0.137,1.991,3.32,6.732,3.471c0.018,0,0.036,0,0.053,0
	c0.485,0,0.945-0.213,1.257-0.586c0.023-0.027,0.506-0.602,0.981-1.193c0.046,0.008,0.094,0.016,0.14,0.025
	c0.9,0.166,1.792,0.252,2.665,0.252c0.842,0,1.686-0.078,2.506-0.232c0.016-0.004,0.031-0.006,0.049-0.01
	c0.471,0.576,0.939,1.137,0.939,1.137c0.314,0.375,0.775,0.59,1.26,0.59c0.016,0,0.035,0,0.053,0
	c4.166-0.133,6.133-2.559,6.654-3.332c0.191-0.27,0.301-0.596,0.301-0.949c0-5.968-2.629-10.765-2.738-10.965
	c-0.115-0.202-0.268-0.379-0.453-0.517C17.971,3.135,15.328,3.031,14.826,3.031L14.826,3.031z M15.141,13.393
	c-0.039,0-0.152-0.102-0.152-0.293c0-0.176,0.09-0.293,0.152-0.293c0.031,0,0.15,0.09,0.15,0.293
	C15.291,13.275,15.201,13.393,15.141,13.393L15.141,13.393z M8.72,13.393c-0.04,0-0.153-0.102-0.153-0.293
	c0-0.176,0.092-0.293,0.153-0.293c0.009,0,0.036,0,0.073,0.038c0.024,0.024,0.081,0.097,0.079,0.229
	C8.871,13.275,8.78,13.393,8.72,13.393L8.72,13.393z"/>
</svg>
