<?xml version="1.0" encoding="utf-8"?>
<!-- Generator: Adobe Illustrator 16.0.0, SVG Export Plug-In . SVG Version: 6.00 Build 0)  -->
<!DOCTYPE svg PUBLIC "-//W3C//DTD SVG 1.1//EN" "http://www.w3.org/Graphics/SVG/1.1/DTD/svg11.dtd">
<svg version="1.1" id="Layer_1" xmlns="http://www.w3.org/2000/svg" xmlns:xlink="http://www.w3.org/1999/xlink" x="0px" y="0px"
	 width="179.764px" height="38.566px" viewBox="0 0 179.764 38.566" enable-background="new 0 0 179.764 38.566"
	 xml:space="preserve">
<g>
	<path d="M80.651,0.038c-8.872-0.066-17.744-0.033-26.616,0c-1.099,0.004-2.197,0.259-3.217,0.389c0,2.488,0,4.61,0,7.233
		c10.217,0,20.192,0,30.428,0c0,2.742,0,4.979,0,7.9c-10.35,0-20.414,0-30.332,0c0,8.032,0,15.376,0,22.681c2.611,0,4.853,0,7.402,0
		c0-5.076,0-9.835,0-15.214c6,0,11.37-0.231,16.714,0.043c15.355,0.787,14.343-4.349,14.113-14.891
		C89.023,2.609,86.358,0.08,80.651,0.038z"/>
	<path d="M0.12,38.411c13.034,0,25.589,0,38.225,0c0-2.735,0-5.083,0-7.736c-10.36,0-20.338,0-30.393,0c0-2.675,0-5.025,0-7.547
		c10.292,0,20.253,0,30.41,0c0-2.709,0-5.087,0-7.571c-12.868,0-25.431,0-38.242,0C0.12,23.254,0.12,30.586,0.12,38.411z"/>
	<path d="M38.295,0.234c-12.953,0-25.589,0-38.295,0c0,2.581,0,4.592,0,7.284c12.931,0,25.474,0,38.295,0
		C38.295,4.98,38.295,2.622,38.295,0.234z"/>
	<path d="M115.351,15.523c-3.353-5.154-6.666-10.249-9.977-15.338c-2.895,0-5.792,0-8.688,0
		c5.099,7.837,10.079,15.496,15.152,23.296c0,4.975,0,9.885,0,14.876c2.538,0,4.896,0,7.284,0c0-5.158,0-10.219,0-15.274
		c4.983-7.663,9.882-15.195,14.893-22.898c-2.896,0-5.792,0-8.688,0C122.017,5.274,118.703,10.369,115.351,15.523z"/>
	<path d="M148.841,7.52c10.646,0,20.728,0,30.923,0c0-2.679,0-4.805,0-7.47c-10.255,0-19.98-0.038-29.705,0.014
		c-5.816,0.031-8.585,2.689-8.691,8.511c-0.13,7.119-0.144,14.242-0.03,21.361c0.087,5.502,3.153,8.425,8.789,8.522
		c6.393,0.11,12.788,0.081,19.181,0.103c3.423,0.011,6.848,0.002,10.386,0.002c0-2.906,0-5.148,0-7.748c-4.906,0-9.801,0-14.766,0
		c-0.524,0-1.049,0-1.572,0c-4.751,0-9.573,0-14.555,0c0-7.799,0-15.43,0-23.295C148.813,7.52,148.827,7.52,148.841,7.52z"/>
</g>
</svg>
