<?xml version="1.0" encoding="utf-8"?>
<!-- Generator: Adobe Illustrator 16.0.0, SVG Export Plug-In . SVG Version: 6.00 Build 0)  -->
<!DOCTYPE svg PUBLIC "-//W3C//DTD SVG 1.1//EN" "http://www.w3.org/Graphics/SVG/1.1/DTD/svg11.dtd">
<svg version="1.1" id="Layer_1" xmlns="http://www.w3.org/2000/svg" xmlns:xlink="http://www.w3.org/1999/xlink" x="0px" y="0px"
	 width="24px" height="24px" viewBox="0 0 24 24" enable-background="new 0 0 24 24" xml:space="preserve">
<path display="none" fill-rule="evenodd" clip-rule="evenodd" d="M18.854,13.769c-0.059-0.571-0.266-1.076-0.656-1.5
	c-0.367-0.399-0.822-0.661-1.328-0.846c-0.146-0.054-0.297-0.093-0.449-0.141c0.01-0.014,0.016-0.018,0.021-0.021
	c0.018-0.013,0.039-0.022,0.059-0.034c0.74-0.423,1.195-1.048,1.334-1.896c0.057-0.354,0.049-0.708,0.012-1.063
	c-0.033-0.333-0.111-0.655-0.254-0.961c-0.307-0.664-0.836-1.086-1.484-1.38c-0.75-0.339-1.547-0.478-2.357-0.565
	c-0.146-0.016-0.146-0.011-0.146-0.157c0-0.853,0-1.707,0-2.56c0-0.051,0.012-0.104-0.027-0.149c-0.582,0-1.163,0-1.745,0
	c-0.04,0.047-0.03,0.104-0.03,0.158C11.8,3.207,11.8,3.759,11.8,4.312c0,0.275,0.001,0.549,0,0.824
	c-0.001,0.109-0.013,0.115-0.114,0.123c-0.346,0.023-0.691,0.018-1.037,0.019c-0.182,0-0.183,0-0.183-0.179c0-0.814,0-1.629,0-2.444
	c0-0.054,0.009-0.111-0.031-0.158c-0.588,0-1.176,0-1.765,0c-0.041,0.05-0.03,0.111-0.03,0.168c-0.001,0.828,0,1.655-0.001,2.482
	c0,0.036-0.001,0.071-0.001,0.107c0,0.054-0.026,0.083-0.079,0.093c-0.032,0.005-0.063,0.01-0.097,0.009
	c-1.001-0.01-2.003,0.023-3.005-0.018C5.38,5.333,5.302,5.335,5.225,5.338c-0.065,0.001-0.096,0.027-0.096,0.1
	c0.003,0.579,0.003,1.158,0,1.736c0,0.08,0.032,0.104,0.102,0.104c0.035,0,0.071,0.001,0.106,0.001c0.368,0,0.737-0.001,1.105,0
	c0.2,0.001,0.395,0.038,0.566,0.145c0.272,0.169,0.388,0.429,0.388,0.738c0.002,2.541,0.002,5.081,0.002,7.622
	c0,0.025,0,0.051-0.002,0.077c-0.026,0.368-0.258,0.587-0.624,0.588c-0.385,0-0.77-0.001-1.154,0c-0.131,0-0.147,0.015-0.174,0.145
	c-0.043,0.22-0.077,0.438-0.111,0.66c-0.065,0.417-0.161,0.831-0.198,1.253c-0.006,0.067,0.018,0.089,0.074,0.096
	c0.026,0.003,0.052,0.003,0.078,0.003c1.06,0.005,2.119-0.015,3.18,0.02c0.172,0.005,0.172,0,0.172,0.17
	c0.001,0.847,0,1.693,0.001,2.54c0,0.059-0.011,0.118,0.03,0.169c0.589,0,1.177,0,1.765,0c0.042-0.051,0.031-0.11,0.031-0.169
	c0.001-0.841,0-1.68,0-2.52c0.001-0.149,0.003-0.152,0.153-0.152c0.329,0,0.659,0,0.989,0c0.172,0,0.172,0,0.172,0.172
	c0,0.833,0,1.667,0,2.5c0.001,0.059-0.01,0.118,0.031,0.169c0.59,0,1.177,0,1.765,0c0.039-0.048,0.027-0.105,0.027-0.159
	c0-0.866,0-1.732,0-2.597c0-0.123,0.018-0.14,0.139-0.145c0.375-0.013,0.746-0.051,1.119-0.101c0.76-0.1,1.496-0.287,2.184-0.642
	c0.385-0.2,0.73-0.455,1.002-0.795c0.541-0.675,0.799-1.45,0.814-2.311c-0.002,0-0.004,0-0.006,0
	c-0.004-0.066-0.014-0.133,0.016-0.195c0-0.188,0-0.376,0-0.563C18.85,13.922,18.861,13.845,18.854,13.769z M10.541,7.371
	c0.543,0.002,1.086-0.031,1.628,0.012c0.538,0.043,1.063,0.135,1.554,0.371c0.779,0.375,1.037,1.334,0.688,2.062
	c-0.068,0.142-0.17,0.258-0.287,0.362c-0.326,0.29-0.713,0.449-1.137,0.545c-0.742,0.166-1.493,0.167-2.245,0.164
	c-0.043,0-0.085-0.003-0.127-0.004c-0.158-0.004-0.158-0.004-0.158-0.157c0-0.534,0-1.066,0-1.6c0-0.553,0.002-1.105-0.001-1.658
	C10.455,7.4,10.463,7.37,10.541,7.371z M14.516,15.963c-0.43,0.219-0.881,0.345-1.35,0.42c-0.818,0.133-1.641,0.134-2.465,0.118
	c-0.077-0.001-0.18,0.024-0.225-0.016c-0.054-0.046-0.018-0.151-0.018-0.231c-0.001-0.561-0.001-1.123-0.001-1.686
	c0-0.611,0.002-1.222-0.002-1.833c0-0.082,0.022-0.099,0.102-0.101c0.481-0.01,0.963-0.029,1.444-0.014
	c0.727,0.023,1.447,0.093,2.141,0.347c0.508,0.186,0.912,0.487,1.117,1C15.545,14.684,15.303,15.563,14.516,15.963z"/>
<g>
	<path fill-rule="evenodd" clip-rule="evenodd" fill="none" stroke="#000000" stroke-linejoin="round" stroke-miterlimit="10" d="
		M11.99,15.137c-0.06-0.029-0.115-0.052-0.167-0.081c-1.821-1.074-3.648-2.137-5.445-3.252c-0.217-0.135-0.223-0.238-0.098-0.445
		c1.834-3.053,3.659-6.11,5.486-9.166c0.165-0.275,0.171-0.279,0.343-0.006c1.784,2.837,3.516,5.707,5.238,8.582
		c0.138,0.231,0.265,0.471,0.41,0.697c0.075,0.116,0.056,0.188-0.053,0.257c-0.185,0.116-0.362,0.241-0.55,0.353
		c-1.651,0.985-3.304,1.969-4.956,2.953C12.133,15.067,12.062,15.099,11.99,15.137z"/>
	<path fill-rule="evenodd" clip-rule="evenodd" fill="none" stroke="#000000" stroke-linejoin="round" stroke-miterlimit="10" d="
		M6.219,13.847c0.927,0.549,1.854,1.096,2.78,1.646c0.945,0.558,1.892,1.112,2.833,1.677c0.125,0.074,0.21,0.077,0.344-0.005
		c1.842-1.125,3.701-2.222,5.637-3.33c-0.074,0.126-0.109,0.198-0.156,0.263c-1.809,2.608-3.643,5.199-5.499,7.772
		c-0.085,0.118-0.135,0.244-0.283,0.036c-1.878-2.657-3.763-5.308-5.646-7.96C6.214,13.924,6.2,13.901,6.188,13.88
		C6.197,13.868,6.208,13.858,6.219,13.847z"/>
</g>
<g display="none">
	
		<path display="inline" fill-rule="evenodd" clip-rule="evenodd" fill="none" stroke="#000000" stroke-linejoin="round" stroke-miterlimit="10" d="
		M13.534,3.203c-0.198,0.956-0.395,1.913-0.596,2.869c-0.268,1.275-0.538,2.55-0.807,3.824c-0.003,0.016,0,0.033,0,0.07
		c1.661-1.143,3.311-2.277,4.993-3.435c-0.093,0.448-0.176,0.856-0.261,1.263c-0.099,0.471-0.204,0.938-0.296,1.41
		c-0.02,0.102-0.067,0.158-0.147,0.213c-1.585,1.085-3.169,2.173-4.756,3.256c-0.096,0.066-0.146,0.14-0.169,0.257
		c-0.304,1.472-0.611,2.941-0.928,4.411c-0.034,0.157,0.022,0.15,0.136,0.15c2.691-0.001,5.384-0.001,8.075-0.001
		c0.236,0,0.236,0,0.188,0.231c-0.21,1.013-0.421,2.026-0.631,3.038c-0.06,0.033-0.123,0.017-0.185,0.017c-3.976,0-7.952,0-11.928,0
		c-0.065,0-0.139,0.025-0.196-0.031c-0.049-0.087-0.023-0.177-0.005-0.268c0.312-1.483,0.621-2.968,0.932-4.452
		c0.004-0.016,0.012-0.032-0.014-0.057c-0.264,0.185-0.531,0.365-0.799,0.551c-0.296,0.205-0.596,0.404-0.893,0.609
		c-0.058,0.041-0.123,0.111-0.198,0.056c-0.07-0.051-0.04-0.138-0.027-0.21c0.143-0.764,0.274-1.531,0.414-2.297
		c0.025-0.136,0.092-0.228,0.201-0.303c0.573-0.389,1.14-0.787,1.715-1.173c0.158-0.106,0.246-0.232,0.285-0.422
		c0.563-2.718,1.136-5.434,1.703-8.149c0.086-0.409,0.166-0.819,0.259-1.228c0.016-0.072,0.026-0.146,0.085-0.201
		C10.969,3.203,12.252,3.203,13.534,3.203z"/>
	
		<path display="inline" fill-rule="evenodd" clip-rule="evenodd" fill="none" stroke="#000000" stroke-linejoin="round" stroke-miterlimit="10" d="
		M6.01,20.797c0.003-0.041-0.002-0.082,0.029-0.113c0.012,0.077,0.068,0.079,0.129,0.078c0.103-0.001,0.206,0,0.309,0
		c3.953-0.001,7.907-0.001,11.86-0.001c0.003,0.012,0.006,0.024,0.008,0.036C14.233,20.797,10.121,20.797,6.01,20.797z"/>
</g>
</svg>
