<?xml version="1.0" encoding="utf-8"?>
<!-- Generator: Adobe Illustrator 16.0.0, SVG Export Plug-In . SVG Version: 6.00 Build 0)  -->
<!DOCTYPE svg PUBLIC "-//W3C//DTD SVG 1.1//EN" "http://www.w3.org/Graphics/SVG/1.1/DTD/svg11.dtd">
<svg version="1.1" id="Layer_1" xmlns="http://www.w3.org/2000/svg" xmlns:xlink="http://www.w3.org/1999/xlink" x="0px" y="0px"
	 width="24px" height="24px" viewBox="0 0 24 24" enable-background="new 0 0 24 24" xml:space="preserve">
<g id="_x39__Grid">
	<path id="_x39__Grid_1_" d="M4,8h4V4H4V8z M10,20h4v-4h-4V20z M4,20h4v-4H4V20z M4,14h4v-4H4V14z M10,14h4v-4h-4V14z M16,4v4h4V4
		H16z M10,8h4V4h-4V8z M16,14h4v-4h-4V14z M16,20h4v-4h-4V20z"/>
	<rect x="4" y="4" width="4.333" height="4.333"/>
	<rect x="9.833" y="4" width="4.333" height="4.333"/>
	<rect x="15.667" y="4" width="4.333" height="4.333"/>
	<rect x="4" y="9.833" width="4.333" height="4.333"/>
	<rect x="9.833" y="9.833" width="4.333" height="4.333"/>
	<rect x="15.667" y="9.833" width="4.333" height="4.333"/>
	<rect x="4" y="15.667" width="4.333" height="4.333"/>
	<rect x="9.833" y="15.667" width="4.333" height="4.333"/>
	<rect x="15.667" y="15.667" width="4.333" height="4.333"/>
</g>
<path fill="none" d="M0,0h24v24H0V0z"/>
</svg>
