<?xml version="1.0" encoding="utf-8"?>
<!-- Generator: Adobe Illustrator 16.0.0, SVG Export Plug-In . SVG Version: 6.00 Build 0)  -->
<!DOCTYPE svg PUBLIC "-//W3C//DTD SVG 1.1//EN" "http://www.w3.org/Graphics/SVG/1.1/DTD/svg11.dtd">
<svg version="1.1" id="Layer_1" xmlns="http://www.w3.org/2000/svg" xmlns:xlink="http://www.w3.org/1999/xlink" x="0px" y="0px"
	 width="24px" height="24px" viewBox="0 0 24 24" enable-background="new 0 0 24 24" xml:space="preserve">
<g id="_x31_5_Grid" display="none">
	<rect x="2.5" y="6.751" display="inline" width="3" height="3"/>
	<rect x="6.5" y="6.751" display="inline" width="3" height="3"/>
	<rect x="10.5" y="6.751" display="inline" width="3" height="3"/>
	<rect x="14.5" y="6.751" display="inline" width="3" height="3"/>
	<rect x="18.5" y="6.751" display="inline" width="3" height="3"/>
	<rect x="2.5" y="10.501" display="inline" width="3" height="2.999"/>
	<rect x="6.5" y="10.501" display="inline" width="3" height="2.999"/>
	<rect x="10.5" y="10.501" display="inline" width="3" height="2.999"/>
	<rect x="14.5" y="10.501" display="inline" width="3" height="2.999"/>
	<rect x="18.5" y="10.501" display="inline" width="3" height="2.999"/>
	<rect x="2.5" y="14.25" display="inline" width="3" height="2.999"/>
	<rect x="6.5" y="14.25" display="inline" width="3" height="2.999"/>
	<rect x="10.5" y="14.25" display="inline" width="3" height="2.999"/>
	<rect x="14.5" y="14.25" display="inline" width="3" height="2.999"/>
	<rect x="18.5" y="14.25" display="inline" width="3" height="2.999"/>
</g>
<g id="_x31_2_Grid_1_">
	<rect x="2.531" y="5.103" width="3.609" height="3.598"/>
	<rect x="7.641" y="5.103" width="3.609" height="3.598"/>
	<rect x="12.75" y="5.103" width="3.609" height="3.598"/>
	<rect x="17.859" y="5.103" width="3.609" height="3.598"/>
	<rect x="2.531" y="10.201" width="3.609" height="3.598"/>
	<rect x="7.641" y="10.201" width="3.609" height="3.598"/>
	<rect x="12.75" y="10.201" width="3.609" height="3.598"/>
	<rect x="17.859" y="10.201" width="3.609" height="3.598"/>
	<rect x="2.531" y="15.299" width="3.609" height="3.599"/>
	<rect x="7.641" y="15.299" width="3.609" height="3.599"/>
	<rect x="12.75" y="15.299" width="3.609" height="3.599"/>
	<rect x="17.859" y="15.299" width="3.609" height="3.599"/>
</g>
<g id="_x39__Grid" display="none">
	<path id="_x39__Grid_1_" display="inline" d="M4,8h4V4H4V8z M10,20h4v-4h-4V20z M4,20h4v-4H4V20z M4,14h4v-4H4V14z M10,14h4v-4h-4
		V14z M16,4v4h4V4H16z M10,8h4V4h-4V8z M16,14h4v-4h-4V14z M16,20h4v-4h-4V20z"/>
	<rect x="4" y="4" display="inline" width="4.333" height="4.333"/>
	<rect x="9.833" y="4" display="inline" width="4.333" height="4.333"/>
	<rect x="15.667" y="4" display="inline" width="4.333" height="4.333"/>
	<rect x="4" y="9.833" display="inline" width="4.333" height="4.333"/>
	<rect x="9.833" y="9.833" display="inline" width="4.333" height="4.333"/>
	<rect x="15.667" y="9.833" display="inline" width="4.333" height="4.333"/>
	<rect x="4" y="15.667" display="inline" width="4.333" height="4.333"/>
	<rect x="9.833" y="15.667" display="inline" width="4.333" height="4.333"/>
	<rect x="15.667" y="15.667" display="inline" width="4.333" height="4.333"/>
</g>
<g id="_x34__Grid" display="none">
	<rect x="4" y="4" display="inline" width="7.25" height="7.25"/>
	<rect x="12.75" y="4" display="inline" width="7.25" height="7.25"/>
	<rect x="4" y="12.75" display="inline" width="7.25" height="7.25"/>
	<rect x="12.75" y="12.75" display="inline" width="7.25" height="7.25"/>
</g>
<g id="_x32__Grid" display="none">
	<rect x="4" y="8.396" display="inline" width="7.25" height="7.207"/>
	<rect x="12.75" y="8.396" display="inline" width="7.25" height="7.207"/>
</g>
<path display="none" fill="none" d="M0,0h24v24H0V0z"/>
</svg>
