<?xml version="1.0" encoding="utf-8"?>
<!-- Generator: Adobe Illustrator 16.0.0, SVG Export Plug-In . SVG Version: 6.00 Build 0)  -->
<!DOCTYPE svg PUBLIC "-//W3C//DTD SVG 1.1//EN" "http://www.w3.org/Graphics/SVG/1.1/DTD/svg11.dtd">
<svg version="1.1" id="Layer_1" xmlns="http://www.w3.org/2000/svg" xmlns:xlink="http://www.w3.org/1999/xlink" x="0px" y="0px"
	 width="24px" height="24px" viewBox="0 0 24 24" enable-background="new 0 0 24 24" xml:space="preserve">
<path fill="none" d="M0,0h24v24H0V0z"/>
<path d="M20.375,20.375h-3.722v-6.281c0-0.987-1.107-1.805-2.094-1.805c-0.987,0-1.629,0.818-1.629,1.805v6.281H9.208V9.208h3.722
	v1.861c0.614-0.995,2.195-1.637,3.257-1.637c2.326,0,4.188,1.898,4.188,4.196V20.375 M7.347,20.375H3.625V9.208h3.722V20.375
	 M5.486,3.625c1.028,0,1.861,0.833,1.861,1.861c0,1.028-0.833,1.861-1.861,1.861c-1.027,0-1.861-0.833-1.861-1.861
	C3.625,4.458,4.458,3.625,5.486,3.625z"/>
</svg>
