<?xml version="1.0" encoding="utf-8"?>
<!-- Generator: Adobe Illustrator 16.0.0, SVG Export Plug-In . SVG Version: 6.00 Build 0)  -->
<!DOCTYPE svg PUBLIC "-//W3C//DTD SVG 1.1//EN" "http://www.w3.org/Graphics/SVG/1.1/DTD/svg11.dtd">
<svg version="1.1" id="Layer_1" xmlns="http://www.w3.org/2000/svg" xmlns:xlink="http://www.w3.org/1999/xlink" x="0px" y="0px"
	 width="24px" height="24px" viewBox="0 0 24 24" enable-background="new 0 0 24 24" xml:space="preserve">
<path fill="none" d="M0,0h24v24H0V0z"/>
<path d="M13.352,4.265c-0.174,0.841-0.348,1.683-0.525,2.523c-0.234,1.121-0.472,2.242-0.709,3.362c-0.002,0.014,0,0.029,0,0.062
	c1.461-1.005,2.912-2.002,4.391-3.021c-0.082,0.394-0.154,0.753-0.229,1.11c-0.088,0.415-0.18,0.825-0.262,1.24
	C16,9.632,15.959,9.681,15.889,9.729c-1.395,0.954-2.787,1.911-4.182,2.863c-0.085,0.059-0.128,0.123-0.149,0.227
	c-0.267,1.295-0.538,2.586-0.816,3.878c-0.029,0.14,0.02,0.133,0.12,0.133c2.367-0.001,4.734-0.001,7.101-0.001
	c0.207,0,0.207,0,0.164,0.202c-0.184,0.893-0.369,1.782-0.555,2.673c-0.053,0.028-0.107,0.015-0.162,0.015
	c-3.496,0-6.992,0-10.489,0c-0.057,0-0.122,0.021-0.172-0.027c-0.043-0.076-0.021-0.155-0.004-0.236
	c0.274-1.303,0.546-2.609,0.82-3.913c0.003-0.015,0.01-0.029-0.013-0.051c-0.232,0.162-0.467,0.32-0.703,0.484
	c-0.26,0.181-0.524,0.354-0.785,0.535c-0.051,0.036-0.108,0.098-0.174,0.049c-0.061-0.044-0.035-0.12-0.023-0.185
	c0.125-0.672,0.241-1.345,0.364-2.02c0.021-0.119,0.081-0.2,0.177-0.267c0.503-0.342,1.002-0.692,1.508-1.031
	c0.139-0.093,0.216-0.205,0.251-0.371c0.495-2.39,0.999-4.779,1.497-7.166C9.738,5.16,9.809,4.8,9.891,4.439
	c0.015-0.063,0.023-0.128,0.075-0.176C11.096,4.265,12.224,4.265,13.352,4.265z"/>
</svg>
