<?xml version="1.0" encoding="utf-8"?>
<!-- Generator: Adobe Illustrator 16.0.0, SVG Export Plug-In . SVG Version: 6.00 Build 0)  -->
<!DOCTYPE svg PUBLIC "-//W3C//DTD SVG 1.1//EN" "http://www.w3.org/Graphics/SVG/1.1/DTD/svg11.dtd">
<svg version="1.1" id="Layer_1" xmlns="http://www.w3.org/2000/svg" xmlns:xlink="http://www.w3.org/1999/xlink" x="0px" y="0px"
	 width="36.75px" height="45.5px" viewBox="0 0 36.75 45.5" enable-background="new 0 0 36.75 45.5" xml:space="preserve">
<g>
	<path fill="none" d="M15.5,3.683c-3.313,0-6.005,2.691-6.005,6.005v3.875h12.01V9.688C21.505,6.374,18.813,3.683,15.5,3.683z"/>
	<g>
		<path d="M16.75,35.5c0-5.523,4.477-10,10-10c1.521,0,2.959,0.35,4.25,0.958v-9.021c0-2.13-1.745-3.875-3.875-3.875h-1.938V9.688
			C25.188,4.341,20.847,0,15.5,0S5.813,4.341,5.813,9.688v3.875H3.875C1.745,13.563,0,15.308,0,17.438v19.375
			c0,2.13,1.745,3.875,3.875,3.875h14.338C17.291,39.174,16.75,37.402,16.75,35.5z M9.495,9.688c0-3.313,2.691-6.005,6.005-6.005
			c3.313,0,6.005,2.691,6.005,6.005v3.875H9.495V9.688z"/>
	</g>
</g>
<path d="M26.75,25.5c5.523,0,10,4.477,10,10s-4.477,10-10,10s-10-4.477-10-10S21.227,25.5,26.75,25.5 M26.75,27.5
	c-4.418,0-8,3.582-8,8s3.582,8,8,8s8-3.582,8-8S31.168,27.5,26.75,27.5 M25.75,40l-4.5-4.5l1.41-1.41l3.09,3.08l5.59-5.58L32.75,33
	L25.75,40z"/>
</svg>
