<?xml version="1.0" encoding="utf-8"?>
<!-- Generator: Adobe Illustrator 16.0.0, SVG Export Plug-In . SVG Version: 6.00 Build 0)  -->
<!DOCTYPE svg PUBLIC "-//W3C//DTD SVG 1.1//EN" "http://www.w3.org/Graphics/SVG/1.1/DTD/svg11.dtd">
<svg version="1.1" id="Layer_1" xmlns="http://www.w3.org/2000/svg" xmlns:xlink="http://www.w3.org/1999/xlink" x="0px" y="0px"
	 width="24px" height="24px" viewBox="0 0 24 24" enable-background="new 0 0 24 24" xml:space="preserve">
<path fill="none" d="M0,0h24v24H0V0z"/>
<path d="M4.37,7.3C4.4,7.05,4.3,6.811,4.12,6.65L2.25,4.4v-0.34h5.8l4.479,9.83l3.941-9.83H22V4.4l-1.6,1.53
	c-0.131,0.1-0.2,0.279-0.17,0.449v11.24c-0.03,0.17,0.039,0.35,0.17,0.45l1.56,1.529v0.34h-7.84V19.6l1.61-1.569
	c0.16-0.15,0.16-0.2,0.16-0.44V8.5L11.4,19.9h-0.6L5.57,8.5v7.641C5.5,16.46,5.63,16.78,5.86,17l2.1,2.57v0.33H2v-0.33L4.1,17
	c0.23-0.22,0.33-0.54,0.27-0.859V7.3z"/>
</svg>
