<?xml version="1.0" encoding="utf-8"?>
<!-- Generator: Adobe Illustrator 16.0.0, SVG Export Plug-In . SVG Version: 6.00 Build 0)  -->
<!DOCTYPE svg PUBLIC "-//W3C//DTD SVG 1.1//EN" "http://www.w3.org/Graphics/SVG/1.1/DTD/svg11.dtd">
<svg version="1.1" id="Layer_1" xmlns="http://www.w3.org/2000/svg" xmlns:xlink="http://www.w3.org/1999/xlink" x="0px" y="0px"
	 width="24px" height="24px" viewBox="0 0 24 24" enable-background="new 0 0 24 24" xml:space="preserve">
<path display="none" d="M12,1L3,5v6c0,5.55,3.84,10.74,9,12c5.16-1.26,9-6.45,9-12V5L12,1z M12,11.99h7
	c-0.529,4.119-3.279,7.79-7,8.939V12H5V6.3l7-3.11V11.99z"/>
<path d="M19.938,11.951c-0.493-2.116-1.753-3.62-3.687-4.578c-0.126-0.063-0.253-0.12-0.378-0.18
	c0.114-0.683,0.91-1.401,2.214-1.987c-0.373-0.157-0.715-0.312-1.065-0.444c-1.458-0.552-2.96-0.901-4.52-0.994
	c-0.032-0.002-0.063-0.018-0.096-0.027c-0.464,0-0.929,0-1.393,0c-0.297,0.034-0.592,0.069-0.889,0.103
	C7.787,4.1,6.015,5.259,4.78,7.242C4.291,8.03,4.026,8.905,3.94,9.831c-0.003,0.043-0.019,0.086-0.03,0.13c0,0.317,0,0.634,0,0.951
	c0.052,0.306,0.087,0.616,0.158,0.917c0.381,1.64,1.276,2.929,2.668,3.871c0.242,0.165,0.491,0.319,0.753,0.489
	c-0.496,1.082-1.422,1.606-2.53,1.96c0.228,0.122,0.426,0.237,0.63,0.34c1.841,0.931,3.783,1.521,5.839,1.729
	c0.123,0.013,0.245,0.027,0.367,0.042c0.454,0,0.907,0,1.361,0c0.273-0.029,0.55-0.052,0.822-0.087
	c1.11-0.142,2.105-0.578,3.025-1.202c0.995-0.675,1.803-1.52,2.353-2.598c0.388-0.759,0.625-1.562,0.702-2.409
	c0.004-0.043,0.02-0.086,0.031-0.128c0-0.329,0-0.658,0-0.986C20.04,12.549,20.007,12.246,19.938,11.951z M16.456,17.463
	c-1.008,0.742-2.145,1.109-3.391,1.2c-1.687,0.123-3.303-0.147-4.861-0.793c-0.025-0.01-0.049-0.023-0.072-0.033
	c0.18-0.208,0.376-0.4,0.53-0.62c0.171-0.243,0.316-0.508,0.453-0.773c0.187-0.359,0.137-0.72-0.029-1.077
	c-1.35-2.896,0.365-6.213,3.521-6.806c2.133-0.401,4.218,0.572,5.26,2.455C19.066,13.186,18.454,15.99,16.456,17.463z"/>
<path fill="none" d="M0,0h24v24H0V0z"/>
</svg>
