<?xml version="1.0" encoding="utf-8"?>
<!-- Generator: Adobe Illustrator 16.0.0, SVG Export Plug-In . SVG Version: 6.00 Build 0)  -->
<!DOCTYPE svg PUBLIC "-//W3C//DTD SVG 1.1//EN" "http://www.w3.org/Graphics/SVG/1.1/DTD/svg11.dtd">
<svg version="1.1" id="Layer_1" xmlns="http://www.w3.org/2000/svg" xmlns:xlink="http://www.w3.org/1999/xlink" x="0px" y="0px"
	 width="24px" height="24px" viewBox="0 0 24 24" enable-background="new 0 0 24 24" xml:space="preserve">
<path fill="none" stroke="#000000" stroke-linejoin="round" stroke-miterlimit="10" d="M22.46,6C21.689,6.35,20.859,6.58,20,6.69
	c0.88-0.53,1.561-1.37,1.88-2.38c-0.83,0.5-1.75,0.85-2.72,1.05C18.37,4.5,17.26,4,16,4c-2.35,0-4.27,1.92-4.27,4.29
	c0,0.34,0.04,0.67,0.11,0.98C8.28,9.09,5.11,7.38,3,4.79C2.63,5.42,2.42,6.16,2.42,6.94c0,1.49,0.75,2.81,1.91,3.56
	c-0.71,0-1.37-0.2-1.95-0.5c0,0,0,0,0,0.03c0,2.08,1.48,3.819,3.44,4.21c-0.36,0.1-0.74,0.15-1.13,0.15c-0.27,0-0.54-0.031-0.8-0.08
	C4.43,16,6,17.26,7.89,17.29c-1.46,1.16-3.31,1.84-5.33,1.84c-0.34,0-0.68-0.021-1.02-0.06C3.44,20.29,5.7,21,8.12,21
	C16,21,20.33,14.46,20.33,8.79c0-0.19,0-0.37-0.01-0.56C21.16,7.63,21.88,6.87,22.46,6z"/>
</svg>
