<?xml version="1.0" encoding="utf-8"?>
<!-- Generator: Adobe Illustrator 16.0.0, SVG Export Plug-In . SVG Version: 6.00 Build 0)  -->
<!DOCTYPE svg PUBLIC "-//W3C//DTD SVG 1.1//EN" "http://www.w3.org/Graphics/SVG/1.1/DTD/svg11.dtd">
<svg version="1.1" id="Layer_1" xmlns="http://www.w3.org/2000/svg" xmlns:xlink="http://www.w3.org/1999/xlink" x="0px" y="0px"
	 width="24px" height="24px" viewBox="0 0 24 24" enable-background="new 0 0 24 24" xml:space="preserve">
<path fill="none" d="M0,0h24v24H0V0z"/>
<path id="KuCoin" fill="#0093DD" d="M8.613,12l5.922,5.921l3.736-3.738c0.66-0.658,1.732-0.658,2.391,0c0.66,0.66,0.66,1.73,0,2.391
	l-4.932,4.934c-0.658,0.658-1.74,0.652-2.393,0l-7.114-7.115v4.23c0,0.93-0.762,1.691-1.691,1.691c-0.933,0-1.689-0.758-1.689-1.691
	V5.377c0-0.934,0.757-1.69,1.689-1.69c0.935,0,1.691,0.757,1.691,1.69v4.231l7.114-7.117c0.652-0.651,1.734-0.658,2.393,0
	l4.932,4.934c0.66,0.66,0.66,1.73,0,2.391c-0.658,0.66-1.729,0.66-2.391,0l-3.736-3.737L8.613,12z M14.537,10.308
	c0.934,0,1.691,0.758,1.691,1.692c0,0.934-0.758,1.692-1.691,1.692c-0.936,0-1.691-0.758-1.691-1.692
	C12.846,11.065,13.602,10.308,14.537,10.308z"/>
</svg>
