<?xml version="1.0" encoding="utf-8"?>
<!-- Generator: Adobe Illustrator 16.0.0, SVG Export Plug-In . SVG Version: 6.00 Build 0)  -->
<!DOCTYPE svg PUBLIC "-//W3C//DTD SVG 1.1//EN" "http://www.w3.org/Graphics/SVG/1.1/DTD/svg11.dtd">
<svg version="1.1" id="Layer_1" xmlns="http://www.w3.org/2000/svg" xmlns:xlink="http://www.w3.org/1999/xlink" x="0px" y="0px"
	 width="24px" height="24px" viewBox="0 0 24 24" enable-background="new 0 0 24 24" xml:space="preserve">
<path fill="none" d="M0,0h24v24H0V0z"/>
<g id="Huobi">
	<path fill="#454E72" d="M14.756,8.642c0.009,1.035-0.408,1.857-0.993,2.618c-0.503,0.658-1.105,1.221-1.693,1.797
		c-1.707,1.686-2.872,3.697-3.641,5.954c-0.155,0.447-0.29,0.898-0.387,1.363c-0.047,0.22-0.085,0.232-0.253,0.08
		c-2.864-2.509-3.04-6.786-0.396-9.53c0.34-0.353,0.731-0.646,1.07-0.993c1.44-1.461,2.385-3.186,2.725-5.225
		c0.137-0.838,0.194-1.676,0.117-2.523c-0.009-0.068-0.043-0.153,0.043-0.192c0.082-0.04,0.133,0.039,0.186,0.081
		c0.753,0.662,1.371,1.44,1.896,2.292c0.742,1.204,1.144,2.519,1.315,3.916C14.756,8.414,14.752,8.552,14.756,8.642z"/>
	<path fill="#24A9E2" d="M12.112,22.021c-0.714-0.013-1.414-0.142-2.111-0.322c-0.098-0.026-0.18-0.052-0.15-0.183
		c0.021-0.101,0.012-0.205,0.171-0.221c0.374-0.039,0.614-0.255,0.709-0.616c0.043-0.158,0.081-0.322,0.095-0.485
		c0.081-1.112,0.606-2.028,1.268-2.885c0.653-0.84,1.447-1.549,2.167-2.327c1.191-1.294,2.159-2.725,2.744-4.397
		c0.021-0.064,0.021-0.159,0.11-0.168c0.1-0.009,0.121,0.091,0.156,0.154c0.494,0.891,0.82,1.841,1.005,2.841
		c0.159,0.856,0.254,1.717,0.177,2.585c-0.168,1.934-0.983,3.525-2.549,4.698C14.787,21.539,13.531,22.008,12.112,22.021z"/>
</g>
</svg>
