<?xml version="1.0" encoding="utf-8"?>
<!-- Generator: Adobe Illustrator 16.0.0, SVG Export Plug-In . SVG Version: 6.00 Build 0)  -->
<!DOCTYPE svg PUBLIC "-//W3C//DTD SVG 1.1//EN" "http://www.w3.org/Graphics/SVG/1.1/DTD/svg11.dtd">
<svg version="1.1" id="Layer_1" xmlns="http://www.w3.org/2000/svg" xmlns:xlink="http://www.w3.org/1999/xlink" x="0px" y="0px"
	 width="24px" height="24px" viewBox="0 0 24 24" enable-background="new 0 0 24 24" xml:space="preserve">
<path fill="none" d="M0,0h24v24H0V0z"/>
<g id="Binance">
	<polygon fill="#F3BA2F" points="12,6.508 15.896,10.402 18.16,8.138 12,1.979 5.844,8.136 8.109,10.401 	"/>
	
		<rect x="2.643" y="10.4" transform="matrix(0.7071 -0.7071 0.7071 0.7071 -7.2431 6.5166)" fill="#F3BA2F" width="3.204" height="3.203"/>
	<polygon fill="#F3BA2F" points="12,17.492 8.109,13.599 5.84,15.86 5.844,15.864 12,22.021 18.16,15.861 18.161,15.86 
		15.896,13.598 	"/>
	
		<rect x="18.154" y="10.4" transform="matrix(0.7073 -0.707 0.707 0.7073 -2.7013 17.4799)" fill="#F3BA2F" width="3.203" height="3.204"/>
	<polygon fill="#F3BA2F" points="12,9.7 10.302,11.399 10.107,11.593 9.705,11.997 9.702,12 9.705,12.003 12,14.299 14.299,12.001 
		14.301,12 14.298,11.999 14.299,11.999 	"/>
</g>
</svg>
