<?xml version="1.0" standalone="no"?>
<!DOCTYPE svg PUBLIC "-//W3C//DTD SVG 20010904//EN"
 "http://www.w3.org/TR/2001/REC-SVG-20010904/DTD/svg10.dtd">
<svg version="1.0" xmlns="http://www.w3.org/2000/svg"
 width="260.000000pt" height="260.000000pt" viewBox="0 0 260.000000 260.000000"
 preserveAspectRatio="xMidYMid meet">
<metadata>
Created by potrace 1.11, written by Peter Selinger 2001-2013
</metadata>
<g transform="translate(0.000000,260.000000) scale(0.100000,-0.100000)"
fill="#000000" stroke="none">
<path d="M2 2278 c0 -190 4 -321 10 -324 5 -3 150 -6 321 -6 l312 0 3 325 2
325 -324 -1 -324 0 0 -319z"/>
<path d="M975 2274 l0 -324 25 -1 c14 0 159 -1 322 -2 259 -2 298 0 299 13 4
39 5 616 1 626 -2 8 -95 12 -325 12 l-322 0 0 -324z"/>
<path d="M1949 2561 c-3 -166 0 -603 4 -608 5 -4 396 -7 603 -4 l41 1 0 324
-1 324 -323 0 -323 -1 -1 -36z"/>
<path d="M4 1615 c-1 -5 -2 -152 -1 -325 l2 -315 323 0 c210 0 322 3 323 10 4
84 -1 628 -6 633 -11 11 -637 9 -641 -3z"/>
<path d="M981 1615 c-4 -5 -7 -152 -7 -325 l1 -315 322 0 c212 0 324 3 326 10
2 5 3 152 3 325 l-1 315 -318 0 c-204 0 -321 -3 -326 -10z"/>
<path d="M1949 1575 c0 -64 0 -577 0 -590 1 -7 112 -10 324 -10 l322 0 2 310
c0 171 -1 317 -3 325 -3 13 -47 15 -324 15 l-320 0 -1 -50z"/>
<path d="M78 652 l-76 -3 1 -322 2 -322 323 0 323 0 -1 319 c0 176 -2 322 -5
324 -5 5 -455 8 -567 4z"/>
<path d="M1010 650 l-35 -5 0 -320 0 -320 325 0 325 0 0 318 c0 193 -4 321 -9
325 -12 7 -557 9 -606 2z"/>
<path d="M1978 652 c-20 -2 -28 -9 -29 -23 0 -10 0 -140 0 -289 0 -148 0 -285
0 -303 l1 -34 323 1 322 1 1 323 c1 288 -1 322 -15 323 -67 2 -582 3 -603 1z"/>
</g>
</svg>
