<?xml version="1.0" encoding="utf-8"?>
<!-- Generator: Adobe Illustrator 16.0.0, SVG Export Plug-In . SVG Version: 6.00 Build 0)  -->
<!DOCTYPE svg PUBLIC "-//W3C//DTD SVG 1.1//EN" "http://www.w3.org/Graphics/SVG/1.1/DTD/svg11.dtd">
<svg version="1.1" id="Layer_1" xmlns="http://www.w3.org/2000/svg" xmlns:xlink="http://www.w3.org/1999/xlink" x="0px" y="0px"
	 width="256px" height="256px" viewBox="0 0 256 256" enable-background="new 0 0 256 256" xml:space="preserve">
<g>
	<path d="M130.686,62.379c5.153-1.288,9.021-6.014,9.021-11.598c0-6.66-5.368-12.03-12.029-12.03c-6.657,0-12.027,5.37-12.027,12.03
		c0,5.584,3.866,10.31,9.022,11.598v12.888H56.58v141.982h141.98V75.267h-67.875V62.379z M87.51,192.548H75.268v-12.244H87.51
		V192.548z M105.983,192.548H93.74v-12.244h12.243V192.548z M97.605,153.023c-10.954,0-19.976-9.021-19.976-19.975
		c0-10.956,9.021-19.977,19.976-19.977c10.956,0,19.976,9.021,19.976,19.977C117.581,144.003,108.562,153.023,97.605,153.023z
		 M124.456,192.548h-12.245v-12.244h12.245V192.548z M161.615,192.548h-12.242v-12.244h12.242V192.548z M180.089,192.548h-12.244
		v-12.244h12.244V192.548z M157.318,113.072c10.957,0,19.978,9.021,19.978,19.977c0,10.954-9.021,19.975-19.978,19.975
		c-10.953,0-19.976-9.021-19.976-19.975C137.343,122.093,146.365,113.072,157.318,113.072z M142.93,180.304v12.244h-12.244v-12.244
		H142.93z"/>
	<path d="M241.09,133.906c-5.584,0-10.31,3.223-11.599,9.238h-7.947V124.67h-14.392v41.028h14.392v-16.327h7.947
		c1.289,4.083,6.015,8.593,11.599,8.593c6.66,0,12.029-5.583,12.029-12.243C253.119,138.848,247.75,133.906,241.09,133.906z"/>
	<path d="M33.597,141.21h-7.088c-1.291-4.081-6.015-8.592-11.601-8.592c-6.657,0-12.027,5.584-12.027,12.244
		c0,6.657,5.37,11.813,12.027,11.813c5.586,0,10.31-3.222,11.601-9.236h7.088v18.474h14.392V124.67H33.597V141.21z"/>
	<rect x="89.874" y="128.967" width="15.466" height="8.162"/>
	<rect x="153.239" y="125.314" width="8.162" height="15.467"/>
</g>
</svg>
