<?xml version="1.0" encoding="utf-8"?>
<!-- Generator: Adobe Illustrator 16.0.0, SVG Export Plug-In . SVG Version: 6.00 Build 0)  -->
<!DOCTYPE svg PUBLIC "-//W3C//DTD SVG 1.1//EN" "http://www.w3.org/Graphics/SVG/1.1/DTD/svg11.dtd">
<svg version="1.1" id="Layer_1" xmlns="http://www.w3.org/2000/svg" xmlns:xlink="http://www.w3.org/1999/xlink" x="0px" y="0px"
	 width="24px" height="24px" viewBox="0 0 24 24" enable-background="new 0 0 24 24" xml:space="preserve">
<path fill="none" d="M0,0h24v24H0V0z"/>
<path fill="#33DAFF" d="M21.396,10.809L18,7.411c-1.061-1.06-2.878-0.305-2.876,1.193l-0.002,2.579H15.03l-5.722,0.001v-0.001
	l-6.891,0.003c-0.169-0.002-0.306,0.135-0.307,0.307v0.188H2.11l0.001,0.877c0.001,0.173,0.138,0.31,0.307,0.308l6.891,0.003v-0.001
	l5.811,0.001v2.527c-0.002,1.505,1.818,2.251,2.877,1.192l3.397-3.397C22.056,12.536,22.054,11.466,21.396,10.809z M20.355,12.146
	l-3.397,3.397c-0.134,0.134-0.361,0.035-0.357-0.148L16.602,8.6c-0.001-0.187,0.223-0.282,0.357-0.147l3.396,3.397
	C20.438,11.932,20.438,12.063,20.355,12.146z"/>
</svg>
