<?xml version="1.0" encoding="utf-8"?>
<!-- Generator: Adobe Illustrator 16.0.0, SVG Export Plug-In . SVG Version: 6.00 Build 0)  -->
<!DOCTYPE svg PUBLIC "-//W3C//DTD SVG 1.1//EN" "http://www.w3.org/Graphics/SVG/1.1/DTD/svg11.dtd">
<svg version="1.1" id="Layer_1" xmlns="http://www.w3.org/2000/svg" xmlns:xlink="http://www.w3.org/1999/xlink" x="0px" y="0px"
	 width="24px" height="24px" viewBox="0 0 24 24" enable-background="new 0 0 24 24" xml:space="preserve">
<path fill="none" d="M0,0h24v24H0V0z"/>
<path fill="#00E676" d="M22.048,6.721v4.804c0,1.499-1.819,2.25-2.877,1.19l-1.825-1.823l-4.896,4.893
	c-0.118,0.121-0.312,0.121-0.435,0l-3.036-3.033l-5.75,6.113c-0.118,0.121-0.312,0.129-0.435,0.016L2.048,18.18
	c-0.122-0.117-0.127-0.311-0.015-0.432l6.696-7.111c0.118-0.128,0.317-0.128,0.439-0.006l3.066,3.066l3.956-3.957l-1.824-1.824
	c-1.065-1.063-0.307-2.878,1.19-2.878h4.805C21.292,5.034,22.048,5.791,22.048,6.721z M20.576,6.721c0-0.118-0.094-0.21-0.21-0.21
	h-4.805c-0.189,0-0.28,0.23-0.147,0.358l4.805,4.804c0.132,0.133,0.357,0.042,0.357-0.148V6.721z"/>
</svg>
