<?xml version="1.0" encoding="utf-8"?>
<!-- Generator: Adobe Illustrator 16.0.0, SVG Export Plug-In . SVG Version: 6.00 Build 0)  -->
<!DOCTYPE svg PUBLIC "-//W3C//DTD SVG 1.1//EN" "http://www.w3.org/Graphics/SVG/1.1/DTD/svg11.dtd">
<svg version="1.1" id="Layer_1" xmlns="http://www.w3.org/2000/svg" xmlns:xlink="http://www.w3.org/1999/xlink" x="0px" y="0px"
	 width="24px" height="24px" viewBox="0 0 24 24" enable-background="new 0 0 24 24" xml:space="preserve">
<path fill="none" d="M0,0h24v24H0V0z"/>
<path fill="#FFB129" d="M20.361,18.961h-4.805c-1.497,0-2.256-1.814-1.19-2.877l1.824-1.824l-3.956-3.957l-3.066,3.066
	c-0.122,0.121-0.321,0.121-0.439-0.006L2.033,6.252C1.92,6.131,1.926,5.938,2.048,5.82l0.747-0.701
	c0.123-0.113,0.316-0.105,0.435,0.016l5.75,6.113l3.036-3.033c0.123-0.121,0.316-0.121,0.435,0l4.896,4.893l1.825-1.822
	c1.058-1.061,2.877-0.309,2.877,1.19v4.804C22.048,18.209,21.292,18.967,20.361,18.961z M20.576,12.475
	c0-0.19-0.226-0.281-0.357-0.148l-4.805,4.804c-0.133,0.127-0.042,0.357,0.147,0.357h4.805c0.116,0,0.21-0.092,0.21-0.209V12.475z"
	/>
</svg>
